<svg width="127" height="53" viewBox="0 0 127 53" fill="none" xmlns="http://www.w3.org/2000/svg">
<g id="Group">
<g id="Group_2">
<path id="Vector" d="M12.0029 32.9378L20.9211 17.6202H30.7634L28.7187 21.0975H22.9577L20.6091 25.1341H26.4046L24.3599 28.6114H18.5847L16.0659 32.9378H12.0029Z" fill="white"/>
<path id="Vector_2" d="M57.4082 32.9378L64.302 21.0975H59.8217L61.8663 17.6202H74.663L72.6184 21.0975H68.3629L61.4711 32.9378H57.4082Z" fill="white"/>
<path id="Vector_3" d="M32.434 32.9219L34.9528 28.5956H30.3468L27.828 32.9219H23.7671L32.6833 17.6044H43.4516L44.4364 19.2802L36.4949 32.9219H32.434ZM32.3692 25.1183H36.9752L39.3238 21.0817H34.7178L32.3692 25.1183Z" fill="white"/>
<path id="Vector_4" d="M47.3092 32.9544L47.3295 32.9219H38.6504L40.695 29.4426H49.3539L51.2931 26.1132H42.5613L47.5139 17.6044H60.2377L58.193 21.0817H49.5504L47.2018 25.1183H55.8809L51.3681 32.9544H47.3092Z" fill="white"/>
<path id="Vector_5" d="M94.3394 51.4675L103.258 36.1499H107.318L100.427 47.9902H106.214L104.169 51.4675H94.3394Z" fill="white"/>
<path id="Vector_6" d="M47.312 51.4675L44.8418 47.2668L51.3121 36.1499H55.375L48.4812 47.9902H53.1784L60.0702 36.1499H64.1311L57.2393 47.9902H61.9345L68.8283 36.1499H72.8893L63.9731 51.4675H47.312Z" fill="white"/>
<path id="Vector_7" d="M0.732422 52.2519L9.6486 36.9344H19.4908L17.4462 40.4117H11.6851L9.33654 44.4483H15.1341L13.0894 47.9256H7.31216L4.79334 52.2519H0.732422Z" fill="white"/>
<path id="Vector_8" d="M12.4512 52.2337L21.3674 36.9162H32.1357L33.1307 38.6082L32.077 40.3935H32.0749L31.8561 40.7623L25.1791 52.2317H12.4492L12.4512 52.2337ZM18.5386 48.7564H23.1446L28.012 40.3955H23.406L18.5386 48.7564Z" fill="white"/>
<path id="Vector_9" d="M35.9275 52.2519L33.7451 48.6531L31.6498 52.2519H27.5889L36.505 36.9344H47.2734L48.2582 38.6102L43.2064 47.2873H37.0968L40.108 52.2519H35.9275ZM36.5618 43.8099H41.1678L43.1456 40.4117H38.5396L36.5618 43.8099Z" fill="white"/>
<path id="Vector_10" d="M65.416 51.4675L74.3322 36.1499H85.1005L86.0955 37.842L85.0438 39.6272H85.0417L84.8229 39.996L78.1459 51.4655H65.416V51.4675ZM71.5033 47.9902H76.1094L80.9768 39.6293H76.3708L71.5033 47.9902Z" fill="white"/>
<path id="Vector_11" d="M88.1292 51.4675L85.9467 47.8686L83.8514 51.4675H79.7905L88.7067 36.1499H99.475L100.46 37.8258L95.408 46.5028H89.2984L92.3096 51.4675H88.1292ZM88.7655 43.0255H93.3715L95.3493 39.6272H90.7432L88.7655 43.0255Z" fill="white"/>
<path id="Vector_12" d="M105.899 51.4675L114.815 36.1499H125.583L126.578 37.842L125.524 39.6272H125.522L125.303 39.996L119.98 49.1392L116.855 51.4655H105.896L105.899 51.4675ZM111.986 47.9902H116.592L121.459 39.6293H116.853L111.986 47.9902Z" fill="white"/>
</g>
<g id="Group_3">
<path id="Vector_13" d="M87.987 1.0159H87.0873L86.6313 1.80417L94.4776 15.3345L86.6678 28.8567L87.0873 29.5821H88.06L95.8454 16.1025H111.362L111.826 15.3L111.384 14.534H95.8272L87.987 1.0159Z" fill="white"/>
<g id="Group_4">
<path id="Vector_14" d="M103.243 1.56919L109.557 12.5077H110.26L103.594 0.961273H90.2983L90.6509 1.56919H103.243Z" fill="#706A6A"/>
<path id="Vector_15" d="M103.243 28.9254H90.7803L90.4297 29.5333H103.593L110.177 18.1287H109.476L103.243 28.9254Z" fill="#706A6A"/>
<path id="Vector_16" d="M79.5523 15.2471L85.8037 4.416L85.4532 3.8101L78.8491 15.2471L85.518 26.7976L85.8686 26.1897L79.5523 15.2471Z" fill="#706A6A"/>
</g>
<g id="Group_5">
<path id="Vector_17" d="M96.9921 18.0984H95.8654L95.6304 18.5037H97.2251L98.0276 17.1156H97.5595L96.9921 18.0984Z" fill="#CCCCCC"/>
<path id="Vector_18" d="M92.0545 15.2473L92.6543 14.2078L92.4193 13.8045L91.5864 15.2473L92.472 16.7813L92.705 16.376L92.0545 15.2473Z" fill="#CCCCCC"/>
<path id="Vector_19" d="M96.9906 12.3963L97.639 13.521H98.1071L97.2236 11.991H95.5234L95.7585 12.3963H96.9906Z" fill="#CCCCCC"/>
</g>
<g id="Group_6">
<path id="Vector_20" d="M84.3672 15.2917L88.2315 8.59851L87.8789 7.99261L83.666 15.2917L87.9134 22.6496L88.266 22.0417L84.3672 15.2917Z" fill="#666666"/>
<path id="Vector_21" d="M101.039 5.66621L104.99 12.5073H105.691L101.391 5.05829H92.6758L93.0284 5.66621H101.039Z" fill="#666666"/>
<path id="Vector_22" d="M101.038 24.917H93.0962L92.7437 25.525H101.39L105.66 18.1286H104.957L101.038 24.917Z" fill="#666666"/>
<path id="Vector_23" d="M89.0468 15.2919L90.5768 12.6434L90.2242 12.0375L88.3457 15.2919L90.2546 18.597L90.6051 17.9891L89.0468 15.2919Z" fill="#948F8F"/>
<path id="Vector_24" d="M98.6993 9.71902L100.308 12.5074H101.011L99.0499 9.1111H95.0234L95.376 9.71902H98.6993Z" fill="#948F8F"/>
<path id="Vector_25" d="M98.7001 20.8642H95.4376L95.085 21.4722H99.0506L100.98 18.1286H100.279L98.7001 20.8642Z" fill="#948F8F"/>
</g>
</g>
</g>
</svg>
