<svg width="134" height="44" viewBox="0 0 134 44" fill="none" xmlns="http://www.w3.org/2000/svg">
<g id="gt world challenge 1" clip-path="url(#clip0_1672_22987)">
<path id="Vector" d="M0.191406 16.9576C3.42467 13.7986 6.64318 10.6251 9.90597 7.49531C11.589 5.87945 13.2131 4.17625 15.28 2.98255C17.3617 1.77429 19.6058 1.04643 21.9975 0.915414C24.9946 0.740727 27.9916 0.682497 30.9886 0.682497C64.6501 0.667939 98.3115 0.667941 131.973 0.667941C132.342 0.667941 132.711 0.653382 133.08 0.638824C133.08 0.92997 133.08 1.22112 133.08 1.51226C132.298 2.24013 131.486 2.93888 130.733 3.69586C129.227 5.19526 127.426 5.85034 125.3 5.85034C118.213 5.83578 111.126 5.85034 104.04 5.83578C103.449 5.83578 103.036 6.02502 102.622 6.43263C95.9788 12.9252 89.3499 19.4177 82.6766 25.8666C80.8164 27.6572 78.5428 28.8072 75.9591 29.1711C74.5565 29.3604 73.1392 29.4477 71.7219 29.4768C68.6953 29.5205 65.6688 29.4914 62.6422 29.4914C62.3764 29.4914 62.1255 29.4914 61.8597 29.4914C61.8302 29.4331 61.8006 29.3749 61.7711 29.3312C69.7583 21.5577 77.7455 13.7986 85.8361 5.92312C85.467 5.89401 85.2308 5.86489 85.0093 5.86489C69.3892 5.86489 53.7692 5.87945 38.1491 5.85034C34.5615 5.85034 31.5054 7.04404 28.9808 9.56245C26.3971 12.1245 23.7987 14.6866 21.1855 17.2196C20.9345 17.4671 20.5211 17.6854 20.1963 17.6854C13.5231 17.6854 6.86463 17.6854 0.191406 17.6854C0.191406 17.4379 0.191406 17.1905 0.191406 16.9576Z" fill="white"/>
<path id="Vector_2" d="M14.6328 29.4769C15.8877 28.1813 17.1131 26.8712 18.3681 25.6047C19.4015 24.5566 20.4793 23.5667 21.498 22.5185C21.8523 22.1546 22.2066 22.009 22.7086 22.009C28.8356 22.0236 34.9625 22.0236 41.0895 22.0236C44.1604 22.0236 46.7736 20.9755 48.9734 18.8647C50.2283 17.671 51.498 16.4918 52.7677 15.2981C52.9596 15.1234 53.181 14.9633 53.3877 14.8032C53.3582 14.7449 53.3139 14.7013 53.2844 14.643C46.6112 14.643 39.9379 14.643 33.0432 14.643C33.5305 14.1335 33.8995 13.7696 34.2539 13.4057C35.9665 11.6151 38.0039 10.7999 40.5432 10.829C50.2873 10.9018 60.0314 10.8581 69.7608 10.8581C70.0265 10.8581 70.307 10.8581 70.7942 10.8581C70.0413 11.586 69.4064 12.1974 68.7864 12.8088C65.0511 16.4627 61.3159 20.1166 57.5511 23.7559C56.0009 25.2553 54.495 26.8275 52.5019 27.8319C50.3021 28.9237 47.9694 29.4624 45.5186 29.4769C35.4793 29.506 25.4399 29.4915 15.4153 29.4915C15.12 29.4769 14.8395 29.4769 14.6328 29.4769Z" fill="white"/>
<path id="Vector_3" d="M7.94405 36.537C8.41649 36.537 8.9037 36.537 9.43519 36.537C9.52378 38.4586 9.61236 40.3365 9.70094 42.2289C9.77476 42.2435 9.84858 42.2726 9.9224 42.2871C10.07 42.0397 10.2472 41.8067 10.3653 41.5593C10.9706 40.2491 11.6055 38.9389 12.1222 37.5997C12.3879 36.9155 12.7423 36.6243 13.4657 36.7554C13.6576 36.7845 13.8496 36.7845 14.071 36.799C14.2629 38.6187 14.4401 40.4238 14.632 42.2143C14.7059 42.2435 14.7797 42.2726 14.8387 42.2871C14.9864 42.0251 15.1783 41.7922 15.2817 41.5156C15.8131 40.1909 16.3004 38.8662 16.8318 37.556C17.3043 36.3623 17.3633 36.3478 18.7954 36.5952C18.7216 36.8427 18.6626 37.0902 18.574 37.3376C17.8653 39.1573 17.1419 40.9624 16.4185 42.7821C16.0494 43.7137 14.2925 44.1941 13.5543 43.5245C13.2885 43.277 13.2295 42.7384 13.1852 42.3308C13.0818 41.37 13.0376 40.4092 12.949 39.201C12.7128 39.6086 12.5651 39.8269 12.447 40.0744C12.0041 41.0352 11.5907 42.0251 11.1183 42.9713C10.7344 43.7429 8.97751 44.1068 8.35744 43.5391C8.16551 43.3644 8.0474 43.0295 8.03264 42.7675C7.95882 40.7877 7.89976 38.7934 7.85547 36.8136C7.87023 36.7117 7.91452 36.6389 7.94405 36.537Z" fill="white"/>
<path id="Vector_4" d="M95.4916 39.2305C95.3292 40.0748 95.1668 40.9046 95.0044 41.7489C94.9601 42.0109 94.8863 42.2584 94.842 42.5204C94.6353 43.8015 94.4138 43.9325 93.0703 43.554C93.3656 41.8945 93.6756 40.2204 93.9857 38.5463C94.0595 38.1241 94.1185 37.6874 94.2367 37.2798C94.3252 37.0032 94.5172 36.5519 94.6796 36.5374C95.1963 36.5083 95.8016 36.2462 96.1855 36.9304C96.9384 38.2551 97.7357 39.5507 98.6067 40.9919C98.902 39.4197 99.1678 38.0077 99.4483 36.5519C99.9355 36.5519 100.423 36.5519 101.043 36.5519C100.91 37.3089 100.792 38.0222 100.659 38.7355C100.408 40.1476 100.157 41.5742 99.8764 42.9862C99.8174 43.2774 99.9059 43.7287 99.3597 43.6996C98.8577 43.685 98.341 43.8015 98.0162 43.2046C97.3813 42.0691 96.6874 40.9482 96.0231 39.8273C95.905 39.6235 95.7869 39.4197 95.6687 39.2014C95.6097 39.2159 95.5506 39.2305 95.4916 39.2305Z" fill="white"/>
<path id="Vector_5" d="M40.6758 43.6414C40.8825 42.3167 41.0744 41.1375 41.2811 39.9584C41.4287 39.1141 41.6059 38.2552 41.724 37.4109C41.7978 36.8286 42.034 36.4792 42.6837 36.4938C43.8352 36.5229 44.9868 36.4646 46.1384 36.5665C47.4376 36.683 48.0872 37.5419 47.9986 39.0413C47.9543 39.8856 47.7329 40.7445 47.4523 41.5597C46.9504 43.0009 45.7693 43.6705 44.2929 43.7287C43.1118 43.7724 41.9455 43.6705 40.6758 43.6414ZM42.5065 42.3749C45.1049 42.7388 45.8874 42.2002 46.2122 39.9438C46.4927 37.9495 46.1827 37.6875 44.1305 37.702C44.0567 37.702 43.9829 37.702 43.909 37.702C43.3923 37.6438 43.2299 37.9204 43.1856 38.3716C43.1266 38.8666 43.0085 39.3615 42.9346 39.8565C42.787 40.7008 42.6541 41.5306 42.5065 42.3749Z" fill="white"/>
<path id="Vector_6" d="M31.8749 41.0061C32.3473 41.9232 32.7607 42.7239 33.1888 43.5391C32.052 43.9612 31.5058 43.7865 30.989 42.8403C30.7528 42.4182 30.5904 41.9523 30.2951 41.5738C30.1032 41.3409 29.7341 41.1517 29.4388 41.1371C29.2764 41.1371 29.055 41.5302 28.9369 41.7776C28.8188 42.0397 28.8188 42.3454 28.7597 42.622C28.5235 43.8157 28.302 43.9321 27.0176 43.5827C27.3867 41.4137 27.7558 39.2592 28.1544 37.0902C28.1839 36.9009 28.4644 36.6098 28.6416 36.5952C29.867 36.5225 31.1071 36.406 32.303 36.537C34.0304 36.7263 34.0008 37.4105 33.8384 38.8807C33.7056 39.958 33.1445 40.7732 31.8749 41.0061ZM29.2617 40.089C30.1032 39.9871 30.9004 40.0016 31.6091 39.7687C31.9191 39.6668 32.1111 39.07 32.2292 38.6478C32.2882 38.4295 32.0963 37.9345 31.9634 37.9054C31.2548 37.7889 30.5166 37.7744 29.7932 37.7453C29.7193 37.7453 29.6012 37.9491 29.5717 38.0801C29.4684 38.6915 29.3798 39.3029 29.2617 40.089Z" fill="white"/>
<path id="Vector_7" d="M23.2832 36.3771C23.6966 36.4353 24.11 36.4645 24.5086 36.5518C25.7636 36.8138 26.236 37.3524 26.1327 38.6335C26.0588 39.5652 25.9407 40.5114 25.6602 41.3994C25.0697 43.35 24.2134 43.5102 22.5303 43.6994C21.8216 43.7868 21.0687 43.6558 20.3452 43.5393C19.6366 43.4228 19.1789 42.8405 19.1199 42.1127C19.0017 40.788 19.2675 39.5215 19.7104 38.2841C20.2124 36.9012 21.3787 36.5518 22.6779 36.4353C22.8699 36.4208 23.0765 36.4353 23.2685 36.4353C23.2685 36.4208 23.2832 36.4062 23.2832 36.3771ZM24.5677 39.0265C24.4201 38.6917 24.361 38.1968 24.0805 37.9493C23.3571 37.2942 21.6149 37.6873 21.3197 38.6044C21.0096 39.5506 20.9063 40.555 20.7734 41.5595C20.7439 41.7779 20.9653 42.1127 21.1868 42.2583C22.1464 42.8988 23.6819 42.4038 24.0362 41.312C24.2724 40.6133 24.3758 39.8709 24.5677 39.0265Z" fill="white"/>
<path id="Vector_8" d="M60.6215 36.5813C60.4591 37.4984 60.3115 38.3718 60.1491 39.318C61.3007 39.318 62.4375 39.318 63.6186 39.318C63.7367 38.7794 63.8696 38.2262 63.9877 37.6585C64.2534 36.3338 64.3125 36.3047 65.7593 36.5958C65.405 38.5465 65.0654 40.4972 64.7111 42.4624C64.6963 42.5061 64.6668 42.5498 64.6668 42.5934C64.3863 43.8308 64.342 43.8454 62.9247 43.5979C63.0723 42.6662 63.2199 41.7345 63.3971 40.6719C62.2603 40.6719 61.2268 40.6573 60.1786 40.6864C60.0605 40.6864 59.8833 40.9339 59.8538 41.0795C59.7209 41.6909 59.5438 42.3023 59.529 42.9137C59.5142 43.5979 59.2042 43.758 58.6137 43.6852C58.3922 43.6561 58.1855 43.6561 57.8164 43.6415C57.964 42.6808 58.0969 41.7637 58.2593 40.8611C58.4512 39.7984 58.6875 38.7503 58.8499 37.6876C59.027 36.392 59.1009 36.3338 60.6215 36.5813Z" fill="white"/>
<path id="Vector_9" d="M88.761 37.7019C88.6429 38.3133 88.5395 38.8811 88.4214 39.5216C89.6321 39.5216 90.7984 39.5216 91.9795 39.5216C91.8614 40.7589 91.8614 40.7589 90.7098 40.7735C90.1193 40.7735 89.5287 40.8172 88.9382 40.7589C88.2738 40.7007 88.0671 41.0064 88.0376 41.5887C88.0228 41.8507 87.9785 42.1128 87.9342 42.4476C89.2187 42.4476 90.4884 42.4476 91.758 42.4476C91.6695 43.7286 91.8909 43.7141 90.4588 43.7141C89.0415 43.7141 87.6242 43.7141 86.1035 43.7141C86.2364 42.8552 86.3397 42.0837 86.4726 41.3121C86.7236 39.871 86.9893 38.4298 87.2994 36.9886C87.3437 36.7994 87.6094 36.5373 87.7718 36.5373C89.3958 36.5082 91.0198 36.5228 92.6291 36.5373C92.6882 36.5373 92.762 36.5956 92.8801 36.6538C92.8063 36.9886 92.7324 37.338 92.6439 37.731C91.3447 37.7019 90.075 37.7019 88.761 37.7019Z" fill="white"/>
<path id="Vector_10" d="M115.895 36.5519C115.821 36.9741 115.777 37.2798 115.703 37.7019C114.699 37.7019 113.666 37.7456 112.647 37.6874C111.924 37.6437 111.599 37.8912 111.614 38.6045C111.614 38.8811 111.525 39.1577 111.451 39.5216C112.647 39.5216 113.799 39.5216 114.95 39.5216C114.906 40.759 114.906 40.759 113.769 40.759C113.105 40.759 112.44 40.7735 111.776 40.759C111.318 40.7444 111.097 40.89 111.097 41.3849C111.097 41.7052 110.994 42.0255 110.92 42.4331C112.234 42.4331 113.444 42.4331 114.655 42.4331C114.847 43.4957 114.699 43.6995 113.754 43.6995C112.263 43.6995 110.757 43.6995 109.074 43.6995C109.517 41.2685 109.931 38.9247 110.359 36.5519C112.234 36.5519 114.035 36.5519 115.895 36.5519Z" fill="white"/>
<path id="Vector_11" d="M65.5234 43.7144C66.6898 41.3561 67.7528 39.1725 68.86 37.0035C69.1553 36.4358 70.3364 36.2319 71.3108 36.4649C72.0195 36.6396 72.0195 37.2218 72.0933 37.775C72.2852 39.2744 72.4919 40.7884 72.6839 42.2878C72.7429 42.7099 72.7725 43.1467 72.802 43.5688C71.4437 43.9473 71.2223 43.8163 71.1337 42.5353C71.0894 41.9239 70.9122 41.5017 70.174 41.6327C70.1002 41.6473 70.0264 41.6473 69.9526 41.6327C68.6238 41.3561 67.7823 41.8511 67.3984 43.1467C67.1032 44.0783 66.3207 43.5979 65.5234 43.7144ZM70.4693 37.7168C70.3807 37.6877 70.2921 37.6731 70.1888 37.644C69.5539 38.4301 69.2882 39.42 68.7715 40.3371C69.4949 40.3371 70.1002 40.3371 70.8089 40.3371C70.7055 39.42 70.5874 38.5611 70.4693 37.7168Z" fill="white"/>
<path id="Vector_12" d="M108.485 36.5522C108.367 37.0471 108.308 37.3383 108.22 37.7022C107.348 37.7022 106.492 37.7022 105.636 37.7022C104.706 37.7167 104.219 38.037 103.968 38.925C103.761 39.6383 103.598 40.3662 103.51 41.1086C103.392 41.982 103.82 42.4333 104.706 42.477C105.222 42.4915 105.724 42.477 106.256 42.477C106.404 41.7054 106.551 40.9921 106.699 40.2352C107.171 40.2352 107.599 40.2352 108.19 40.2352C108.013 41.1814 107.895 42.0985 107.644 42.9865C107.57 43.234 107.097 43.5105 106.802 43.5251C105.621 43.5979 104.41 43.6416 103.229 43.5542C102.432 43.5105 101.827 42.7972 101.901 41.982C102.004 40.7738 102.196 39.551 102.506 38.3718C102.86 37.0034 104.012 36.5085 105.311 36.4503C106.315 36.4066 107.348 36.5085 108.485 36.5522Z" fill="white"/>
<path id="Vector_13" d="M57.9335 36.6387C57.9778 37.7014 57.9778 37.7014 57.0182 37.7014C56.6491 37.7014 56.28 37.7014 55.9109 37.7014C54.2869 37.7014 53.9916 37.9052 53.5782 39.4774C53.4306 40.0452 53.3568 40.6566 53.3272 41.2534C53.2977 42.1268 53.652 42.4617 54.5674 42.4762C55.3499 42.4908 56.1323 42.4762 56.9443 42.4762C56.9443 43.1022 56.9739 43.6262 56.1619 43.6117C55.1136 43.5826 54.0654 43.6554 53.0319 43.568C52.2199 43.5098 51.6884 42.8984 51.718 42.0832C51.777 41.0059 51.8361 39.9141 52.0871 38.866C52.4857 37.2356 53.401 36.5514 55.1284 36.4349C55.6894 36.3913 56.2652 36.4058 56.8262 36.4349C57.1953 36.4641 57.5497 36.566 57.9335 36.6387Z" fill="white"/>
<path id="Vector_14" d="M36.4373 42.4617C37.6774 42.4617 38.829 42.4617 39.9806 42.4617C39.8034 43.6991 39.8034 43.6991 38.6371 43.6991C37.3231 43.6991 35.9944 43.6991 34.5918 43.6991C34.8428 42.2142 35.079 40.8459 35.33 39.4775C35.4629 38.7642 35.7286 38.0654 35.7286 37.3521C35.7286 36.4641 36.2158 36.435 36.8654 36.4932C37.0131 36.5078 37.1607 36.5078 37.4707 36.5369C37.1164 38.5021 36.7916 40.4237 36.4373 42.4617Z" fill="white"/>
<path id="Vector_15" d="M81.8377 42.4476C83.0778 42.4476 84.1703 42.4476 85.2629 42.4476C85.4696 43.4521 85.2776 43.6995 84.3475 43.6995C82.9449 43.6995 81.5571 43.6995 79.9922 43.6995C80.4203 41.283 80.8337 38.9393 81.2619 36.5519C81.8081 36.5519 82.3101 36.5519 82.8711 36.5519C82.5316 38.5026 82.2068 40.4096 81.8377 42.4476Z" fill="white"/>
<path id="Vector_16" d="M76.8025 36.5371C76.463 38.5315 76.1234 40.4385 75.7838 42.4328C76.9797 42.4328 78.146 42.4328 79.2681 42.4328C79.3124 42.5639 79.3567 42.6221 79.3419 42.6512C79.0614 43.6993 79.0466 43.6993 77.9246 43.6993C76.6254 43.6993 75.3409 43.6993 73.9531 43.6993C74.086 42.8696 74.1746 42.1417 74.3075 41.4138C74.5584 40.0309 74.9128 38.6479 75.0604 37.2504C75.1342 36.4935 75.4738 36.4352 76.0496 36.4935C76.2563 36.508 76.4482 36.508 76.8025 36.5371Z" fill="white"/>
</g>
<defs>
<clipPath id="clip0_1672_22987">
<rect width="133" height="43" fill="white" transform="translate(0.367188 0.606598)"/>
</clipPath>
</defs>
</svg>
