<svg width="614" height="723" viewBox="0 0 614 723" fill="none" xmlns="http://www.w3.org/2000/svg">
<g clip-path="url(#clip0_1501_12501)">
<path d="M276.753 446.379L296.58 412.018H256.926L276.753 446.379Z" fill="black"/>
<path d="M276.753 446.379L256.926 412.018L237.099 446.379H276.753Z" fill="black"/>
<path d="M296.58 412.018L276.753 446.379H316.407L296.58 412.018Z" fill="black"/>
<path d="M335.701 549.716L355.528 515.355H315.874L335.701 549.716Z" fill="black"/>
<path d="M335.7 549.716L315.873 515.355L296.046 549.716H335.7Z" fill="black"/>
<path d="M355.527 515.355L335.7 549.716H375.354L355.527 515.355Z" fill="black"/>
<path d="M335.701 480.795L355.528 446.435H315.874L335.701 480.795Z" fill="black"/>
<path d="M335.7 480.795L315.873 446.435L296.046 480.795H335.7Z" fill="black"/>
<path d="M355.527 446.435L335.7 480.795H375.354L355.527 446.435Z" fill="black"/>
<path d="M395.038 515.271L414.865 480.911H375.211L395.038 515.271Z" fill="black"/>
<path d="M395.038 515.271L375.211 480.911L355.384 515.271H395.038Z" fill="black"/>
<path d="M414.865 480.911L395.038 515.271H434.692L414.865 480.911Z" fill="black"/>
<path d="M395.038 515.355L414.865 549.716L434.692 515.355H395.038Z" fill="black"/>
<path d="M275.004 584.24L294.831 549.879H255.177L275.004 584.24Z" fill="black"/>
<path d="M275.004 584.24L255.177 549.879L235.35 584.24H275.004Z" fill="black"/>
<path d="M294.831 549.879L275.004 584.24H314.658L294.831 549.879Z" fill="black"/>
<path d="M217.204 549.508L237.031 515.148H197.377L217.204 549.508Z" fill="black"/>
<path d="M217.204 549.508L197.377 515.148L177.55 549.508H217.204Z" fill="black"/>
<path d="M335.274 619.135L355.101 584.774H315.447L335.274 619.135Z" fill="black"/>
<path d="M335.274 619.135L315.447 584.774L295.62 619.135H335.274Z" fill="black"/>
<path d="M355.101 584.774L335.274 619.135H374.928L355.101 584.774Z" fill="black"/>
<path d="M394.898 653.579L414.725 619.219H375.071L394.898 653.579Z" fill="black"/>
<path d="M394.899 653.579L375.072 619.219L355.245 653.579H394.899Z" fill="black"/>
<path d="M414.725 619.219L394.898 653.579H434.552L414.725 619.219Z" fill="black"/>
<path d="M394.898 653.659L414.725 688.02L434.552 653.659H394.898Z" fill="black"/>
<path d="M394.898 584.774L414.725 550.414H375.071L394.898 584.774Z" fill="black"/>
<path d="M394.899 584.774L375.072 550.414L355.245 584.774H394.899Z" fill="black"/>
<path d="M414.725 550.414L394.898 584.774H434.552L414.725 550.414Z" fill="black"/>
<path d="M394.898 584.858L414.725 619.219L434.552 584.858H394.898Z" fill="black"/>
<path d="M454.236 619.135L474.063 584.774H434.409L454.236 619.135Z" fill="black"/>
<path d="M454.236 619.135L434.409 584.774L414.582 619.135H454.236Z" fill="black"/>
<path d="M474.063 584.774L454.236 619.135H493.89L474.063 584.774Z" fill="black"/>
<path d="M454.236 619.219L474.063 653.579L493.89 619.219H454.236Z" fill="black"/>
<path d="M99.1351 482.809L118.962 448.448H79.3081L99.1351 482.809Z" fill="black"/>
<path d="M99.135 482.809L79.308 448.448L59.481 482.809H99.135Z" fill="black"/>
<path d="M158.505 515.642L178.332 481.282H138.678L158.505 515.642Z" fill="black"/>
<path d="M217.986 482.211L237.813 447.85H198.159L217.986 482.211Z" fill="black"/>
<path d="M217.986 482.211L198.159 447.85L178.332 482.211H217.986Z" fill="black"/>
<path d="M217.204 619.095L237.031 584.735H197.377L217.204 619.095Z" fill="black"/>
<path d="M217.204 619.095L197.377 584.735L177.55 619.095H217.204Z" fill="black"/>
<path d="M157.724 653.041L177.551 618.68H137.896L157.724 653.041Z" fill="black"/>
<path d="M157.723 653.041L137.896 618.68L118.069 653.041H157.723Z" fill="black"/>
<path d="M276.753 515.18L296.58 480.819H256.926L276.753 515.18Z" fill="black"/>
<path d="M276.753 515.18L256.926 480.819L237.099 515.18H276.753Z" fill="black"/>
<path d="M296.58 480.819L276.753 515.18H316.407L296.58 480.819Z" fill="black"/>
<path d="M274.916 653.619L294.743 619.259H255.089L274.916 653.619Z" fill="black"/>
<path d="M274.916 653.619L255.089 619.259L235.262 653.619H274.916Z" fill="black"/>
<path d="M294.743 619.259L274.916 653.619H314.57L294.743 619.259Z" fill="black"/>
<path d="M395.038 446.379L414.865 412.018H375.211L395.038 446.379Z" fill="black"/>
<path d="M395.038 446.379L375.211 412.018L355.384 446.379H395.038Z" fill="black"/>
<path d="M414.865 412.018L395.038 446.379H434.692L414.865 412.018Z" fill="black"/>
<path d="M39.6542 584.196L59.4812 549.836H19.8271L39.6542 584.196Z" fill="black"/>
<path d="M39.654 584.196L19.827 549.836L0 584.196H39.654Z" fill="black"/>
<path d="M99.2787 618.64L119.106 584.28H79.4517L99.2787 618.64Z" fill="black"/>
<path d="M99.2786 618.64L79.4515 584.28L59.6245 618.64H99.2786Z" fill="black"/>
<path d="M99.2787 549.836L119.106 515.475H79.4517L99.2787 549.836Z" fill="black"/>
<path d="M99.2786 549.836L79.4515 515.475L59.6245 549.836H99.2786Z" fill="black"/>
<path d="M158.616 584.196L178.443 549.836H138.789L158.616 584.196Z" fill="black"/>
<path d="M158.616 584.196L138.789 549.836L118.962 584.196H158.616Z" fill="black"/>
<path d="M454.38 480.795L474.207 446.435H434.553L454.38 480.795Z" fill="black"/>
<path d="M454.38 480.795L434.553 446.435L414.726 480.795H454.38Z" fill="black"/>
<path d="M474.206 446.435L454.379 480.795H494.033L474.206 446.435Z" fill="black"/>
<path d="M454.379 480.879L474.206 515.24L494.033 480.879H454.379Z" fill="black"/>
<path d="M454.515 411.839L474.342 377.478H434.688L454.515 411.839Z" fill="black"/>
<path d="M454.515 411.839L434.688 377.478L414.861 411.839H454.515Z" fill="black"/>
<path d="M474.342 377.478L454.515 411.839H494.169L474.342 377.478Z" fill="black"/>
<path d="M454.515 411.918L474.342 446.279L494.169 411.918H454.515Z" fill="black"/>
<path d="M514.084 515.18L533.911 480.819H494.257L514.084 515.18Z" fill="black"/>
<path d="M514.084 515.18L494.257 480.819L474.43 515.18H514.084Z" fill="black"/>
<path d="M533.911 480.819L514.084 515.18H553.738L533.911 480.819Z" fill="black"/>
<path d="M514.084 515.264L533.911 549.624L553.738 515.264H514.084Z" fill="black"/>
<path d="M514.084 446.379L533.911 412.018H494.257L514.084 446.379Z" fill="black"/>
<path d="M514.084 446.379L494.257 412.018L474.43 446.379H514.084Z" fill="black"/>
<path d="M533.911 412.018L514.084 446.379H553.738L533.911 412.018Z" fill="black"/>
<path d="M514.084 446.459L533.911 480.819L553.738 446.459H514.084Z" fill="black"/>
<path d="M573.752 480.795L593.579 446.435H553.925L573.752 480.795Z" fill="black"/>
<path d="M573.752 480.795L553.925 446.435L534.098 480.795H573.752Z" fill="black"/>
<path d="M593.579 446.435L573.752 480.795H613.406L593.579 446.435Z" fill="black"/>
<path d="M573.752 480.879L553.925 515.24H593.579L573.752 480.879Z" fill="black"/>
<path d="M573.752 480.879L593.579 515.24L613.406 480.879H573.752Z" fill="black"/>
<path d="M454.38 549.552L474.207 515.192H434.553L454.38 549.552Z" fill="black"/>
<path d="M454.38 549.552L434.553 515.192L414.726 549.552H454.38Z" fill="black"/>
<path d="M474.206 515.192L454.379 549.552H494.033L474.206 515.192Z" fill="black"/>
<path d="M454.379 549.632L474.206 583.993L494.033 549.632H454.379Z" fill="black"/>
<path d="M514.084 583.801L533.911 549.441H494.257L514.084 583.801Z" fill="black"/>
<path d="M514.084 583.801L494.257 549.441L474.43 583.801H514.084Z" fill="black"/>
<path d="M533.911 549.441L514.084 583.801H553.738L533.911 549.441Z" fill="black"/>
<path d="M514.084 583.885L533.911 618.246L553.738 583.885H514.084Z" fill="black"/>
<path d="M215.578 687.98L235.406 653.619H195.751L215.578 687.98Z" fill="black"/>
<path d="M215.578 687.98L195.751 653.619L175.924 687.98H215.578Z" fill="black"/>
<path d="M335.047 688.1L354.874 653.739H315.22L335.047 688.1Z" fill="black"/>
<path d="M335.047 688.1L315.22 653.739L295.393 688.1H335.047Z" fill="black"/>
<path d="M354.874 653.739L335.047 688.1H374.701L354.874 653.739Z" fill="black"/>
<path d="M275.334 722.46L295.161 688.099H255.507L275.334 722.46Z" fill="black"/>
<path d="M275.335 722.46L255.508 688.099L235.681 722.46H275.335Z" fill="black"/>
<path d="M295.161 688.099L275.334 722.46H314.989L295.161 688.099Z" fill="black"/>
<path d="M156.089 722.42L175.916 688.06H136.262L156.089 722.42Z" fill="black"/>
<path d="M156.09 722.42L136.263 688.06L116.436 722.42H156.09Z" fill="black"/>
<path d="M573.541 549.672L593.368 515.311H553.714L573.541 549.672Z" fill="black"/>
<path d="M573.541 549.672L553.714 515.311L533.887 549.672H573.541Z" fill="black"/>
<path d="M593.368 515.311L573.541 549.672H613.195L593.368 515.311Z" fill="black"/>
<path d="M573.541 549.756L553.714 584.116H593.368L573.541 549.756Z" fill="black"/>
<path d="M573.541 549.756L593.368 584.116L613.195 549.756H573.541Z" fill="black"/>
<path d="M513.717 653.659L533.544 619.298H493.89L513.717 653.659Z" fill="black"/>
<path d="M513.717 653.659L493.89 619.298L474.063 653.659H513.717Z" fill="black"/>
<path d="M533.544 619.298L513.717 653.659H553.371L533.544 619.298Z" fill="black"/>
<path d="M513.717 653.743L533.544 688.103L553.371 653.743H513.717Z" fill="black"/>
<path d="M454.515 688.06L474.342 653.699H434.688L454.515 688.06Z" fill="black"/>
<path d="M454.515 688.06L434.688 653.699L414.861 688.06H454.515Z" fill="black"/>
<path d="M474.342 653.699L454.515 688.06H494.169L474.342 653.699Z" fill="black"/>
<path d="M454.515 688.139L474.342 722.5L494.169 688.139H454.515Z" fill="black"/>
<path d="M573.541 618.525L593.368 584.164H553.714L573.541 618.525Z" fill="black"/>
<path d="M573.541 618.525L553.714 584.164L533.887 618.525H573.541Z" fill="black"/>
<path d="M593.368 584.164L573.541 618.525H613.195L593.368 584.164Z" fill="black"/>
<path d="M573.541 618.605L553.714 652.965H593.368L573.541 618.605Z" fill="black"/>
<path d="M573.541 618.605L593.368 652.965L613.195 618.605H573.541Z" fill="black"/>
<path d="M573.752 687.294L593.579 652.933H553.925L573.752 687.294Z" fill="black"/>
<path d="M573.752 687.294L553.925 652.933L534.098 687.294H573.752Z" fill="black"/>
<path d="M593.579 652.933L573.752 687.294H613.406L593.579 652.933Z" fill="black"/>
<path d="M573.752 687.374L553.925 721.734H593.579L573.752 687.374Z" fill="black"/>
<path d="M573.752 687.374L593.579 721.734L613.406 687.374H573.752Z" fill="black"/>
<path d="M513.717 721.695L533.544 687.334H493.89L513.717 721.695Z" fill="black"/>
<path d="M513.717 721.695L493.89 687.334L474.063 721.695H513.717Z" fill="black"/>
<path d="M533.544 687.334L513.717 721.695H553.371L533.544 687.334Z" fill="black"/>
<path d="M394.392 722.34L414.219 687.98H374.565L394.392 722.34Z" fill="black"/>
<path d="M394.392 722.34L374.565 687.98L354.738 722.34H394.392Z" fill="black"/>
<path d="M414.22 687.98L394.393 722.34H434.047L414.22 687.98Z" fill="black"/>
<path d="M217.204 411.938L237.031 377.578H197.377L217.204 411.938Z" fill="black"/>
<path d="M217.204 411.938L197.377 377.578L177.55 411.938H217.204Z" fill="black"/>
<path d="M336.294 411.879L356.121 377.518H316.467L336.294 411.879Z" fill="black"/>
<path d="M336.294 411.879L316.467 377.518L296.64 411.879H336.294Z" fill="black"/>
<path d="M356.121 377.518L336.294 411.879H375.948L356.121 377.518Z" fill="black"/>
<path d="M39.7977 721.655L59.6247 687.294H19.9707L39.7977 721.655Z" fill="black"/>
<path d="M39.7976 721.655L19.9706 687.294L0.143555 721.655H39.7976Z" fill="black"/>
<path d="M39.7977 652.85L59.6247 618.489H19.9707L39.7977 652.85Z" fill="black"/>
<path d="M39.7976 652.85L19.9706 618.489L0.143555 652.85H39.7976Z" fill="black"/>
<path d="M99.1351 687.21L118.962 652.85H79.3081L99.1351 687.21Z" fill="black"/>
<path d="M99.135 687.21L79.308 652.85L59.481 687.21H99.135Z" fill="black"/>
<path d="M277.343 171.944L297.17 137.584H257.516L277.343 171.944Z" fill="black"/>
<path d="M277.343 171.944L257.516 137.584L237.689 171.944H277.343Z" fill="black"/>
<path d="M297.17 137.584L277.343 171.944H316.997L297.17 137.584Z" fill="black"/>
<path d="M336.29 275.281L356.117 240.921H316.463L336.29 275.281Z" fill="black"/>
<path d="M336.29 275.281L316.463 240.921L296.636 275.281H336.29Z" fill="black"/>
<path d="M356.117 240.921L336.29 275.281H375.944L356.117 240.921Z" fill="black"/>
<path d="M336.29 206.365L356.117 172.004H316.463L336.29 206.365Z" fill="black"/>
<path d="M336.29 206.365L316.463 172.004L296.636 206.365H336.29Z" fill="black"/>
<path d="M356.117 172.004L336.29 206.365H375.944L356.117 172.004Z" fill="black"/>
<path d="M395.632 240.841L415.459 206.48H375.805L395.632 240.841Z" fill="black"/>
<path d="M395.632 240.841L375.805 206.48L355.978 240.841H395.632Z" fill="black"/>
<path d="M415.459 206.48L395.632 240.841H435.286L415.459 206.48Z" fill="black"/>
<path d="M395.632 240.921L415.459 275.281L435.286 240.921H395.632Z" fill="black"/>
<path d="M274.633 309.766L294.46 275.405H254.806L274.633 309.766Z" fill="black"/>
<path d="M274.633 309.766L254.806 275.405L234.979 309.766H274.633Z" fill="black"/>
<path d="M294.46 275.405L274.633 309.766H314.287L294.46 275.405Z" fill="black"/>
<path d="M335.868 344.704L355.695 310.344H316.041L335.868 344.704Z" fill="black"/>
<path d="M335.868 344.704L316.041 310.344L296.214 344.704H335.868Z" fill="black"/>
<path d="M355.695 310.344L335.868 344.704H375.522L355.695 310.344Z" fill="black"/>
<path d="M395.488 379.145L415.315 344.784H375.661L395.488 379.145Z" fill="black"/>
<path d="M395.489 379.145L375.661 344.784L355.834 379.145H395.489Z" fill="black"/>
<path d="M415.315 344.784L395.488 379.145H435.142L415.315 344.784Z" fill="black"/>
<path d="M395.488 379.229L415.315 413.589L435.142 379.229H395.488Z" fill="black"/>
<path d="M395.488 310.344L415.315 275.983H375.661L395.488 310.344Z" fill="black"/>
<path d="M395.489 310.344L375.661 275.983L355.834 310.344H395.489Z" fill="black"/>
<path d="M415.315 275.983L395.488 310.344H435.142L415.315 275.983Z" fill="black"/>
<path d="M395.488 310.424L415.315 344.784L435.142 310.424H395.488Z" fill="black"/>
<path d="M454.83 344.704L474.657 310.344H435.003L454.83 344.704Z" fill="black"/>
<path d="M454.83 344.704L435.003 310.344L415.176 344.704H454.83Z" fill="black"/>
<path d="M474.657 310.344L454.83 344.704H494.484L474.657 310.344Z" fill="black"/>
<path d="M454.83 344.784L474.657 379.145L494.484 344.784H454.83Z" fill="black"/>
<path d="M159.095 173.376L178.922 139.015H139.268L159.095 173.376Z" fill="black"/>
<path d="M216.172 343.851L235.999 309.491H196.345L216.172 343.851Z" fill="black"/>
<path d="M277.343 240.749L297.17 206.389H257.516L277.343 240.749Z" fill="black"/>
<path d="M297.17 206.389L277.343 240.749H316.997L297.17 206.389Z" fill="black"/>
<path d="M275.51 379.189L295.337 344.828H255.683L275.51 379.189Z" fill="black"/>
<path d="M275.51 379.189L255.683 344.828L235.856 379.189H275.51Z" fill="black"/>
<path d="M295.337 344.828L275.51 379.189H315.164L295.337 344.828Z" fill="black"/>
<path d="M395.632 171.944L415.459 137.584H375.805L395.632 171.944Z" fill="black"/>
<path d="M395.632 171.944L375.805 137.584L355.978 171.944H395.632Z" fill="black"/>
<path d="M415.459 137.584L395.632 171.944H435.286L415.459 137.584Z" fill="black"/>
<path d="M99.8684 275.405L80.0414 241.044L60.2144 275.405H99.8684Z" fill="black"/>
<path d="M454.97 206.365L474.797 172.004H435.143L454.97 206.365Z" fill="black"/>
<path d="M454.969 206.365L435.142 172.004L415.315 206.365H454.969Z" fill="black"/>
<path d="M474.796 172.004L454.969 206.365H494.623L474.796 172.004Z" fill="black"/>
<path d="M454.969 206.444L474.796 240.805L494.623 206.444H454.969Z" fill="black"/>
<path d="M455.109 137.404L474.936 103.044H435.282L455.109 137.404Z" fill="black"/>
<path d="M455.109 137.404L435.282 103.044L415.455 137.404H455.109Z" fill="black"/>
<path d="M474.936 103.044L455.109 137.404H494.763L474.936 103.044Z" fill="black"/>
<path d="M455.109 137.488L474.936 171.849L494.763 137.488H455.109Z" fill="black"/>
<path d="M514.678 240.749L534.505 206.389H494.851L514.678 240.749Z" fill="black"/>
<path d="M514.677 240.749L494.85 206.389L475.023 240.749H514.677Z" fill="black"/>
<path d="M534.505 206.389L514.678 240.749H554.332L534.505 206.389Z" fill="black"/>
<path d="M514.678 240.829L534.505 275.19L554.332 240.829H514.678Z" fill="black"/>
<path d="M514.678 171.944L534.505 137.584H494.851L514.678 171.944Z" fill="black"/>
<path d="M514.677 171.944L494.85 137.584L475.023 171.944H514.677Z" fill="black"/>
<path d="M534.505 137.584L514.678 171.944H554.332L534.505 137.584Z" fill="black"/>
<path d="M514.678 172.028L534.505 206.389L554.332 172.028H514.678Z" fill="black"/>
<path d="M574.346 206.365L594.173 172.004H554.519L574.346 206.365Z" fill="black"/>
<path d="M574.346 206.365L554.519 172.004L534.692 206.365H574.346Z" fill="black"/>
<path d="M594.173 172.004L574.346 206.365H614L594.173 172.004Z" fill="black"/>
<path d="M574.346 206.444L554.519 240.805H594.173L574.346 206.444Z" fill="black"/>
<path d="M574.346 206.444L594.173 240.805L614 206.444H574.346Z" fill="black"/>
<path d="M454.97 275.118L474.797 240.757H435.143L454.97 275.118Z" fill="black"/>
<path d="M454.969 275.118L435.142 240.757L415.315 275.118H454.969Z" fill="black"/>
<path d="M474.796 240.757L454.969 275.118H494.623L474.796 240.757Z" fill="black"/>
<path d="M454.969 275.202L474.796 309.562L494.623 275.202H454.969Z" fill="black"/>
<path d="M514.678 309.65L534.505 275.289H494.851L514.678 309.65Z" fill="black"/>
<path d="M514.677 309.65L494.85 275.289L475.023 309.65H514.677Z" fill="black"/>
<path d="M534.505 275.289L514.678 309.65H554.332L534.505 275.289Z" fill="black"/>
<path d="M514.678 309.73L534.505 344.09L554.332 309.73H514.678Z" fill="black"/>
<path d="M216.172 413.549L235.999 379.189H196.345L216.172 413.549Z" fill="black"/>
<path d="M216.172 413.549L196.345 379.189L176.518 413.549H216.172Z" fill="black"/>
<path d="M335.64 413.665L355.468 379.308H315.813L335.64 413.665Z" fill="black"/>
<path d="M335.64 413.665L315.813 379.308L295.986 413.665H335.64Z" fill="black"/>
<path d="M355.468 379.308L335.641 413.665H375.295L355.468 379.308Z" fill="black"/>
<path d="M275.929 448.026L295.756 413.665H256.102L275.929 448.026Z" fill="black"/>
<path d="M275.928 448.026L256.101 413.665L236.274 448.026H275.928Z" fill="black"/>
<path d="M295.755 413.665L275.928 448.026H315.582L295.755 413.665Z" fill="black"/>
<path d="M216.172 482.31L235.999 447.95H196.345L216.172 482.31Z" fill="black"/>
<path d="M216.172 482.31L196.345 447.95L176.518 482.31H216.172Z" fill="black"/>
<path d="M574.135 275.241L593.962 240.881H554.308L574.135 275.241Z" fill="black"/>
<path d="M574.135 275.241L554.308 240.881L534.481 275.241H574.135Z" fill="black"/>
<path d="M593.962 240.881L574.135 275.241H613.789L593.962 240.881Z" fill="black"/>
<path d="M574.135 275.321L554.308 309.682H593.962L574.135 275.321Z" fill="black"/>
<path d="M574.135 275.321L593.962 309.682L613.789 275.321H574.135Z" fill="black"/>
<path d="M514.311 379.229L534.138 344.868H494.484L514.311 379.229Z" fill="black"/>
<path d="M514.311 379.229L494.484 344.868L474.657 379.229H514.311Z" fill="black"/>
<path d="M534.139 344.868L514.312 379.229H553.966L534.139 344.868Z" fill="black"/>
<path d="M514.312 379.308L534.139 413.669L553.966 379.308H514.312Z" fill="black"/>
<path d="M455.109 413.625L474.936 379.264H435.282L455.109 413.625Z" fill="black"/>
<path d="M455.109 413.625L435.282 379.264L415.455 413.625H455.109Z" fill="black"/>
<path d="M474.936 379.264L455.109 413.625H494.763L474.936 379.264Z" fill="black"/>
<path d="M455.109 413.709L474.936 448.069L494.763 413.709H455.109Z" fill="black"/>
<path d="M574.298 344.051L594.125 309.69H554.471L574.298 344.051Z" fill="black"/>
<path d="M574.298 344.051L554.471 309.69L534.644 344.051H574.298Z" fill="black"/>
<path d="M594.125 309.69L574.298 344.051H613.952L594.125 309.69Z" fill="black"/>
<path d="M574.298 344.134L554.471 378.495H594.125L574.298 344.134Z" fill="black"/>
<path d="M574.298 344.134L594.125 378.495L613.952 344.134H574.298Z" fill="black"/>
<path d="M574.346 412.859L594.173 378.499H554.519L574.346 412.859Z" fill="black"/>
<path d="M574.346 412.859L554.519 378.499L534.692 412.859H574.346Z" fill="black"/>
<path d="M594.173 378.499L574.346 412.859H614L594.173 378.499Z" fill="black"/>
<path d="M574.346 412.943L554.519 447.304H594.173L574.346 412.943Z" fill="black"/>
<path d="M574.346 412.943L594.173 447.304L614 412.943H574.346Z" fill="black"/>
<path d="M514.311 447.26L534.138 412.899H494.484L514.311 447.26Z" fill="black"/>
<path d="M514.311 447.26L494.484 412.899L474.657 447.26H514.311Z" fill="black"/>
<path d="M534.139 412.899L514.312 447.26H553.966L534.139 412.899Z" fill="black"/>
<path d="M514.312 447.344L534.139 481.704L553.966 447.344H514.312Z" fill="black"/>
<path d="M394.982 447.906L414.809 413.549H375.155L394.982 447.906Z" fill="black"/>
<path d="M394.982 447.906L375.155 413.549L355.328 447.906H394.982Z" fill="black"/>
<path d="M414.809 413.549L394.982 447.906H434.636L414.809 413.549Z" fill="black"/>
<path d="M394.982 447.99L414.809 482.35L434.636 447.99H394.982Z" fill="black"/>
<path d="M217.798 137.508L237.625 103.147H197.971L217.798 137.508Z" fill="black"/>
<path d="M217.799 137.508L197.972 103.147L178.145 137.508H217.799Z" fill="black"/>
<path d="M336.888 137.444L356.715 103.087H317.061L336.888 137.444Z" fill="black"/>
<path d="M336.888 137.444L317.061 103.087L297.234 137.444H336.888Z" fill="black"/>
<path d="M356.715 103.087L336.888 137.444H376.542L356.715 103.087Z" fill="black"/>
<path d="M454.3 482.43L474.127 448.07H434.473L454.3 482.43Z" fill="black"/>
<path d="M454.3 482.43L434.473 448.07L414.646 482.43H454.3Z" fill="black"/>
<path d="M474.127 448.07L454.3 482.43H493.954L474.127 448.07Z" fill="black"/>
<path d="M454.3 482.51L474.127 516.87L493.954 482.51H454.3Z" fill="black"/>
<path d="M99.7289 412.78L119.556 378.419H79.9019L99.7289 412.78Z" fill="black"/>
<path d="M99.7287 412.78L79.9017 378.419L60.0747 412.78H99.7287Z" fill="black"/>
<path d="M40.3876 517.696L60.2146 483.339H20.5605L40.3876 517.696Z" fill="black"/>
<path d="M100.012 552.14L119.839 517.78H80.1851L100.012 552.14Z" fill="black"/>
<path d="M100.012 552.14L80.1849 517.78L60.3579 552.14H100.012Z" fill="black"/>
<path d="M100.012 483.339L119.839 448.979H80.1851L100.012 483.339Z" fill="black"/>
<path d="M100.012 483.339L80.1849 448.979L60.3579 483.339H100.012Z" fill="black"/>
<path d="M573.72 481.621L593.547 447.26H553.893L573.72 481.621Z" fill="black"/>
<path d="M573.72 481.621L553.893 447.26L534.066 481.621H573.72Z" fill="black"/>
<path d="M593.547 447.26L573.72 481.621H613.374L593.547 447.26Z" fill="black"/>
<path d="M573.72 481.704L553.893 516.065H593.547L573.72 481.704Z" fill="black"/>
<path d="M573.72 481.704L593.547 516.065L613.374 481.704H573.72Z" fill="black"/>
<path d="M511.25 102.051L531.077 67.6901H491.423L511.25 102.051Z" fill="black"/>
<path d="M511.25 102.051L491.423 67.6901L471.596 102.051H511.25Z" fill="black"/>
<path d="M531.077 67.6901L511.25 102.051H550.904L531.077 67.6901Z" fill="black"/>
<path d="M570.197 205.388L590.024 171.027H550.37L570.197 205.388Z" fill="black"/>
<path d="M570.197 205.388L550.37 171.027L530.543 205.388H570.197Z" fill="black"/>
<path d="M590.024 171.027L570.197 205.388H609.851L590.024 171.027Z" fill="black"/>
<path d="M570.197 136.471L590.024 102.111H550.37L570.197 136.471Z" fill="black"/>
<path d="M570.197 136.471L550.37 102.111L530.543 136.471H570.197Z" fill="black"/>
<path d="M590.024 102.111L570.197 136.471H609.851L590.024 102.111Z" fill="black"/>
<path d="M509.501 239.912L529.328 205.551H489.674L509.501 239.912Z" fill="black"/>
<path d="M509.501 239.912L489.674 205.551L469.847 239.912H509.501Z" fill="black"/>
<path d="M529.328 205.551L509.5 239.912H549.155L529.328 205.551Z" fill="black"/>
<path d="M451.702 205.184L471.529 170.824H431.875L451.702 205.184Z" fill="black"/>
<path d="M451.701 205.184L431.874 170.824L412.047 205.184H451.701Z" fill="black"/>
<path d="M569.771 274.811L589.598 240.45H549.944L569.771 274.811Z" fill="black"/>
<path d="M569.771 274.811L549.944 240.45L530.117 274.811H569.771Z" fill="black"/>
<path d="M589.598 240.45L569.771 274.811H609.425L589.598 240.45Z" fill="black"/>
<path d="M333.632 138.481L353.459 104.12H313.805L333.632 138.481Z" fill="black"/>
<path d="M333.632 138.481L313.805 104.12L293.978 138.481H333.632Z" fill="black"/>
<path d="M393.001 171.314L412.828 136.954H373.174L393.001 171.314Z" fill="black"/>
<path d="M452.482 137.883L472.309 103.522H432.655L452.482 137.883Z" fill="black"/>
<path d="M452.483 137.883L432.656 103.522L412.829 137.883H452.483Z" fill="black"/>
<path d="M451.702 274.767L471.529 240.406H431.875L451.702 274.767Z" fill="black"/>
<path d="M451.701 274.767L431.874 240.406L412.047 274.767H451.701Z" fill="black"/>
<path d="M392.22 308.713L412.047 274.352H372.393L392.22 308.713Z" fill="black"/>
<path d="M392.22 308.713L372.393 274.352L352.566 308.713H392.22Z" fill="black"/>
<path d="M511.25 170.856L531.077 136.495H491.423L511.25 170.856Z" fill="black"/>
<path d="M511.25 170.856L491.423 136.495L471.596 170.856H511.25Z" fill="black"/>
<path d="M531.077 136.495L511.25 170.856H550.904L531.077 136.495Z" fill="black"/>
<path d="M509.413 309.291L529.24 274.93H489.586L509.413 309.291Z" fill="black"/>
<path d="M509.413 309.291L489.586 274.93L469.759 309.291H509.413Z" fill="black"/>
<path d="M529.24 274.93L509.413 309.291H549.067L529.24 274.93Z" fill="black"/>
<path d="M274.151 239.872L293.978 205.511H254.324L274.151 239.872Z" fill="black"/>
<path d="M333.775 274.312L353.602 239.952H313.948L333.775 274.312Z" fill="black"/>
<path d="M333.776 274.312L313.949 239.952L294.122 274.312H333.776Z" fill="black"/>
<path d="M333.775 205.511L353.602 171.151H313.948L333.775 205.511Z" fill="black"/>
<path d="M333.776 205.511L313.949 171.151L294.122 205.511H333.776Z" fill="black"/>
<path d="M393.113 239.872L412.94 205.511H373.286L393.113 239.872Z" fill="black"/>
<path d="M393.113 239.872L373.286 205.511L353.459 239.872H393.113Z" fill="black"/>
<path d="M450.076 343.652L469.903 309.291H430.249L450.076 343.652Z" fill="black"/>
<path d="M450.075 343.652L430.248 309.291L410.421 343.652H450.075Z" fill="black"/>
<path d="M569.544 343.771L589.371 309.411H549.717L569.544 343.771Z" fill="black"/>
<path d="M569.544 343.771L549.717 309.411L529.89 343.771H569.544Z" fill="black"/>
<path d="M589.37 309.411L569.543 343.771H609.197L589.37 309.411Z" fill="black"/>
<path d="M509.835 378.132L529.662 343.771H490.008L509.835 378.132Z" fill="black"/>
<path d="M509.835 378.132L490.008 343.771L470.181 378.132H509.835Z" fill="black"/>
<path d="M529.662 343.771L509.835 378.132H549.489L529.662 343.771Z" fill="black"/>
<path d="M450.076 412.413L469.903 378.052H430.249L450.076 412.413Z" fill="black"/>
<path d="M450.075 412.413L430.248 378.052L410.421 412.413H450.075Z" fill="black"/>
<path d="M390.586 378.092L410.413 343.732H370.759L390.586 378.092Z" fill="black"/>
<path d="M390.586 378.092L370.759 343.732L350.932 378.092H390.586Z" fill="black"/>
<path d="M451.702 67.6103L471.529 33.2537H431.875L451.702 67.6103Z" fill="black"/>
<path d="M451.701 67.6103L431.874 33.2537L412.047 67.6103H451.701Z" fill="black"/>
<path d="M570.791 67.5505L590.618 33.1899H550.964L570.791 67.5505Z" fill="black"/>
<path d="M570.791 67.5505L550.964 33.1899L531.137 67.5505H570.791Z" fill="black"/>
<path d="M590.618 33.1898L570.791 67.5504H610.445L590.618 33.1898Z" fill="black"/>
<path d="M214.67 342.882L234.497 308.522H194.843L214.67 342.882Z" fill="black"/>
<path d="M214.67 342.882L194.843 308.522L175.016 342.882H214.67Z" fill="black"/>
<path d="M274.294 377.327L294.121 342.966H254.467L274.294 377.327Z" fill="black"/>
<path d="M274.294 377.327L254.467 342.966L234.64 377.327H274.294Z" fill="black"/>
<path d="M274.294 308.522L294.121 274.165H254.467L274.294 308.522Z" fill="black"/>
<path d="M274.294 308.522L254.467 274.165L234.64 308.522H274.294Z" fill="black"/>
<path d="M333.632 342.882L353.459 308.522H313.805L333.632 342.882Z" fill="black"/>
<path d="M333.632 342.882L313.805 308.522L293.978 342.882H333.632Z" fill="black"/>
<path d="M274.294 447.802L294.121 413.442H254.467L274.294 447.802Z" fill="black"/>
<path d="M274.294 447.802L254.467 413.442L234.64 447.802H274.294Z" fill="black"/>
<path d="M333.915 482.247L353.742 447.886H314.088L333.915 482.247Z" fill="black"/>
<path d="M333.915 482.247L314.088 447.886L294.261 482.247H333.915Z" fill="black"/>
<path d="M333.915 413.442L353.742 379.081H314.088L333.915 413.442Z" fill="black"/>
<path d="M333.915 413.442L314.088 379.081L294.261 413.442H333.915Z" fill="black"/>
<path d="M393.256 447.802L413.083 413.442H373.429L393.256 447.802Z" fill="black"/>
<path d="M393.256 447.802L373.429 413.442L353.602 447.802H393.256Z" fill="black"/>
<path d="M510.007 34.8606L529.834 0.5H490.18L510.007 34.8606Z" fill="black"/>
<path d="M510.007 34.8606L490.18 0.5L470.353 34.8606H510.007Z" fill="black"/>
<path d="M529.834 0.5L510.007 34.8606H549.661L529.834 0.5Z" fill="black"/>
<path d="M450.669 69.2213L470.496 34.8607H430.842L450.669 69.2213Z" fill="black"/>
<path d="M450.669 69.2213L430.842 34.8607L411.015 69.2213H450.669Z" fill="black"/>
<path d="M570.138 69.3409L589.965 34.9803H550.311L570.138 69.3409Z" fill="black"/>
<path d="M570.137 69.3409L550.31 34.9803L530.483 69.3409H570.137Z" fill="black"/>
<path d="M589.964 34.9802L570.137 69.3409H609.791L589.964 34.9802Z" fill="black"/>
<path d="M510.425 103.702L530.252 69.3409H490.598L510.425 103.702Z" fill="black"/>
<path d="M510.425 103.702L490.598 69.3409L470.771 103.702H510.425Z" fill="black"/>
<path d="M530.252 69.3409L510.425 103.702H550.079L530.252 69.3409Z" fill="black"/>
<path d="M450.669 137.982L470.496 103.622H430.842L450.669 137.982Z" fill="black"/>
<path d="M450.669 137.982L430.842 103.622L411.015 137.982H450.669Z" fill="black"/>
<path d="M354.053 34.0911H314.399L334.226 68.4517" fill="black"/>
<path d="M334.509 207.812L354.336 173.452H314.682L334.509 207.812Z" fill="black"/>
<path d="M334.509 207.812L314.682 173.452L294.854 207.812H334.509Z" fill="black"/>
</g>
<defs>
<clipPath id="clip0_1501_12501">
<rect width="614" height="722" fill="white" transform="translate(0 0.5)"/>
</clipPath>
</defs>
</svg>
