<svg width="758" height="1097" viewBox="0 0 758 1097" fill="none" xmlns="http://www.w3.org/2000/svg">
<g opacity="0.07" clip-path="url(#clip0_2130_1663)">
<path d="M335.986 677.464L305.855 625.257H366.118L335.986 677.464Z" fill="white"/>
<path d="M335.986 677.464L366.118 625.257L396.25 677.464H335.986Z" fill="white"/>
<path d="M305.855 625.257L335.986 677.464H275.723L305.855 625.257Z" fill="white"/>
<path d="M246.402 834.473L216.271 782.266H276.534L246.402 834.473Z" fill="white"/>
<path d="M246.402 834.473L276.534 782.266L306.666 834.473H246.402Z" fill="white"/>
<path d="M216.271 782.266L246.402 834.473H186.139L216.271 782.266Z" fill="white"/>
<path d="M246.402 729.756L216.271 677.549H276.534L246.402 729.756Z" fill="white"/>
<path d="M246.402 729.756L276.534 677.549L306.666 729.756H246.402Z" fill="white"/>
<path d="M216.271 677.549L246.402 729.756H186.139L216.271 677.549Z" fill="white"/>
<path d="M156.226 782.139L126.094 729.932H186.357L156.226 782.139Z" fill="white"/>
<path d="M156.226 782.139L186.357 729.932L216.489 782.139H156.226Z" fill="white"/>
<path d="M126.094 729.932L156.226 782.139H95.962L126.094 729.932Z" fill="white"/>
<path d="M156.226 782.266L126.094 834.473L95.962 782.266H156.226Z" fill="white"/>
<path d="M338.646 886.929L308.514 834.722H368.777L338.646 886.929Z" fill="white"/>
<path d="M338.646 886.929L368.777 834.722L398.909 886.929H338.646Z" fill="white"/>
<path d="M308.514 834.722L338.646 886.929H278.382L308.514 834.722Z" fill="white"/>
<path d="M426.484 834.158L396.353 781.951H456.616L426.484 834.158Z" fill="white"/>
<path d="M426.484 834.158L456.616 781.951L486.748 834.158H426.484Z" fill="white"/>
<path d="M247.051 939.948L216.919 887.741H277.183L247.051 939.948Z" fill="white"/>
<path d="M247.051 939.948L277.183 887.741L307.314 939.948H247.051Z" fill="white"/>
<path d="M216.919 887.741L247.051 939.948H186.787L216.919 887.741Z" fill="white"/>
<path d="M156.438 992.283L126.306 940.075H186.569L156.438 992.283Z" fill="white"/>
<path d="M156.438 992.283L186.569 940.075L216.701 992.283H156.438Z" fill="white"/>
<path d="M126.306 940.075L156.438 992.283H96.1739L126.306 940.075Z" fill="white"/>
<path d="M156.438 992.404L126.306 1044.61L96.1739 992.404H156.438Z" fill="white"/>
<path d="M156.438 887.741L126.306 835.534H186.569L156.438 887.741Z" fill="white"/>
<path d="M156.438 887.741L186.569 835.534L216.701 887.741H156.438Z" fill="white"/>
<path d="M126.306 835.534L156.438 887.741H96.1739L126.306 835.534Z" fill="white"/>
<path d="M156.438 887.868L126.306 940.075L96.1739 887.868H156.438Z" fill="white"/>
<path d="M66.2598 939.948L36.128 887.741H96.3916L66.2598 939.948Z" fill="white"/>
<path d="M66.2598 939.948L96.3916 887.741L126.523 939.948H66.2598Z" fill="white"/>
<path d="M36.1279 887.741L66.2598 939.948H5.99613L36.1279 887.741Z" fill="white"/>
<path d="M66.2598 940.075L36.1279 992.283L5.99613 940.075H66.2598Z" fill="white"/>
<path d="M605.919 732.816L575.787 680.608H636.051L605.919 732.816Z" fill="white"/>
<path d="M605.919 732.816L636.051 680.608L666.183 732.816H605.919Z" fill="white"/>
<path d="M515.693 782.702L485.562 730.495H545.825L515.693 782.702Z" fill="white"/>
<path d="M425.298 731.907L395.166 679.7H455.43L425.298 731.907Z" fill="white"/>
<path d="M425.298 731.907L455.43 679.7L485.562 731.907H425.298Z" fill="white"/>
<path d="M426.484 939.888L396.353 887.68H456.616L426.484 939.888Z" fill="white"/>
<path d="M426.484 939.888L456.616 887.68L486.748 939.888H426.484Z" fill="white"/>
<path d="M516.88 991.465L486.748 939.257H547.012L516.88 991.465Z" fill="white"/>
<path d="M516.88 991.465L547.012 939.257L577.144 991.465H516.88Z" fill="white"/>
<path d="M335.986 782L305.855 729.792H366.118L335.986 782Z" fill="white"/>
<path d="M335.986 782L366.118 729.792L396.25 782H335.986Z" fill="white"/>
<path d="M305.855 729.792L335.986 782H275.723L305.855 729.792Z" fill="white"/>
<path d="M338.778 992.343L308.647 940.136H368.91L338.778 992.343Z" fill="white"/>
<path d="M338.778 992.343L368.91 940.136L399.042 992.343H338.778Z" fill="white"/>
<path d="M308.647 940.136L338.778 992.343H278.515L308.647 940.136Z" fill="white"/>
<path d="M156.226 677.464L126.094 625.257H186.357L156.226 677.464Z" fill="white"/>
<path d="M156.226 677.464L186.357 625.257L216.489 677.464H156.226Z" fill="white"/>
<path d="M126.094 625.257L156.226 677.464H95.962L126.094 625.257Z" fill="white"/>
<path d="M696.314 886.862L666.183 834.655H726.446L696.314 886.862Z" fill="white"/>
<path d="M696.314 886.862L726.446 834.655L756.578 886.862H696.314Z" fill="white"/>
<path d="M605.701 939.197L575.569 886.99H635.833L605.701 939.197Z" fill="white"/>
<path d="M605.701 939.197L635.833 886.99L665.965 939.197H605.701Z" fill="white"/>
<path d="M605.701 834.655L575.569 782.448H635.833L605.701 834.655Z" fill="white"/>
<path d="M605.701 834.655L635.833 782.448L665.965 834.655H605.701Z" fill="white"/>
<path d="M515.523 886.862L485.392 834.655H545.655L515.523 886.862Z" fill="white"/>
<path d="M515.523 886.862L545.655 834.655L575.787 886.862H515.523Z" fill="white"/>
<path d="M66.042 729.756L35.9102 677.549H96.1738L66.042 729.756Z" fill="white"/>
<path d="M66.042 729.756L96.1738 677.549L126.306 729.756H66.042Z" fill="white"/>
<path d="M35.9102 677.549L66.042 729.756H5.77836L35.9102 677.549Z" fill="white"/>
<path d="M66.042 729.883L35.9102 782.091L5.77836 729.883H66.042Z" fill="white"/>
<path d="M65.836 624.984L35.7041 572.777H95.9678L65.836 624.984Z" fill="white"/>
<path d="M65.836 624.984L95.9678 572.777L126.1 624.984H65.836Z" fill="white"/>
<path d="M35.7041 572.777L65.8359 624.984H5.5723L35.7041 572.777Z" fill="white"/>
<path d="M65.8359 625.105L35.7041 677.313L5.5723 625.105H65.8359Z" fill="white"/>
<path d="M-24.6924 782L-54.8242 729.792H5.43945L-24.6924 782Z" fill="white"/>
<path d="M-24.6933 782L5.4385 729.792L35.5703 782H-24.6933Z" fill="white"/>
<path d="M-24.6924 677.464L-54.8242 625.257H5.43945L-24.6924 677.464Z" fill="white"/>
<path d="M-24.6933 677.464L5.4385 625.257L35.5703 677.464H-24.6933Z" fill="white"/>
<path d="M66.042 834.225L35.9102 782.018H96.1738L66.042 834.225Z" fill="white"/>
<path d="M66.042 834.225L96.1738 782.018L126.306 834.225H66.042Z" fill="white"/>
<path d="M35.9102 782.018L66.042 834.225H5.77836L35.9102 782.018Z" fill="white"/>
<path d="M66.042 834.346L35.9102 886.553L5.77836 834.346H66.042Z" fill="white"/>
<path d="M-24.6924 886.263L-54.8242 834.055H5.43945L-24.6924 886.263Z" fill="white"/>
<path d="M-24.6933 886.263L5.4385 834.055L35.5703 886.263H-24.6933Z" fill="white"/>
<path d="M428.956 1044.55L398.824 992.343H459.088L428.956 1044.55Z" fill="white"/>
<path d="M428.956 1044.55L459.088 992.343L489.22 1044.55H428.956Z" fill="white"/>
<path d="M247.396 1044.73L217.264 992.525H277.527L247.396 1044.73Z" fill="white"/>
<path d="M247.396 1044.73L277.527 992.525L307.659 1044.73H247.396Z" fill="white"/>
<path d="M217.264 992.525L247.396 1044.73H187.132L217.264 992.525Z" fill="white"/>
<path d="M338.143 1096.94L308.011 1044.73H368.274L338.143 1096.94Z" fill="white"/>
<path d="M338.143 1096.94L368.274 1044.73L398.406 1096.94H338.143Z" fill="white"/>
<path d="M308.011 1044.73L338.143 1096.94H277.879L308.011 1044.73Z" fill="white"/>
<path d="M519.363 1096.88L489.231 1044.67H549.495L519.363 1096.88Z" fill="white"/>
<path d="M519.363 1096.88L549.495 1044.67L579.627 1096.88H519.363Z" fill="white"/>
<path d="M-24.1357 992.404L-54.2675 940.196H5.99609L-24.1357 992.404Z" fill="white"/>
<path d="M-24.1357 992.404L5.99611 940.196L36.1279 992.404H-24.1357Z" fill="white"/>
<path d="M65.836 1044.67L35.7041 992.464H95.9678L65.836 1044.67Z" fill="white"/>
<path d="M65.836 1044.67L95.9678 992.464L126.1 1044.67H65.836Z" fill="white"/>
<path d="M35.7041 992.464L65.8359 1044.67H5.5723L35.7041 992.464Z" fill="white"/>
<path d="M65.8359 1044.79L35.7041 1097L5.5723 1044.79H65.8359Z" fill="white"/>
<path d="M-24.1357 1095.78L-54.2675 1043.57H5.99609L-24.1357 1095.78Z" fill="white"/>
<path d="M-24.1357 1095.78L5.99611 1043.57L36.1279 1095.78H-24.1357Z" fill="white"/>
<path d="M157.206 1096.76L127.074 1044.55H187.338L157.206 1096.76Z" fill="white"/>
<path d="M157.206 1096.76L187.338 1044.55L217.47 1096.76H157.206Z" fill="white"/>
<path d="M127.074 1044.55L157.206 1096.76H96.9424L127.074 1044.55Z" fill="white"/>
<path d="M426.484 625.136L396.353 572.928H456.616L426.484 625.136Z" fill="white"/>
<path d="M426.484 625.136L456.616 572.928L486.748 625.136H426.484Z" fill="white"/>
<path d="M245.5 625.045L215.368 572.838H275.632L245.5 625.045Z" fill="white"/>
<path d="M245.5 625.045L275.632 572.838L305.764 625.045H245.5Z" fill="white"/>
<path d="M215.368 572.838L245.5 625.045H185.236L215.368 572.838Z" fill="white"/>
<path d="M696.097 1095.72L665.965 1043.51H726.229L696.097 1095.72Z" fill="white"/>
<path d="M696.097 1095.72L726.229 1043.51L756.36 1095.72H696.097Z" fill="white"/>
<path d="M696.097 991.174L665.965 938.967H726.229L696.097 991.174Z" fill="white"/>
<path d="M696.097 991.174L726.229 938.967L756.36 991.174H696.097Z" fill="white"/>
<path d="M605.919 1043.38L575.787 991.174H636.051L605.919 1043.38Z" fill="white"/>
<path d="M605.919 1043.38L636.051 991.174L666.183 1043.38H605.919Z" fill="white"/>
<path d="M335.09 260.491L304.958 208.284H365.222L335.09 260.491Z" fill="white"/>
<path d="M335.09 260.491L365.222 208.284L395.354 260.491H335.09Z" fill="white"/>
<path d="M304.958 208.284L335.09 260.491H274.826L304.958 208.284Z" fill="white"/>
<path d="M245.506 417.5L215.374 365.293H275.638L245.506 417.5Z" fill="white"/>
<path d="M245.506 417.5L275.638 365.293L305.77 417.5H245.506Z" fill="white"/>
<path d="M215.374 365.293L245.506 417.5H185.242L215.374 365.293Z" fill="white"/>
<path d="M245.506 312.789L215.374 260.582H275.638L245.506 312.789Z" fill="white"/>
<path d="M245.506 312.789L275.638 260.582L305.77 312.789H245.506Z" fill="white"/>
<path d="M215.374 260.582L245.506 312.789H185.242L215.374 260.582Z" fill="white"/>
<path d="M155.323 365.172L125.191 312.965H185.455L155.323 365.172Z" fill="white"/>
<path d="M155.322 365.172L185.454 312.965L215.586 365.172H155.322Z" fill="white"/>
<path d="M125.19 312.965L155.322 365.172H95.0586L125.19 312.965Z" fill="white"/>
<path d="M155.322 365.293L125.19 417.5L95.0586 365.293H155.322Z" fill="white"/>
<path d="M339.209 469.895L309.077 417.688H369.341L339.209 469.895Z" fill="white"/>
<path d="M339.209 469.895L369.341 417.688L399.473 469.895H339.209Z" fill="white"/>
<path d="M309.077 417.688L339.209 469.895H278.945L309.077 417.688Z" fill="white"/>
<path d="M246.148 522.981L216.017 470.774H276.28L246.148 522.981Z" fill="white"/>
<path d="M246.148 522.981L276.28 470.774L306.412 522.981H246.148Z" fill="white"/>
<path d="M216.017 470.774L246.148 522.981H185.885L216.017 470.774Z" fill="white"/>
<path d="M155.541 575.309L125.409 523.102H185.673L155.541 575.309Z" fill="white"/>
<path d="M155.541 575.309L185.673 523.102L215.805 575.309H155.541Z" fill="white"/>
<path d="M125.409 523.102L155.541 575.309H95.2774L125.409 523.102Z" fill="white"/>
<path d="M155.541 575.437L125.409 627.644L95.2774 575.437H155.541Z" fill="white"/>
<path d="M155.541 470.774L125.409 418.567H185.673L155.541 470.774Z" fill="white"/>
<path d="M155.541 470.774L185.673 418.567L215.805 470.774H155.541Z" fill="white"/>
<path d="M125.409 418.567L155.541 470.774H95.2774L125.409 418.567Z" fill="white"/>
<path d="M155.541 470.895L125.409 523.102L95.2774 470.895H155.541Z" fill="white"/>
<path d="M65.3574 522.981L35.2256 470.774H95.4893L65.3574 522.981Z" fill="white"/>
<path d="M65.3575 522.981L95.4893 470.774L125.621 522.981H65.3575Z" fill="white"/>
<path d="M35.2256 470.774L65.3574 522.981H5.09379L35.2256 470.774Z" fill="white"/>
<path d="M65.3574 523.102L35.2256 575.309L5.09379 523.102H65.3574Z" fill="white"/>
<path d="M514.797 262.666L484.665 210.459H544.929L514.797 262.666Z" fill="white"/>
<path d="M428.054 521.685L397.922 469.477H458.186L428.054 521.685Z" fill="white"/>
<path d="M335.09 365.033L304.958 312.825H365.222L335.09 365.033Z" fill="white"/>
<path d="M304.958 312.825L335.09 365.033H274.826L304.958 312.825Z" fill="white"/>
<path d="M337.876 575.376L307.744 523.169H368.008L337.876 575.376Z" fill="white"/>
<path d="M337.876 575.376L368.008 523.169L398.14 575.376H337.876Z" fill="white"/>
<path d="M307.744 523.169L337.876 575.376H277.612L307.744 523.169Z" fill="white"/>
<path d="M155.323 260.491L125.191 208.284H185.455L155.323 260.491Z" fill="white"/>
<path d="M155.322 260.491L185.454 208.284L215.586 260.491H155.322Z" fill="white"/>
<path d="M125.19 208.284L155.322 260.491H95.0586L125.19 208.284Z" fill="white"/>
<path d="M604.805 417.688L634.937 365.481L665.068 417.688H604.805Z" fill="white"/>
<path d="M65.1455 312.789L35.0137 260.582H95.2773L65.1455 312.789Z" fill="white"/>
<path d="M65.1455 312.789L95.2774 260.582L125.409 312.789H65.1455Z" fill="white"/>
<path d="M35.0137 260.582L65.1455 312.789H4.88187L35.0137 260.582Z" fill="white"/>
<path d="M65.1455 312.91L35.0137 365.117L4.88187 312.91H65.1455Z" fill="white"/>
<path d="M64.9336 208.011L34.8018 155.804H95.0654L64.9336 208.011Z" fill="white"/>
<path d="M64.9336 208.011L95.0654 155.804L125.197 208.011H64.9336Z" fill="white"/>
<path d="M34.8018 155.804L64.9336 208.011H4.66996L34.8018 155.804Z" fill="white"/>
<path d="M64.9336 208.138L34.8018 260.345L4.66996 208.138H64.9336Z" fill="white"/>
<path d="M-25.5957 365.033L-55.7275 312.825H4.53613L-25.5957 365.033Z" fill="white"/>
<path d="M-25.5957 365.033L4.53615 312.825L34.668 365.033H-25.5957Z" fill="white"/>
<path d="M-25.5957 260.491L-55.7275 208.284H4.53613L-25.5957 260.491Z" fill="white"/>
<path d="M-25.5957 260.491L4.53615 208.284L34.668 260.491H-25.5957Z" fill="white"/>
<path d="M65.1455 417.252L35.0137 365.045H95.2773L65.1455 417.252Z" fill="white"/>
<path d="M65.1455 417.252L95.2774 365.045L125.409 417.252H65.1455Z" fill="white"/>
<path d="M35.0137 365.045L65.1455 417.252H4.88187L35.0137 365.045Z" fill="white"/>
<path d="M65.1455 417.379L35.0137 469.586L4.88187 417.379H65.1455Z" fill="white"/>
<path d="M-25.5957 469.72L-55.7275 417.512H4.53613L-25.5957 469.72Z" fill="white"/>
<path d="M-25.5957 469.72L4.53615 417.512L34.668 469.72H-25.5957Z" fill="white"/>
<path d="M428.054 627.583L397.922 575.376H458.186L428.054 627.583Z" fill="white"/>
<path d="M428.054 627.583L458.186 575.376L488.317 627.583H428.054Z" fill="white"/>
<path d="M246.493 627.759L216.361 575.558H276.625L246.493 627.759Z" fill="white"/>
<path d="M246.493 627.759L276.625 575.558L306.757 627.759H246.493Z" fill="white"/>
<path d="M216.361 575.558L246.493 627.759H186.23L216.361 575.558Z" fill="white"/>
<path d="M337.24 679.966L307.108 627.759H367.372L337.24 679.966Z" fill="white"/>
<path d="M337.24 679.966L367.372 627.759L397.504 679.966H337.24Z" fill="white"/>
<path d="M307.108 627.759L337.24 679.966H276.977L307.108 627.759Z" fill="white"/>
<path d="M428.054 732.058L397.922 679.851H458.186L428.054 732.058Z" fill="white"/>
<path d="M428.054 732.058L458.186 679.851L488.317 732.058H428.054Z" fill="white"/>
<path d="M-25.0381 575.437L-55.1699 523.229H5.09375L-25.0381 575.437Z" fill="white"/>
<path d="M-25.038 575.437L5.09377 523.229L35.2256 575.437H-25.038Z" fill="white"/>
<path d="M64.9336 627.698L34.8018 575.491H95.0654L64.9336 627.698Z" fill="white"/>
<path d="M64.9336 627.698L95.0654 575.491L125.197 627.698H64.9336Z" fill="white"/>
<path d="M34.8018 575.491L64.9336 627.698H4.66996L34.8018 575.491Z" fill="white"/>
<path d="M64.9336 627.826L34.8018 680.033L4.66996 627.826H64.9336Z" fill="white"/>
<path d="M-25.0381 678.803L-55.1699 626.596H5.09375L-25.0381 678.803Z" fill="white"/>
<path d="M-25.038 678.803L5.09377 626.596L35.2256 678.803H-25.038Z" fill="white"/>
<path d="M156.31 679.784L126.178 627.583H186.441L156.31 679.784Z" fill="white"/>
<path d="M156.31 679.784L186.441 627.583L216.573 679.784H156.31Z" fill="white"/>
<path d="M126.179 627.583L156.311 679.784H96.0469L126.179 627.583Z" fill="white"/>
<path d="M156.311 679.912L126.179 732.119L96.0469 679.912H156.311Z" fill="white"/>
<path d="M425.582 208.169L395.45 155.961H455.714L425.582 208.169Z" fill="white"/>
<path d="M425.582 208.169L455.714 155.961L485.846 208.169H425.582Z" fill="white"/>
<path d="M244.598 208.072L214.466 155.87H274.729L244.598 208.072Z" fill="white"/>
<path d="M244.598 208.072L274.73 155.87L304.861 208.072H244.598Z" fill="white"/>
<path d="M214.466 155.87L244.598 208.072H184.334L214.466 155.87Z" fill="white"/>
<path d="M66.1631 732.24L36.0313 680.033H96.2949L66.1631 732.24Z" fill="white"/>
<path d="M66.1631 732.24L96.2949 680.033L126.427 732.24H66.1631Z" fill="white"/>
<path d="M36.0313 680.033L66.1631 732.24H5.89945L36.0313 680.033Z" fill="white"/>
<path d="M66.1631 732.361L36.0313 784.568L5.89945 732.361H66.1631Z" fill="white"/>
<path d="M605.017 626.414L574.885 574.207H635.148L605.017 626.414Z" fill="white"/>
<path d="M605.017 626.414L635.148 574.207L665.28 626.414H605.017Z" fill="white"/>
<path d="M695.2 785.823L665.068 733.621H725.332L695.2 785.823Z" fill="white"/>
<path d="M604.587 838.157L574.455 785.95H634.719L604.587 838.157Z" fill="white"/>
<path d="M604.587 838.157L634.719 785.95L664.851 838.157H604.587Z" fill="white"/>
<path d="M604.587 733.622L574.455 681.414H634.719L604.587 733.622Z" fill="white"/>
<path d="M604.587 733.622L634.719 681.414L664.851 733.622H604.587Z" fill="white"/>
<path d="M-20.3867 154.295L-50.5185 102.088H9.74512L-20.3867 154.295Z" fill="white"/>
<path d="M-20.3867 154.295L9.74514 102.088L39.877 154.295H-20.3867Z" fill="white"/>
<path d="M-17.7275 363.76L-47.8593 311.553H12.4043L-17.7275 363.76Z" fill="white"/>
<path d="M-17.7275 363.76L12.4043 311.553L42.5361 363.76H-17.7275Z" fill="white"/>
<path d="M70.1113 310.996L39.9795 258.788H100.243L70.1113 310.996Z" fill="white"/>
<path d="M70.1114 310.996L100.243 258.788L130.375 310.996H70.1114Z" fill="white"/>
<path d="M249.546 209.647L219.414 157.44H279.678L249.546 209.647Z" fill="white"/>
<path d="M249.546 209.647L279.678 157.44L309.81 209.647H249.546Z" fill="white"/>
<path d="M159.32 259.534L129.189 207.326H189.452L159.32 259.534Z" fill="white"/>
<path d="M68.9248 208.738L38.793 156.531H99.0566L68.9248 208.738Z" fill="white"/>
<path d="M68.9248 208.738L99.0567 156.531L129.188 208.738H68.9248Z" fill="white"/>
<path d="M70.1113 416.719L39.9795 364.512H100.243L70.1113 416.719Z" fill="white"/>
<path d="M70.1114 416.719L100.243 364.512L130.375 416.719H70.1114Z" fill="white"/>
<path d="M160.508 468.296L130.376 416.089H190.64L160.508 468.296Z" fill="white"/>
<path d="M160.507 468.296L190.639 416.089L220.771 468.296H160.507Z" fill="white"/>
<path d="M-20.3867 258.837L-50.5185 206.63H9.74512L-20.3867 258.837Z" fill="white"/>
<path d="M-20.3867 258.837L9.74514 206.63L39.877 258.837H-20.3867Z" fill="white"/>
<path d="M-17.5947 469.174L-47.7265 416.967H12.5371L-17.5947 469.174Z" fill="white"/>
<path d="M-17.5947 469.174L12.5371 416.967L42.6689 469.174H-17.5947Z" fill="white"/>
<path d="M339.941 363.7L309.81 311.492H370.073L339.941 363.7Z" fill="white"/>
<path d="M249.328 416.028L219.196 363.821H279.46L249.328 416.028Z" fill="white"/>
<path d="M249.328 416.028L279.46 363.821L309.592 416.028H249.328Z" fill="white"/>
<path d="M249.328 311.492L219.196 259.285H279.46L249.328 311.492Z" fill="white"/>
<path d="M249.328 311.492L279.46 259.285L309.592 311.492H249.328Z" fill="white"/>
<path d="M159.15 363.7L129.019 311.492H189.282L159.15 363.7Z" fill="white"/>
<path d="M159.15 363.7L189.282 311.492L219.414 363.7H159.15Z" fill="white"/>
<path d="M72.583 521.382L42.4512 469.174H102.715L72.583 521.382Z" fill="white"/>
<path d="M72.583 521.382L102.715 469.174L132.847 521.382H72.583Z" fill="white"/>
<path d="M-18.2363 573.771L-48.3681 521.563H11.8955L-18.2363 573.771Z" fill="white"/>
<path d="M-18.2363 573.771L11.8955 521.563L42.0273 573.771H-18.2363Z" fill="white"/>
<path d="M72.583 625.857L42.4512 573.649H102.715L72.583 625.857Z" fill="white"/>
<path d="M72.583 625.857L102.715 573.649L132.847 625.857H72.583Z" fill="white"/>
<path d="M162.99 573.71L132.858 521.503H193.122L162.99 573.71Z" fill="white"/>
<path d="M162.99 573.71L193.122 521.503L223.254 573.71H162.99Z" fill="white"/>
<path d="M70.1113 101.967L39.9795 49.7656H100.243L70.1113 101.967Z" fill="white"/>
<path d="M70.1114 101.967L100.243 49.7656L130.375 101.967H70.1114Z" fill="white"/>
<path d="M430.337 520.212L400.205 468.005H460.469L430.337 520.212Z" fill="white"/>
<path d="M430.337 520.212L460.469 468.005L490.601 520.212H430.337Z" fill="white"/>
<path d="M339.724 572.547L309.592 520.34H369.855L339.724 572.547Z" fill="white"/>
<path d="M339.724 572.547L369.855 520.34L399.987 572.547H339.724Z" fill="white"/>
<path d="M339.724 468.005L309.592 415.804H369.855L339.724 468.005Z" fill="white"/>
<path d="M339.724 468.005L369.855 415.804L399.987 468.005H339.724Z" fill="white"/>
<path d="M249.546 520.212L219.414 468.005H279.678L249.546 520.212Z" fill="white"/>
<path d="M249.546 520.212L279.678 468.005L309.81 520.212H249.546Z" fill="white"/>
<path d="M339.724 679.627L309.592 627.42H369.855L339.724 679.627Z" fill="white"/>
<path d="M339.724 679.627L369.855 627.42L399.987 679.627H339.724Z" fill="white"/>
<path d="M249.115 731.961L218.983 679.754H279.247L249.115 731.961Z" fill="white"/>
<path d="M249.116 731.961L279.248 679.754L309.38 731.961H249.116Z" fill="white"/>
<path d="M249.115 627.42L218.983 575.212H279.247L249.115 627.42Z" fill="white"/>
<path d="M249.116 627.42L279.248 575.212L309.38 627.42H249.116Z" fill="white"/>
<path d="M158.933 679.627L128.801 627.42H189.064L158.933 679.627Z" fill="white"/>
<path d="M158.933 679.627L189.064 627.42L219.196 679.627H158.933Z" fill="white"/>
<path d="M-18.4971 52.2072L-48.6289 0H11.6348L-18.4971 52.2072Z" fill="white"/>
<path d="M-18.497 52.2072L11.6348 0L41.7666 52.2072H-18.497Z" fill="white"/>
<path d="M71.6807 104.414L41.5489 52.2072H101.812L71.6807 104.414Z" fill="white"/>
<path d="M71.6807 104.414L101.813 52.2072L131.944 104.414H71.6807Z" fill="white"/>
<path d="M-19.1328 156.803L-49.2646 104.596H10.999L-19.1328 156.803Z" fill="white"/>
<path d="M-19.1328 156.803L10.999 104.596L41.1309 156.803H-19.1328Z" fill="white"/>
<path d="M71.6807 208.889L41.5489 156.682H101.812L71.6807 208.889Z" fill="white"/>
<path d="M71.6807 208.889L101.813 156.682L131.944 208.889H71.6807Z" fill="white"/>
<path d="M218.512 51.0379H278.775L248.644 103.245" fill="white"/>
<path d="M248.214 314.988L218.082 262.781H278.346L248.214 314.988Z" fill="white"/>
<path d="M248.214 314.988L278.346 262.781L308.478 314.988H248.214Z" fill="white"/>
</g>
<defs>
<clipPath id="clip0_2130_1663">
<rect width="934" height="1097" fill="white" transform="matrix(-1 0 0 1 757.02 0)"/>
</clipPath>
</defs>
</svg>
