<svg width="46" height="53" viewBox="0 0 46 53" fill="none" xmlns="http://www.w3.org/2000/svg">
<g id="icon bull" clip-path="url(#clip0_2124_180)">
<path id="Vector" d="M44.9235 30.4096C44.8522 30.4499 44.415 30.656 44.2933 30.7026C43.4013 31.0952 42.6006 31.0305 41.7086 30.5123C41.0672 30.1402 40.4723 29.3219 40.2393 29.0344C40.0551 28.8077 39.8325 28.5107 39.5138 28.2287C38.9213 27.7026 38.1189 27.3566 36.7313 27.3819C36.62 27.3843 36.5095 27.359 36.411 27.3076C35.0089 26.5762 32.5931 25.6844 30.2846 25.7989C29.8274 25.8297 29.761 25.5011 29.6104 25.1338C29.1908 24.0272 28.885 23.5145 28.5999 23.1132C28.2372 22.603 28.0778 22.599 27.7768 22.5153C27.442 22.4229 27.0793 22.3873 26.8567 22.0042C26.8295 21.9576 26.7198 21.7546 26.8439 21.6124C27.1506 21.2601 28.001 20.7743 26.7238 20.0634C25.9455 19.6298 26.2922 19.3509 26.4211 19.2854C26.6005 19.1945 26.9096 19.1226 27.2787 19.1945C27.6478 19.2672 28.0786 19.4844 28.4998 19.971C28.9162 20.4521 30.3223 22.6985 31.1766 24.4032C31.1878 24.4261 31.2071 24.5493 31.364 24.5643C31.6026 24.5872 32.0102 24.588 32.0943 24.5951C32.2256 24.6062 32.228 24.5011 32.2144 24.4585C31.0029 20.4931 29.6096 15.5578 27.1914 12.1241C27.1426 12.0254 27.1842 11.9227 27.3372 11.9369C29.5015 12.1557 30.1293 15.1937 31.3968 17.189C33.0263 19.7546 33.9816 18.749 34.1353 17.0183C34.2434 15.809 33.9199 14.2695 33.0655 13.4061C32.8622 13.162 32.5026 12.8532 32.3521 12.6707C32.2977 12.6051 32.2896 12.4946 32.4338 12.459C32.493 12.4448 32.5779 12.4385 32.6932 12.4424C33.6933 12.5183 35.0826 13.3168 35.6663 14.2055C36.8642 16.0302 36.7753 17.0104 36.6104 17.6574C36.3293 18.7632 35.8056 19.3991 36.455 21.148C37.741 24.6093 37.4047 23.8874 36.6728 26.0651C36.6104 26.231 36.7129 26.3542 36.8578 26.3408C38.5417 26.1883 39.0558 26.5643 39.4193 26.7563C39.4561 26.776 39.4882 26.8053 39.5138 26.7997C39.5787 26.7776 39.6011 26.697 39.6123 26.5888C39.7508 25.6544 39.553 25.2602 39.3376 24.7096C39.2111 24.3866 39.067 24.0216 39.0221 23.667C38.9485 23.2112 39.0326 22.9545 39.1711 22.614C39.4081 22.0327 39.5498 21.5824 39.3569 20.7072C38.9309 18.8612 37.3975 15.8216 36.4174 14.0704C36.3365 13.9195 35.6655 12.6691 35.5598 12.4859C35.4877 12.3611 35.5182 12.2086 35.5718 12.0901C35.6167 11.9922 35.6903 11.7947 35.6903 11.7947C35.9241 11.2062 36.0483 10.7568 36.1187 10.2433C36.3453 8.58769 35.9057 7.40994 34.6918 6.42493C33.5652 5.51022 31.5586 5.10579 28.8866 5.25429L28.3212 5.28589C25.8046 5.42728 22.9524 5.58842 20.8064 5.41307C18.7285 5.24324 17.5155 4.91937 17.0967 4.42174C16.9605 4.2598 16.9085 4.08129 16.9317 3.85853C16.9782 3.41303 17.252 2.96989 17.682 2.64287C18.0543 2.36008 18.4939 2.20763 18.8054 2.25582C19.3643 2.27872 19.9777 2.58916 20.6871 2.94856C21.3229 3.27084 22.0436 3.63578 22.8819 3.87354C23.5906 4.07418 24.292 4.16344 24.9662 4.13816C25.602 4.11446 26.2249 3.98255 26.8175 3.74795C27.0681 3.64842 27.2483 3.53467 27.3259 3.46674C27.366 3.43198 27.3812 3.36247 27.3324 3.2977C27.3035 3.259 27.2667 3.259 27.1362 3.259C26.2442 3.259 25.4498 3.11997 24.9446 3.00386C24.3865 2.86483 24.3384 2.73134 24.344 2.68079C24.3561 2.56309 24.6499 2.45092 24.9862 2.43592C26.6325 2.36324 27.8929 2.45092 28.7272 2.50859C29.0115 2.52833 29.2365 2.54413 29.3982 2.54729C29.564 2.55045 29.7826 2.54413 29.7914 2.54334C29.841 2.5386 29.8554 2.50701 29.8594 2.49437C29.8691 2.46277 29.8546 2.42565 29.8354 2.41143C29.2549 1.93828 27.3692 1.22499 25.2184 0.848997C21.7577 0.24393 19.4388 0.74078 18.1032 1.2637C17.8373 1.36796 17.1527 1.66023 16.5442 2.12548C15.8732 2.63813 15.4992 3.19659 15.432 3.78586C15.3415 4.57419 15.922 5.59316 19.197 5.96758C22.6649 6.36411 25.9055 6.30803 28.764 6.25826C29.0627 6.25273 29.3558 6.24799 29.6432 6.24325C31.4537 6.21719 32.9871 6.6469 33.6445 7.37045C34.402 8.20301 34.4468 9.31835 34.2554 10.0198C34.2002 10.222 34.0873 10.5261 33.9528 10.7189C33.7446 10.9969 33.5164 11.0814 33.0976 10.9716C31.7596 10.6233 29.3718 9.8468 28.2147 9.46133C27.1842 9.11851 26.3699 8.84678 25.6797 8.68011C23.6298 8.18484 22.99 8.51265 21.6144 9.37049C21.2829 9.57744 20.9458 9.80335 20.555 10.0656C19.9905 10.4448 19.3499 10.8753 18.4987 11.3998C17.9855 11.7157 17.3121 12.0814 16.5994 12.4685C15.8748 12.8619 15.1253 13.2687 14.391 13.7031C12.0361 15.0665 11.6605 16.8951 11.2257 19.0121C10.9175 20.5145 10.5675 22.2167 9.40409 23.9411C9.27678 24.1299 8.26867 25.336 8.05407 25.6789C7.25735 26.9419 6.82976 28.032 6.99791 29.8653C7.12443 31.2358 6.6488 32.4286 6.18918 33.5826C5.82725 34.4902 5.48614 35.3481 5.42929 36.2659C5.38685 36.8339 5.40767 37.3647 5.42769 37.8773C5.46132 38.7289 5.47413 39.5772 5.21069 40.3126C5.00811 40.8766 4.49564 41.4327 4.29626 41.9785C4.04083 42.6808 3.86147 43.6792 3.86147 44.5963C3.84546 45.3688 3.26333 45.9375 2.64757 46.5387C2.10468 47.0687 1.53616 47.6256 1.32957 48.346C1.30235 48.4423 1.28393 48.515 1.2479 48.5719C1.19425 48.6572 1.11418 48.7117 1.00608 48.7875C0.797892 48.9336 0.545663 49.1256 0.271014 49.6714C0.0388035 50.1319 0.105264 50.9534 0.318257 51.3531C0.351087 51.4147 0.442369 51.5601 0.583297 51.5759C0.678584 51.5869 0.774671 51.5372 0.869156 51.4282C0.869156 51.4282 1.4705 50.7417 1.70511 50.5356C1.78759 50.4653 1.88528 50.4779 1.94133 50.5198C2.00779 50.5687 2.0222 50.6509 1.98136 50.7386C1.95734 50.7899 1.59461 51.4266 1.38322 51.9637L1.37842 51.9771C1.34959 52.053 1.31356 52.1478 1.36561 52.2268C1.41525 52.3034 1.53376 52.3452 1.73714 52.3579C1.82682 52.361 1.9133 52.3626 1.99738 52.3626C3.11199 52.3626 3.69812 52.0704 4 51.8136C4.1177 51.6896 4.14092 51.6359 4.18016 51.5466C4.19057 51.5237 4.20178 51.4969 4.21699 51.4637C4.43959 50.8736 4.58933 50.192 4.60695 49.6833C4.60695 49.4676 4.6694 49.406 4.81914 49.2583C5.40607 48.6738 5.40687 47.9028 5.40687 47.1564C5.40687 46.4707 5.40767 45.7614 5.86489 45.2021C7.11162 43.8261 7.7594 42.2171 8.38637 40.661C9.03256 39.0559 9.70116 37.3963 11.0272 36.0124C11.3611 35.6735 11.6886 35.4895 11.9048 35.5234C12.0105 35.5392 12.0937 35.6064 12.1538 35.7233C12.438 36.2415 12.3524 36.9382 12.2699 37.6119C12.1762 38.3734 12.0881 39.093 12.4973 39.5638C12.7703 39.9129 12.844 40.281 12.7095 40.6302C12.5349 41.1807 12.0033 42.8577 10.7349 43.5994C10.7045 43.6176 10.3706 43.8522 10.2657 43.9517C10.2112 44.0038 10.1712 44.0742 10.1247 44.1555C10.0134 44.3514 9.87572 44.5947 9.44013 44.7211C8.9629 44.8396 8.51369 45.1255 8.26867 45.4675C7.59846 46.402 7.62728 47.5592 7.68974 47.891C7.71456 48.0197 7.7578 48.1888 7.88272 48.3562C7.95878 48.4589 8.04686 48.5197 8.13815 48.5332C8.21342 48.5442 8.28788 48.5221 8.35835 48.4692C8.43201 48.4139 8.51929 48.3144 8.62979 48.188C8.80275 47.9905 9.01814 47.744 9.28959 47.5474C9.37687 47.4842 9.46255 47.4992 9.51299 47.5339C9.56104 47.5663 9.58266 47.6192 9.56904 47.6666C9.54342 47.7535 9.46255 47.8799 9.36006 48.0387C9.22954 48.2409 9.06779 48.4929 8.93967 48.7899C8.90764 48.8562 8.90364 48.9171 8.92766 48.9708C8.9645 49.0553 9.05578 49.09 9.083 49.0987C9.89014 49.3531 11.0952 49.0513 11.7702 48.4257C12.1081 48.1121 12.2731 47.6967 12.2731 47.1548C12.2731 47.0173 12.3396 46.8041 12.4837 46.6619C12.9585 46.2606 13.1555 45.6342 13.3637 44.9707C13.4133 44.8127 13.4646 44.65 13.5198 44.4896C13.7352 43.8648 14.0187 43.3277 14.7033 42.7368C15.5921 41.9169 15.9941 41.1436 16.2471 40.6673C16.5049 40.1546 16.5618 39.8687 16.75 39.5693C17.1207 38.9919 18.373 38.8829 18.8358 39.1523C19.028 39.2644 19.0705 39.4185 18.9632 39.612C18.8927 39.7376 18.2321 40.7921 17.9214 41.5125C17.7685 41.8664 17.4242 41.9983 17.2184 42.1168C15.9781 42.8316 15.7523 44.1792 15.7162 44.7306C15.705 44.9028 15.7242 45.1326 15.8123 45.2606C15.8636 45.3348 15.9348 45.3822 16.0133 45.3949C16.091 45.4075 16.1702 45.3854 16.2431 45.3301C16.3152 45.2756 16.987 44.6073 17.067 44.5378C17.1783 44.4415 17.276 44.458 17.3249 44.5015C17.3777 44.5473 17.3993 44.6389 17.3305 44.7393C17.2368 44.8759 16.7732 45.5647 16.8276 45.7156C16.9197 45.9707 17.1831 45.966 17.4474 45.9683C19.5749 45.7906 20.3276 44.2961 20.3276 44.2961C20.3788 44.2092 20.4429 44.0939 20.4093 43.7835C20.3484 43.2234 20.2147 41.281 21.3525 40.0717C21.6912 39.7012 21.8898 39.9516 21.9667 40.1167C22.1044 40.4137 22.3086 40.9287 22.4239 41.187C22.6697 41.7352 22.8379 42.1397 23.1213 42.6816C23.5994 43.5963 24.3176 43.7234 25.2072 43.6128C26.3571 43.4707 27.1498 43.5615 27.9225 43.6365C28.5783 43.6903 28.941 43.7337 29.4238 43.2993C29.6865 43.0623 30.1909 42.6278 30.5296 42.1555C30.7442 41.8569 30.8107 41.6673 30.7563 41.2028C30.5969 38.8687 31.8276 36.8402 34.0464 35.7786C34.3795 35.6459 34.7487 35.6862 34.9745 35.9855C35.4717 36.7138 36.6296 38.578 36.6296 40.161C36.6296 40.3103 36.5703 40.4746 36.5007 40.6657C36.3437 41.0986 36.1483 41.6365 36.5111 42.3703C36.5335 43.0054 36.2949 43.5015 36.0843 43.9399C35.7848 44.5631 35.5478 45.0552 36.3677 45.5402C36.5992 45.6769 36.9002 45.8001 37.287 45.9154C37.3094 45.9225 37.3326 45.9257 37.3534 45.9257C37.3871 45.9257 37.4175 45.9178 37.4423 45.9012C37.4703 45.883 37.488 45.8562 37.492 45.8269C37.5144 45.6437 37.5368 45.0086 37.5712 44.8593C37.5848 44.7993 37.6161 44.7274 37.6865 44.7235C37.7514 44.7195 37.8163 44.7724 37.8347 44.823C37.9003 44.9754 38.0669 45.5971 38.1125 45.6958C38.1518 45.7803 38.199 45.838 38.2615 45.8562C38.5906 45.9494 39.0398 45.3925 39.2071 45.105C39.497 44.5133 39.3785 43.6342 38.9052 42.868C38.8356 42.721 38.826 42.6618 38.8252 42.5275C38.9997 41.83 38.8724 41.4769 38.7379 41.1033C38.6602 40.8877 38.5817 40.6649 38.5465 40.3584C38.4192 39.2605 39.1006 35.7849 39.1647 35.4279C39.2808 34.7817 39.3761 34.3204 39.4177 33.8457C39.4577 33.386 39.2672 32.848 38.9429 32.5068C38.6458 32.194 38.2879 31.9072 37.942 31.63C37.6369 31.3851 37.3486 31.1545 37.1124 30.9159C36.7313 30.5304 36.6096 29.968 36.6128 29.8093C36.6144 29.7666 36.6224 29.739 36.6376 29.7255C36.6496 29.7145 36.6688 29.7105 36.6968 29.7129C37.2221 29.75 37.6425 30.0936 38.175 30.5289C38.6514 30.9183 39.1911 31.3591 39.9478 31.69C41.4419 32.3441 42.8608 32.2477 44.2853 31.3946C44.8907 30.9704 45.078 30.6071 45.1085 30.5565C45.1461 30.4933 45.0917 30.3093 44.9179 30.4072L44.9235 30.4096ZM11.8071 24.5785C11.8936 23.8984 12.4028 23.1741 12.6262 22.3249C12.9441 21.366 13.0322 19.6906 13.2051 18.3628C13.2916 17.7008 13.5479 17.4204 14.0323 17.3619C14.3526 17.3335 14.6857 17.6084 14.8578 18.5436C15.4536 22.3731 16.6194 22.9031 17.2969 23.9174C17.3089 23.9355 17.3209 23.9545 17.3313 23.9742C17.505 24.2926 17.5603 24.588 17.288 24.8028C17.1287 24.9292 16.5978 25.1172 15.6946 24.5801C14.6112 23.9355 14.4479 23.242 12.6518 24.6599C12.6518 24.6599 12.4116 24.8439 12.181 24.8945C11.9856 24.9371 11.771 24.8629 11.8071 24.5785ZM21.21 38.6278C21.1451 38.6673 21.0731 38.6404 20.9674 38.574C20.2539 38.1238 18.2769 37.7691 16.6074 38.4287C14.8899 39.1072 13.3172 40.0662 13.2123 38.3908C13.1915 36.9058 13.5118 36.2588 12.9889 35.3757C12.9889 35.3757 12.9665 35.3457 12.9433 35.3102C12.8985 35.2399 12.9529 35.2241 12.9697 35.2233C15.3815 35.0376 16.0253 34.2936 16.1758 34.0337C16.2087 33.9768 16.1654 33.9152 16.1038 33.9081C15.5497 33.8473 12.7872 33.7659 11.6758 33.9239C9.72198 34.2027 8.40959 37.1056 8.15496 37.3805C7.8619 37.6973 7.49196 37.4547 7.49196 37.1656C7.49196 36.6814 7.78182 34.3299 7.9748 33.5147C8.27988 32.224 8.69946 31.2658 9.97581 31.0715C10.8702 30.9357 13.065 30.7066 12.9137 30.1205C12.7888 29.6363 12.7263 29.2571 12.7247 29.0423C12.7231 28.7563 12.8712 28.6987 13.1651 28.7634C13.3821 28.8108 13.6736 28.938 14.0467 29.0249C16.8076 29.6655 18.2217 29.1552 19.8672 28.434C19.9136 28.4135 20.5254 28.1418 20.563 28.122C20.8593 27.9593 21.2324 28.2532 21.0675 28.6015C20.9802 28.7855 20.8617 28.8709 20.6087 29.1118C20.065 29.6276 18.0383 31.2674 19.2594 34.0384C20.2115 36.1988 20.4885 36.7588 21.1644 38.232C21.2741 38.4706 21.2901 38.578 21.2092 38.6278H21.21ZM26.3427 42.3664C26.2081 42.5725 26.0007 42.7195 25.5972 42.7195C25.1015 42.7195 24.75 42.5725 24.5402 42.3514C24.1086 41.8972 24.055 41.2755 24.1607 40.8687C24.2279 40.6112 24.3849 40.4414 24.553 40.3924C24.6267 40.3679 24.6667 40.3734 24.7036 40.4208C24.778 40.5393 25.0463 40.958 25.1079 41.0449C25.18 41.1468 25.3113 41.2368 25.4186 41.2787C25.6204 41.3585 25.8774 41.4272 26.0136 41.488C26.4299 41.6657 26.526 42.0868 26.3443 42.3656L26.3427 42.3664ZM34.3027 34.7256C34.2498 34.8094 34.2034 34.8228 34.1329 34.8544C31.6322 35.7881 29.644 38.3063 30.0044 41.3324C30.0116 41.4904 29.9611 41.7123 29.8106 41.8608C29.8106 41.8608 29.2853 42.3869 28.9554 42.6112C28.8425 42.6879 28.7152 42.7503 28.4205 42.7313C27.9577 42.7021 27.3067 42.6618 27.3067 42.6618C27.1322 42.6326 27.2066 42.4833 27.2202 42.4501C27.2331 42.4185 27.2451 42.3822 27.2547 42.3403C27.3492 41.8861 27.2819 41.2502 26.6349 41.0117C26.542 40.9603 26.6005 40.8758 26.6117 40.8482C26.8895 40.1736 27.2371 39.3387 27.5157 38.1672C27.6839 37.4595 27.5806 37.0322 27.3291 36.5235C27.2731 36.4105 27.2002 36.307 27.1178 36.2114L26.7246 35.6972C26.6149 35.5716 26.6437 35.4397 26.8015 35.3836L27.3564 35.2438C27.4917 35.1964 27.4789 34.9934 27.3484 34.961L27.0625 34.871C26.7919 34.7612 26.6269 34.5479 26.5052 34.3828C26.4852 34.356 26.45 34.3015 26.4171 34.2422C26.3563 34.134 26.3122 34.0163 26.2866 33.8954L26.253 33.7359C26.249 33.6545 26.1201 33.6537 26.0632 33.7098C25.626 34.1435 25.4907 34.8086 25.8118 35.337C26.2618 36.0779 26.2434 36.0045 26.6445 36.5653C26.7766 36.7502 26.8559 36.901 26.9 37.0843C26.9608 37.3371 26.9432 37.9777 26.7718 38.435L26.317 39.7984C26.0424 40.4082 25.7357 40.2613 25.5619 40.1475C25.3377 40.0006 25.1288 39.6191 25.0159 39.2154C25.0159 39.2154 24.7028 38.0772 24.714 36.5645C24.6932 36.3821 24.5666 36.0827 24.1647 36.3441L23.0941 37.2201C22.9428 37.2999 22.6809 37.2565 22.7338 36.9129C22.7338 36.9129 23.5033 33.5273 24.332 31.6197C24.9542 30.0636 24.2616 29.1868 23.436 28.2239C22.0876 26.5264 21.7849 24.2428 24.9254 25.4932C25.7685 25.8732 26.0696 25.3803 27.1097 25.2918C27.856 25.2278 28.101 25.5256 28.1651 25.652C28.222 25.765 28.242 25.889 28.2484 25.9545C28.2516 25.983 28.242 26.0019 28.2099 26.0019C26.4491 26.1007 24.348 27.5438 25.9711 29.8077C27.5646 32.0257 31.9493 32.7714 33.9071 30.6568C33.9327 30.6284 33.9391 30.5644 33.8999 30.5328C33.8799 30.5162 33.8455 30.5012 33.799 30.5178C33.3706 30.6782 32.9767 30.799 32.5811 30.863C31.6459 31.0147 29.6633 30.9041 28.7264 29.8496C28.1907 29.2461 28.2043 28.5494 29.1108 28.4427C29.6152 28.4024 29.8618 28.4941 30.0804 28.498C30.6458 28.4901 30.7619 27.9332 30.645 27.6805C30.5481 27.4388 30.3231 27.1473 30.006 26.8929C29.7137 26.6876 29.8715 26.4735 30.062 26.4782C31.8757 26.5801 33.6092 26.8898 34.2634 29.0375C34.2883 29.1181 34.3331 29.389 34.402 29.4909C34.5421 29.6963 34.7863 29.8503 35.0554 30.0818C35.7136 30.6481 36.3045 31.6576 34.3027 34.7248V34.7256ZM36.6584 33.3978C36.9771 32.7406 37.4095 33.1814 37.6153 33.9025C37.8771 34.8188 37.9147 36.2936 37.8042 37.0535C37.6601 38.0456 37.1877 37.8465 36.9347 37.4942C36.5351 36.9374 36.1035 36.1956 35.8024 35.6869C35.7936 35.6711 35.7848 35.6553 35.7768 35.6395C35.6367 35.3536 35.6159 35.1269 35.7624 34.9144C35.9137 34.6861 36.5119 33.7003 36.6584 33.3978Z" fill="white"/>
</g>
<defs>
<clipPath id="clip0_2124_180">
<rect width="45" height="51.7924" fill="white" transform="translate(0.125 0.572632)"/>
</clipPath>
</defs>
</svg>
