<svg width="37" height="37" viewBox="0 0 37 37" fill="none" xmlns="http://www.w3.org/2000/svg">
<g id="tabler-icon-brand-discord">
<path id="Vector" d="M23.7507 26C23.7507 27.5 26.0007 30.5 26.7507 30.5C29.0007 30.5 31.0002 27.9995 32.0007 26C33.0012 23.4995 32.7507 17.2505 29.7507 8.75C27.5652 7.2275 25.2507 6.74 23.0007 6.5L21.5427 9.3845C19.531 9.03724 17.4748 9.03724 15.4632 9.3845L14.0007 6.5C11.7507 6.74 9.43616 7.2275 7.25066 8.75C4.25066 17.2505 4.00016 23.4995 5.00066 26C6.00116 27.9995 8.00066 30.5 10.2507 30.5C11.0007 30.5 13.2507 27.5 13.2507 26M11 25.25C16.25 26.75 20.75 26.75 26 25.25M12.5 18.5C12.5 18.8978 12.658 19.2794 12.9393 19.5607C13.2206 19.842 13.6022 20 14 20C14.3978 20 14.7794 19.842 15.0607 19.5607C15.342 19.2794 15.5 18.8978 15.5 18.5C15.5 18.1022 15.342 17.7206 15.0607 17.4393C14.7794 17.158 14.3978 17 14 17C13.6022 17 13.2206 17.158 12.9393 17.4393C12.658 17.7206 12.5 18.1022 12.5 18.5ZM21.5 18.5C21.5 18.8978 21.658 19.2794 21.9393 19.5607C22.2206 19.842 22.6022 20 23 20C23.3978 20 23.7794 19.842 24.0607 19.5607C24.342 19.2794 24.5 18.8978 24.5 18.5C24.5 18.1022 24.342 17.7206 24.0607 17.4393C23.7794 17.158 23.3978 17 23 17C22.6022 17 22.2206 17.158 21.9393 17.4393C21.658 17.7206 21.5 18.1022 21.5 18.5Z" stroke="#FFC000" stroke-width="2" stroke-linecap="round" stroke-linejoin="round"/>
</g>
</svg>
