<svg width="57" height="49" viewBox="0 0 57 49" fill="none" xmlns="http://www.w3.org/2000/svg">
<g id="Icon_fffw" clip-path="url(#clip0_2124_184)">
<path id="Vector" d="M16.3382 0.24939H14.8036L14.0259 1.59205L27.4092 24.6382L14.0881 47.6705L14.8036 48.9062H16.4627L29.7423 25.9463H56.2082L56.9997 24.5795L56.2462 23.2748H29.7077L16.3382 0.24939Z" fill="white"/>
<g id="Group">
<path id="Vector_2" d="M42.359 1.19172L53.1292 19.8233H54.3286L42.957 0.15625H20.2793L20.8807 1.19172H42.359Z" fill="#706A6A"/>
<path id="Vector_3" d="M42.3584 47.7879H21.1014L20.5034 48.8234H42.9564L54.1864 29.3979H52.9904L42.3584 47.7879Z" fill="#706A6A"/>
<path id="Vector_4" d="M1.94593 24.4897L12.6125 6.04105L12.0145 5.00903L0.75 24.4897L12.1251 44.1637L12.7231 43.1282L1.94593 24.4897Z" fill="#706A6A"/>
</g>
<g id="Group_2">
<path id="Vector_5" d="M31.6958 29.346H29.7705L29.373 30.0363H32.0933L33.4586 27.672H32.6636L31.6958 29.346Z" fill="#CCCCCC"/>
<path id="Vector_6" d="M23.2721 24.4899L24.2952 22.7192L23.8977 22.0323L22.4736 24.4899L23.9876 27.1027L24.385 26.4124L23.2721 24.4899Z" fill="#CCCCCC"/>
<path id="Vector_7" d="M31.6953 19.6334L32.8014 21.5491H33.5998L32.0928 18.9431H29.1929L29.5938 19.6334H31.6953Z" fill="#CCCCCC"/>
</g>
<g id="Group_3">
<path id="Vector_8" d="M10.1617 24.5657L16.7497 13.1652L16.1517 12.1332L8.96582 24.5657L16.2105 37.0984L16.8085 36.0629L10.1617 24.5657Z" fill="#666666"/>
<path id="Vector_9" d="M38.5977 8.17073L45.3378 19.8232H46.5337L39.1991 7.13525H24.333L24.931 8.17073H38.5977Z" fill="#666666"/>
<path id="Vector_10" d="M38.5984 40.9607H25.0491L24.4512 41.9962H39.1998L46.4825 29.3979H45.2831L38.5984 40.9607Z" fill="#666666"/>
<path id="Vector_11" d="M18.1427 24.5657L20.7523 20.0545L20.1509 19.0225L16.9468 24.5657L20.2027 30.1952L20.8007 29.1597L18.1427 24.5657Z" fill="#948F8F"/>
<path id="Vector_12" d="M34.6093 15.0738L37.3537 19.8232H38.5531L35.2073 14.0383H28.3394L28.9408 15.0738H34.6093Z" fill="#948F8F"/>
<path id="Vector_13" d="M34.6091 34.0576H29.0408L28.4429 35.093H35.2071L38.4976 29.3979H37.3017L34.6091 34.0576Z" fill="#948F8F"/>
</g>
</g>
<defs>
<clipPath id="clip0_2124_184">
<rect width="56.25" height="48.75" fill="white" transform="translate(0.75 0.15625)"/>
</clipPath>
</defs>
</svg>
