<svg width="166" height="43" viewBox="0 0 166 43" fill="none" xmlns="http://www.w3.org/2000/svg">
<g id="Logo_white" clip-path="url(#clip0_1501_10676)">
<g id="Group">
<path id="Vector" d="M43.6252 33.1032C41.8411 33.1032 40.3096 32.786 39.0228 32.1477C37.74 31.5093 36.7532 30.5146 36.0663 29.1635C35.3795 27.8085 35.0361 26.0619 35.0361 23.9236C35.0361 21.7854 35.3795 20.0857 36.0663 18.7229C36.7532 17.36 37.74 16.3575 39.0228 15.7113C40.3056 15.0651 41.8332 14.744 43.5976 14.744C44.683 14.744 45.7448 14.8498 46.779 15.0612C47.8132 15.2727 48.8118 15.5821 49.7749 15.9894V19.3612C48.7565 18.8482 47.7974 18.4331 46.8856 18.112C45.9738 17.7908 45.0304 17.6342 44.0515 17.6342C42.891 17.6342 41.9161 17.8378 41.1227 18.2451C40.3293 18.6524 39.7333 19.3142 39.3307 20.2345C38.9281 21.1549 38.7307 22.3845 38.7307 23.9236C38.7307 25.4627 38.9359 26.665 39.3465 27.5853C39.757 28.5056 40.349 29.1753 41.1266 29.5904C41.9042 30.0055 42.8358 30.2131 43.9212 30.2131C44.4738 30.2131 44.9949 30.1739 45.4843 30.0956C45.9738 30.0172 46.4356 29.8958 46.8619 29.7392V26.0501H43.5186V23.1325H50.5012V31.3605C49.4315 31.9284 48.3184 32.3591 47.1579 32.6607C45.9975 32.9622 44.8212 33.1111 43.6291 33.1111L43.6252 33.1032Z" fill="white"/>
<path id="Vector_2" d="M52.3682 32.7867V20.713C52.6168 20.5368 53.0589 20.3214 53.6905 20.063C54.322 19.8084 55.0601 19.5773 55.8969 19.3737C56.7337 19.1701 57.5824 19.0682 58.4389 19.0682C59.0823 19.0682 59.5915 19.1191 59.9783 19.2131C60.3612 19.311 60.6691 19.4285 60.902 19.5695V22.119C60.5467 22.0641 60.1402 22.0211 59.6862 21.9858C59.2323 21.9506 58.7665 21.9388 58.2968 21.9467C57.8232 21.9545 57.3692 21.978 56.9311 22.0132C56.493 22.0485 56.1061 22.0916 55.7667 22.1464V32.7867H52.3682Z" fill="white"/>
<path id="Vector_3" d="M66.492 33.1823C65.7263 33.1823 65.0039 33.1118 64.325 32.9708C63.6461 32.8298 63.0422 32.5909 62.5054 32.2542C61.9685 31.9174 61.5462 31.4631 61.2344 30.8874C60.9225 30.3117 60.7646 29.599 60.7646 28.7491C60.7646 27.8288 60.9502 27.0534 61.3251 26.4268C61.7001 25.8002 62.2488 25.3225 62.9711 24.9935C63.6935 24.6645 64.5816 24.504 65.6315 24.504C66.2749 24.504 66.8709 24.5627 67.4235 24.6763C67.9761 24.7899 68.4774 24.9504 68.9195 25.1541C69.3656 25.3577 69.7326 25.5731 70.0168 25.8042L70.2576 27.6878C69.8826 27.4411 69.405 27.2414 68.8248 27.0926C68.2446 26.9438 67.617 26.8654 66.938 26.8654C65.9947 26.8654 65.2881 27.0143 64.8263 27.3158C64.3605 27.6174 64.1316 28.0873 64.1316 28.7217C64.1316 29.1447 64.2579 29.5089 64.5066 29.8104C64.7552 30.112 65.0789 30.3313 65.4697 30.4723C65.8605 30.6133 66.271 30.6838 66.7012 30.6838C67.6801 30.6838 68.3906 30.6172 68.8287 30.484C69.2669 30.3509 69.484 30.065 69.484 29.6225V24.3669C69.484 23.5014 69.2077 22.867 68.6551 22.4675C68.1025 22.0681 67.3249 21.8723 66.3262 21.8723C65.5605 21.8723 64.775 22.0015 63.9737 22.2561C63.1724 22.5145 62.5211 22.8435 62.0199 23.2508V20.2001C62.5014 19.8828 63.2237 19.6126 64.1869 19.3894C65.15 19.1701 66.1841 19.0565 67.2893 19.0565C67.7512 19.0565 68.2446 19.0957 68.7616 19.174C69.2787 19.2523 69.78 19.3894 70.2576 19.5852C70.7392 19.781 71.1773 20.0552 71.5681 20.4076C71.9588 20.7601 72.2707 21.1987 72.5036 21.7195C72.7364 22.2404 72.8509 22.8748 72.8509 23.6189L72.8233 29.9632C72.8233 30.7777 72.5588 31.42 72.0338 31.886C71.5089 32.356 70.7668 32.6849 69.8155 32.8807C68.8603 33.0766 67.7512 33.1745 66.4841 33.1745L66.492 33.1823Z" fill="white"/>
<path id="Vector_4" d="M78.3954 32.7858L72.751 19.412H76.414L80.748 30.1072L79.9467 30.162L83.9057 19.412H87.4621L81.79 32.7858H78.3915H78.3954Z" fill="white"/>
<path id="Vector_5" d="M88.1338 32.7855V19.5409H91.5323L91.5599 32.7855H88.1377H88.1338Z" fill="white"/>
<path id="Vector_6" d="M98.5104 33.2085C97.121 33.2085 96.0592 32.8678 95.3289 32.1864C94.5987 31.505 94.2316 30.5181 94.2316 29.2257V22.0591H92.1436V19.4039H94.2316V15.6874H97.7604V19.4039H100.863V22.0591H97.7604V28.6931C97.7604 29.2257 97.863 29.6213 98.0683 29.8876C98.2735 30.1539 98.6446 30.287 99.1774 30.287C99.4616 30.287 99.7616 30.2439 100.073 30.1539C100.385 30.0638 100.65 29.9502 100.863 29.8092V32.7268C100.523 32.903 100.144 33.0284 99.7261 33.0989C99.3077 33.1693 98.9011 33.2046 98.5104 33.2046V33.2085Z" fill="white"/>
<path id="Vector_7" d="M107.068 33.1823C106.302 33.1823 105.58 33.1118 104.901 32.9708C104.222 32.8298 103.618 32.5909 103.082 32.2542C102.545 31.9174 102.122 31.4631 101.811 30.8874C101.499 30.3117 101.341 29.599 101.341 28.7491C101.341 27.8288 101.526 27.0534 101.901 26.4268C102.276 25.8002 102.825 25.3225 103.547 24.9935C104.27 24.6645 105.158 24.504 106.208 24.504C106.851 24.504 107.447 24.5627 108 24.6763C108.552 24.7899 109.05 24.9504 109.496 25.1541C109.942 25.3577 110.309 25.5731 110.593 25.8042L110.834 27.6878C110.459 27.4411 109.981 27.2414 109.401 27.0926C108.821 26.9438 108.193 26.8654 107.514 26.8654C106.571 26.8654 105.864 27.0143 105.402 27.3158C104.937 27.6174 104.708 28.0873 104.708 28.7217C104.708 29.1447 104.834 29.5089 105.083 29.8104C105.331 30.112 105.655 30.3313 106.046 30.4723C106.437 30.6133 106.847 30.6838 107.277 30.6838C108.256 30.6838 108.967 30.6172 109.405 30.484C109.843 30.3509 110.06 30.065 110.06 29.6225V24.3669C110.06 23.5014 109.784 22.867 109.231 22.4675C108.679 22.0681 107.901 21.8723 106.902 21.8723C106.137 21.8723 105.351 22.0015 104.55 22.2561C103.749 22.5145 103.097 22.8435 102.596 23.2508V20.2001C103.078 19.8828 103.8 19.6126 104.763 19.3894C105.726 19.1701 106.76 19.0565 107.866 19.0565C108.327 19.0565 108.821 19.0957 109.338 19.174C109.855 19.2523 110.356 19.3894 110.834 19.5852C111.315 19.781 111.753 20.0552 112.144 20.4076C112.535 20.7601 112.847 21.1987 113.08 21.7195C113.313 22.2404 113.427 22.8748 113.427 23.6189L113.399 29.9632C113.399 30.7777 113.135 31.42 112.61 31.886C112.085 32.356 111.343 32.6849 110.392 32.8807C109.436 33.0766 108.327 33.1745 107.06 33.1745L107.068 33.1823Z" fill="white"/>
<path id="Vector_8" d="M119.129 33.1824C118.166 33.1824 117.345 33.0805 116.67 32.8769C115.991 32.6732 115.34 32.4304 114.716 32.1485V29.0977C115.127 29.364 115.557 29.6147 116.015 29.8536C116.473 30.0925 116.958 30.2844 117.487 30.4253C118.012 30.5663 118.589 30.6368 119.212 30.6368C119.907 30.6368 120.428 30.5037 120.775 30.2374C121.123 29.9711 121.296 29.6343 121.296 29.227C121.296 28.8745 121.162 28.5965 120.894 28.3928C120.625 28.1892 120.278 28.0169 119.852 27.8759C119.425 27.7349 118.968 27.5939 118.486 27.4529C118.04 27.3472 117.59 27.2062 117.136 27.03C116.682 26.8538 116.268 26.6149 115.893 26.3133C115.518 26.0118 115.218 25.628 114.997 25.158C114.772 24.6881 114.661 24.1202 114.661 23.4466C114.661 22.6517 114.823 21.9781 115.143 21.4298C115.462 20.8815 115.889 20.4351 116.414 20.0905C116.939 19.7458 117.511 19.4991 118.127 19.3464C118.743 19.1976 119.342 19.131 119.931 19.1466C120.965 19.1662 121.794 19.2798 122.417 19.4913C123.041 19.7027 123.629 19.9612 124.182 20.2628V23.0237C123.558 22.6869 122.954 22.3814 122.378 22.1073C121.798 21.8332 121.127 21.6961 120.357 21.6961C119.662 21.6961 119.121 21.8136 118.739 22.0525C118.356 22.2914 118.162 22.6242 118.162 23.0472C118.162 23.4192 118.277 23.7169 118.51 23.9362C118.743 24.1594 119.05 24.3356 119.433 24.4688C119.816 24.6019 120.231 24.7312 120.677 24.8526C121.123 24.9779 121.581 25.115 122.054 25.2638C122.528 25.4126 122.974 25.628 123.392 25.9021C123.811 26.1762 124.15 26.5522 124.411 27.03C124.667 27.5078 124.797 28.1265 124.797 28.8863C124.778 29.9319 124.498 30.766 123.957 31.3926C123.412 32.0192 122.713 32.4774 121.857 32.7594C121 33.0414 120.092 33.1824 119.129 33.1824Z" fill="white"/>
<g id="Group_2">
<path id="Vector_9" d="M128.869 32.8101H126.942V14.5253H128.869V32.8101Z" fill="white"/>
<path id="Vector_10" d="M135.744 33.209C135.156 33.209 134.564 33.1464 133.964 33.025C133.368 32.8996 132.815 32.6882 132.306 32.3866C131.797 32.0851 131.386 31.6739 131.074 31.153C130.762 30.6322 130.604 29.9703 130.604 29.1753C130.604 28.0788 130.814 27.1976 131.232 26.5358C131.65 25.874 132.231 25.3962 132.969 25.1025C133.707 24.8087 134.56 24.6638 135.523 24.6638C136.253 24.6638 136.888 24.7069 137.421 24.797C137.958 24.8871 138.432 25.0124 138.854 25.1808C139.272 25.3492 139.651 25.5372 139.991 25.7526L140.366 27.5031C139.955 27.2016 139.363 26.9431 138.586 26.7199C137.808 26.5006 136.959 26.387 136.032 26.387C134.907 26.387 134.042 26.5985 133.439 27.0253C132.831 27.4483 132.531 28.071 132.531 28.8816C132.531 29.5356 132.712 30.0565 133.079 30.4481C133.446 30.8358 133.908 31.1099 134.469 31.2705C135.029 31.4311 135.606 31.5094 136.194 31.5094C137.354 31.5094 138.23 31.4271 138.83 31.2587C139.426 31.0903 139.726 30.7066 139.726 30.1035V24.0255C139.726 22.9995 139.422 22.2475 138.819 21.7698C138.211 21.292 137.346 21.0531 136.225 21.0531C135.511 21.0531 134.757 21.1549 133.964 21.3586C133.17 21.5622 132.487 21.8833 131.919 22.3259V20.4148C132.472 20.0623 133.214 19.7921 134.137 19.6041C135.065 19.42 135.965 19.326 136.837 19.326C137.425 19.326 137.97 19.3848 138.467 19.4984C138.965 19.6119 139.411 19.7803 139.805 20.0036C140.196 20.2268 140.532 20.5087 140.808 20.8534C141.084 21.198 141.297 21.5975 141.451 22.0478C141.601 22.4982 141.68 23.0073 141.68 23.5751V29.9977C141.68 30.9337 141.4 31.6347 140.84 32.0929C140.279 32.555 139.545 32.8526 138.645 32.9936C137.745 33.1346 136.778 33.2051 135.744 33.2051V33.209Z" fill="white"/>
<path id="Vector_11" d="M149.224 33.209C148.529 33.209 147.862 33.1698 147.23 33.0915C146.599 33.0132 146.034 32.8683 145.545 32.6685C145.055 32.4649 144.665 32.1947 144.38 31.8579C144.096 31.5211 143.954 31.0864 143.954 30.5577V13.9725H145.88V21.0844L145.213 20.4225C145.568 20.2463 146.003 20.0779 146.512 19.9173C147.021 19.7568 147.542 19.6236 148.075 19.5179C148.608 19.4122 149.074 19.3573 149.464 19.3573C151.533 19.3573 153.068 19.9526 154.067 21.147C155.065 22.3415 155.563 23.9628 155.563 26.0188C155.563 27.5422 155.358 28.7758 154.947 29.7196C154.536 30.6673 154.015 31.3918 153.384 31.897C152.752 32.4022 152.069 32.7469 151.339 32.9309C150.609 33.115 149.902 33.209 149.228 33.209H149.224ZM149.038 31.4584C150.305 31.4584 151.256 31.2039 151.9 30.6869C152.543 30.1739 152.973 29.5042 153.198 28.6818C153.419 27.8594 153.534 26.9704 153.534 26.0149C153.534 25.0593 153.396 24.1899 153.119 23.4537C152.843 22.7213 152.409 22.1457 151.821 21.7305C151.233 21.3154 150.447 21.1079 149.468 21.1079C148.916 21.1079 148.32 21.1823 147.676 21.335C147.033 21.4838 146.437 21.7188 145.884 22.0399V30.1073C145.884 30.495 146.058 30.7887 146.405 30.9846C146.753 31.1804 147.171 31.3096 147.664 31.3683C148.154 31.431 148.616 31.4623 149.042 31.4623L149.038 31.4584Z" fill="white"/>
<path id="Vector_12" d="M160.939 33.209C159.976 33.209 159.171 33.1111 158.52 32.9153C157.868 32.7195 157.197 32.4453 156.499 32.0929V30.076C157.051 30.3776 157.541 30.6321 157.971 30.8436C158.397 31.0551 158.836 31.2117 159.282 31.3096C159.728 31.4075 160.237 31.4545 160.805 31.4545C161.697 31.4545 162.423 31.2587 162.984 30.871C163.544 30.4833 163.825 29.9781 163.825 29.3594C163.825 28.8659 163.687 28.4821 163.41 28.2197C163.134 27.9534 162.783 27.7341 162.352 27.5579C161.926 27.3817 161.48 27.1937 161.014 27.0018C160.497 26.8608 159.976 26.7042 159.451 26.5358C158.926 26.3674 158.445 26.1481 158.007 25.8739C157.568 25.5998 157.217 25.2473 156.949 24.8126C156.68 24.3779 156.546 23.8179 156.546 23.1287C156.546 22.4394 156.684 21.8833 156.961 21.4055C157.237 20.9278 157.596 20.5361 158.042 20.2228C158.488 19.9135 158.985 19.6863 159.538 19.5453C160.091 19.4044 160.643 19.3339 161.196 19.3339C161.997 19.3339 162.684 19.4396 163.256 19.6511C163.829 19.8626 164.417 20.1014 165.021 20.3677V22.2789C164.342 21.9264 163.738 21.6366 163.201 21.4173C162.664 21.198 162.033 21.0844 161.302 21.0844C160.572 21.0844 159.917 21.2293 159.337 21.523C158.757 21.8167 158.468 22.2632 158.468 22.8624C158.468 23.3597 158.614 23.7513 158.911 24.0451C159.207 24.3388 159.593 24.5659 160.075 24.7343C160.556 24.9027 161.074 25.0672 161.626 25.2238C162.072 25.3648 162.534 25.5215 163.016 25.6899C163.497 25.8583 163.943 26.0776 164.354 26.3517C164.764 26.6258 165.1 26.9861 165.356 27.4248C165.613 27.8673 165.743 28.4351 165.743 29.1244C165.743 30.0604 165.502 30.8358 165.021 31.4467C164.539 32.0576 163.927 32.5041 163.189 32.7861C162.451 33.068 161.697 33.209 160.928 33.209H160.939Z" fill="white"/>
</g>
<path id="Vector_13" d="M89.8431 17.5681C91.1075 17.5681 92.1324 16.5511 92.1324 15.2967C92.1324 14.0422 91.1075 13.0253 89.8431 13.0253C88.5787 13.0253 87.5537 14.0422 87.5537 15.2967C87.5537 16.5511 88.5787 17.5681 89.8431 17.5681Z" fill="white"/>
</g>
<g id="Group_3">
<path id="Vector_14" d="M44.895 12.4232C44.528 12.4232 44.1964 12.1647 44.1214 11.7926C43.7938 10.1713 43.1938 8.68318 42.3373 7.37516C42.1004 7.01095 42.2031 6.52534 42.5702 6.29037C42.9372 6.0554 43.4267 6.15722 43.6635 6.52143C44.6266 7.99392 45.3055 9.66614 45.6726 11.4833C45.7595 11.9062 45.4832 12.3213 45.0529 12.4036C45.0016 12.4153 44.9503 12.4192 44.895 12.4192V12.4232Z" fill="white"/>
<path id="Vector_15" d="M16.2706 42.9996C11.2774 42.9996 7.05396 41.2725 4.21988 38.0299C0.979248 34.333 -0.03123 29.1244 1.37002 23.3754C2.74758 17.7204 6.30399 12.1986 11.384 7.82415C18.3784 1.80102 27.1925 -1.02257 34.3882 0.461671C34.8145 0.547828 35.0908 0.962946 35 1.3859C34.9092 1.80885 34.4947 2.08298 34.0685 1.99291C27.3425 0.610487 19.0494 3.29701 12.4182 9.00684C7.58288 13.1698 4.20409 18.4058 2.90547 23.7435C1.63053 28.9874 2.51865 33.6986 5.41193 37.0078C8.30521 40.317 12.88 41.856 18.2916 41.3391C23.8018 40.8143 29.5016 38.2335 34.3369 34.0667C34.9013 33.5811 35.4579 33.0681 35.9868 32.5472C36.2947 32.2417 36.796 32.2456 37.1038 32.5511C37.4117 32.8605 37.4078 33.3539 37.0999 33.6594C36.5473 34.2038 35.9631 34.7403 35.375 35.2494C30.2949 39.6238 24.2794 42.3416 18.4455 42.8977C17.7074 42.9682 16.9811 43.0035 16.2746 43.0035L16.2706 42.9996Z" fill="white"/>
<path id="Vector_16" d="M11.0482 18.7321C10.9022 18.7321 10.7522 18.693 10.618 18.6029C10.2509 18.3679 10.1483 17.8823 10.389 17.5181C11.664 15.5796 13.2389 13.7977 15.0743 12.2155C23.0476 5.35042 33.6142 4.42619 38.6272 10.1556C39.0456 10.6334 39.4166 11.1503 39.7363 11.6947C39.9574 12.0667 39.831 12.5484 39.4521 12.7677C39.0771 12.987 38.5916 12.8617 38.3706 12.4858C38.0982 12.0236 37.7825 11.585 37.4312 11.1817C32.9906 6.10233 23.4226 7.09705 16.1045 13.3982C14.3796 14.8825 12.8994 16.5586 11.7034 18.3757C11.5534 18.6068 11.3008 18.7321 11.0403 18.7321H11.0482Z" fill="white"/>
<path id="Vector_17" d="M18.88 38.8252C15.2091 38.8252 11.9172 37.5916 9.70678 35.0656C8.23843 33.3895 7.35031 31.2395 7.12927 28.8467C7.0898 28.4159 7.40952 28.036 7.84371 27.9968C8.2779 27.9616 8.66078 28.2749 8.70025 28.7057C8.89366 30.7969 9.63178 32.5945 10.8988 34.0396C15.3394 39.1189 24.9074 38.1242 32.2254 31.823C32.5215 31.5684 32.8215 31.2982 33.1096 31.0241C33.4254 30.7264 33.9267 30.7382 34.2267 31.0515C34.5266 31.3648 34.5148 31.8621 34.199 32.1598C33.8912 32.4496 33.5754 32.7355 33.2596 33.0057C28.8032 36.8436 23.5338 38.8252 18.88 38.8252Z" fill="white"/>
<path id="Vector_18" d="M26.0068 29.5234C29.8545 29.5234 32.9736 26.4288 32.9736 22.6113C32.9736 18.7939 29.8545 15.6992 26.0068 15.6992C22.1592 15.6992 19.04 18.7939 19.04 22.6113C19.04 26.4288 22.1592 29.5234 26.0068 29.5234Z" fill="white"/>
<path id="Vector_19" d="M39.3382 6.60273C41.1759 6.60273 42.6657 5.12466 42.6657 3.30137C42.6657 1.47807 41.1759 0 39.3382 0C37.5005 0 36.0107 1.47807 36.0107 3.30137C36.0107 5.12466 37.5005 6.60273 39.3382 6.60273Z" fill="white"/>
<path id="Vector_20" d="M8.98493 25.186C10.3147 25.186 11.3927 24.1164 11.3927 22.7971C11.3927 21.4777 10.3147 20.4082 8.98493 20.4082C7.65515 20.4082 6.57715 21.4777 6.57715 22.7971C6.57715 24.1164 7.65515 25.186 8.98493 25.186Z" fill="white"/>
</g>
</g>
<defs>
<clipPath id="clip0_1501_10676">
<rect width="165" height="43" fill="white" transform="translate(0.754883)"/>
</clipPath>
</defs>
</svg>
