<svg width="80" height="80" viewBox="0 0 80 80" fill="none" xmlns="http://www.w3.org/2000/svg">
<g id="icon=play, state=hover">
<path id="bg" d="M40 9L12.5 24L13 55.5L40 71.5L67.5 55.5V24L40 9Z" fill="white"/>
<path id="Vector" d="M33.3334 53.2667V26.7334L52.2868 40L33.3334 53.2667ZM35.0001 29.9334V50.0667L49.3801 40L35.0001 29.9334ZM40.0001 72.6284L11.6667 56.3167V23.685L40.0001 7.3717L68.3334 23.685V56.315L40.0001 72.6284ZM13.3334 55.3517L40.0001 70.705L66.6668 55.3517V24.6484L40.0001 9.29504L13.3334 24.65V55.3534V55.3517Z" fill="white"/>
<path id="vector contrast" d="M33.3335 53.2666V26.7333L52.2868 39.9999L33.3335 53.2666ZM35.0002 29.9333V50.0666L49.3802 39.9999L35.0002 29.9333Z" fill="black"/>
</g>
</svg>
