<svg width="37" height="37" viewBox="0 0 37 37" fill="none" xmlns="http://www.w3.org/2000/svg">
<g id="tabler-icon-brand-tiktok">
<path id="Vector" d="M32 12.3755V18.4265C29.2791 18.1566 26.6847 17.1442 24.5 15.5V22.25C24.4996 24.0817 23.9832 25.8762 23.01 27.428C22.0369 28.9798 20.6462 30.2261 18.9975 31.024C17.3487 31.822 15.5086 32.1394 13.6878 31.9398C11.867 31.7402 10.1392 31.0318 8.70246 29.8957C7.26569 28.7596 6.17801 27.2417 5.56404 25.516C4.95007 23.7902 4.83464 21.9264 5.23098 20.1381C5.62732 18.3498 6.5194 16.7094 7.805 15.4046C9.09061 14.0999 10.7177 13.1837 12.5 12.761V19.25C11.9886 19.6335 11.5838 20.1414 11.3239 20.7254C11.064 21.3094 10.9577 21.9501 11.0152 22.5868C11.0726 23.2234 11.2917 23.8348 11.6519 24.3629C12.0121 24.891 12.5012 25.3182 13.0729 25.6041C13.6447 25.89 14.28 26.0249 14.9186 25.9962C15.5571 25.9675 16.1777 25.776 16.7215 25.4399C17.2652 25.1039 17.7141 24.6344 18.0253 24.0761C18.3366 23.5178 18.5 22.8892 18.5 22.25V5H24.6245C24.9368 6.8426 25.8146 8.54244 27.1361 9.86394C28.4576 11.1854 30.1574 12.0632 32 12.3755Z" stroke="#FFC000" stroke-width="1.5" stroke-linecap="round" stroke-linejoin="round"/>
</g>
</svg>
