<svg width="24" height="25" viewBox="0 0 24 25" fill="none" xmlns="http://www.w3.org/2000/svg">
<g id="notifications_small">
<mask id="mask0_2393_1372" style="mask-type:alpha" maskUnits="userSpaceOnUse" x="0" y="0" width="24" height="25">
<rect id="Bounding box" y="0.0883789" width="24" height="24" fill="#D9D9D9"/>
</mask>
<g mask="url(#mask0_2393_1372)">
<path id="notifications" d="M5 18.8576V17.8576H6.61537V9.93453C6.61537 8.62813 7.02884 7.4791 7.85577 6.48743C8.68269 5.49575 9.73077 4.87811 11 4.63453V4.08838C11 3.8106 11.097 3.57448 11.291 3.38003C11.485 3.1856 11.7206 3.08838 11.9978 3.08838C12.2749 3.08838 12.5112 3.1856 12.7067 3.38003C12.9022 3.57448 13 3.8106 13 4.08838V4.63453C14.2692 4.87811 15.3173 5.49575 16.1442 6.48743C16.9712 7.4791 17.3846 8.62813 17.3846 9.93453V17.8576H19V18.8576H5ZM11.9966 21.473C11.5514 21.473 11.1715 21.3148 10.8567 20.9985C10.542 20.6821 10.3846 20.3018 10.3846 19.8576H13.6154C13.6154 20.305 13.4569 20.6861 13.1399 21.0009C12.8229 21.3156 12.4418 21.473 11.9966 21.473ZM7.61537 17.8576H16.3846V9.93453C16.3846 8.71915 15.9577 7.68453 15.1039 6.83068C14.25 5.97685 13.2154 5.54993 12 5.54993C10.7846 5.54993 9.75 5.97685 8.89615 6.83068C8.0423 7.68453 7.61537 8.71915 7.61537 9.93453V17.8576Z" fill="#FFC000"/>
</g>
</g>
</svg>
