<svg width="21" height="25" viewBox="0 0 21 25" fill="none" xmlns="http://www.w3.org/2000/svg">
<g id="epic" clip-path="url(#clip0_2384_1341)">
<path id="Vector" d="M18.9107 0.246826H2.07995C0.723354 0.246826 0.216492 0.753659 0.216492 2.11763V18.5822C0.216492 18.7388 0.223946 18.8804 0.238853 19.0145C0.268669 19.3127 0.276122 19.6033 0.551915 19.9313C0.58173 19.9611 0.864977 20.1773 0.864977 20.1773C1.01405 20.2518 1.11841 20.304 1.28985 20.3785L9.57107 23.8518C10.0034 24.0456 10.1823 24.1276 10.4954 24.1201C10.8084 24.1276 10.9873 24.053 11.4196 23.8518L19.7009 20.3785C19.8723 20.3114 19.9767 20.2518 20.1257 20.1773C20.1257 20.1773 20.409 19.9686 20.4388 19.9313C20.7146 19.6033 20.722 19.3127 20.7519 19.0145C20.7668 18.8804 20.7742 18.7388 20.7742 18.5822V2.11763C20.7742 0.753659 20.2748 0.246826 18.9107 0.246826Z" fill="white"/>
<path id="Vector_2" d="M17.7778 16.8008L17.7703 16.8381L17.7629 16.8828L17.7554 16.9201L17.7405 16.9574L17.7331 16.9946L17.7181 17.0319L17.7032 17.0692L17.6883 17.099L17.6734 17.1362L17.6511 17.1661L17.6287 17.1959L17.6063 17.2257L17.584 17.2555L17.5616 17.2853L17.5318 17.3151L17.5094 17.3375L17.4796 17.3673L17.4498 17.3897L17.42 17.412L17.3902 17.4269L17.3604 17.4493L17.3231 17.4716L17.2858 17.4865L17.2486 17.5089L17.2113 17.5238L17.174 17.5387L17.1367 17.5536V17.5462L17.0995 17.5611L17.0622 17.5685L16.9951 17.5834L16.9579 17.5909L16.9206 17.5984L16.8833 17.6058L16.846 17.6133L16.8013 17.6207L16.7641 17.6282H16.615L16.5777 17.6207H16.533L16.4957 17.6133L16.4584 17.6058L16.4137 17.5984L16.3765 17.5909L16.3392 17.5834L16.3019 17.576L16.2646 17.5685L16.2274 17.5611L16.1901 17.5536L16.1528 17.5387L16.1156 17.5313L16.0783 17.5164L16.041 17.5015L16.0038 17.4865L15.9665 17.4716L15.9292 17.4567L15.892 17.4418L15.8547 17.4269L15.8174 17.412L15.7801 17.3971L15.7429 17.3822L15.7056 17.3598L15.6758 17.3375L15.6385 17.3151L15.6087 17.2928L15.5789 17.2704L15.5491 17.248L15.5193 17.2257L15.4894 17.2033L15.4596 17.181L15.4298 17.1586L15.4 17.1288L15.4224 17.099L15.4522 17.0692L15.4745 17.0393L15.5044 17.0095L15.5267 16.9797L15.5491 16.9499L15.5789 16.9201L15.6013 16.8903L15.6311 16.8605L15.6534 16.8306L15.6832 16.8008L15.7056 16.771L15.728 16.7412L15.7578 16.7114L15.7801 16.6816L15.81 16.6518L15.8323 16.622L15.8621 16.6443L15.8994 16.6667L15.9292 16.689L15.9665 16.7114L15.9963 16.7338L16.0336 16.7561L16.0634 16.7785L16.1007 16.7934L16.1305 16.8157L16.1677 16.8306L16.205 16.8456L16.2423 16.8605L16.2796 16.8754L16.3168 16.8903L16.3541 16.9052L16.3914 16.9201L16.4286 16.935L16.4659 16.9425L16.5404 16.9574L16.5852 16.9648L16.6224 16.9723H16.6597L16.7044 16.9797H16.7864L16.8311 16.9723L16.8684 16.9648L16.9057 16.9574L16.9429 16.9499L16.9728 16.935L17.0026 16.9201L17.0324 16.8977L17.0548 16.8679L17.0697 16.8381L17.0846 16.8008L17.092 16.7636V16.7561L17.0846 16.7114L17.0697 16.6741L17.0473 16.6443L17.0175 16.622L16.9877 16.5996L16.9579 16.5847L16.9206 16.5698L16.8833 16.5549L16.8386 16.5325L16.8088 16.5251L16.779 16.5176L16.7417 16.5027L16.7044 16.4952L16.6672 16.4803L16.6299 16.4729L16.5852 16.458L16.5479 16.4505L16.5032 16.4356L16.4659 16.4282L16.4286 16.4133L16.3914 16.4058L16.3541 16.3909L16.3168 16.376L16.2796 16.3685L16.2423 16.3536L16.205 16.3387L16.1677 16.3238L16.123 16.3089L16.0858 16.294L16.0485 16.2791L16.0112 16.2642L15.9739 16.2418L15.9367 16.2195L15.9069 16.1971L15.8696 16.1747L15.8398 16.1524L15.81 16.13L15.7801 16.1077L15.7503 16.0779L15.7205 16.048L15.6981 16.0182L15.6758 15.9884L15.6534 15.9586L15.6311 15.9288L15.6087 15.8915L15.5938 15.8617L15.5789 15.8319L15.5714 15.7946L15.5565 15.7648L15.5491 15.7275L15.5416 15.6903L15.5342 15.653L15.5267 15.6157L15.5193 15.571V15.4816L15.5267 15.4443L15.5342 15.407L15.5416 15.3698L15.5491 15.3325L15.5565 15.2952L15.5714 15.258L15.5789 15.2207L15.5938 15.1834L15.6087 15.1462L15.6236 15.1089L15.646 15.0716L15.6683 15.0344L15.6907 15.0046L15.7131 14.9747L15.7429 14.9449L15.7727 14.9151L15.8025 14.8853L15.8323 14.8555L15.8621 14.8331L15.892 14.8108L15.9218 14.7884L15.9516 14.7661L15.9889 14.7437L16.0261 14.7288L16.0634 14.7064L16.1007 14.6915L16.1379 14.6766L16.1752 14.6617L16.2125 14.6468L16.2423 14.6393L16.2796 14.6319L16.3168 14.6244L16.3541 14.617L16.3914 14.6095L16.4286 14.6021L16.4659 14.5946L16.5032 14.5872L16.5404 14.5797H16.7044L16.7491 14.5872L16.7939 14.5946H16.8311L16.8759 14.6021L16.9131 14.6095L16.9579 14.617L16.9951 14.6244L17.0324 14.6319L17.0697 14.6393L17.1069 14.6468L17.1442 14.6543L17.1815 14.6692L17.2187 14.6841L17.256 14.6915L17.2933 14.7064L17.3305 14.7213L17.3678 14.7362L17.4051 14.7511L17.4424 14.7661L17.4796 14.7884L17.5094 14.8033L17.5467 14.8257L17.584 14.848L17.6138 14.8704L17.6511 14.8928L17.6809 14.9151L17.7107 14.9375L17.7405 14.9598L17.7703 14.9822L17.748 15.012L17.7256 15.0418L17.7032 15.0716L17.6809 15.1015L17.6585 15.1387L17.6362 15.1685L17.6138 15.1984L17.5914 15.2282L17.5691 15.258L17.5467 15.2878L17.5243 15.3176L17.502 15.3474L17.4796 15.3847L17.4573 15.4145L17.4349 15.4443L17.3604 15.6083L17.338 15.6381L17.3082 15.6157L17.2709 15.5934L17.2411 15.571L17.2113 15.5487L17.174 15.5338L17.1442 15.5114L17.1069 15.4965L17.0771 15.4816L17.0398 15.4667L17.01 15.4518L16.9728 15.4369L16.9429 15.422L16.8982 15.407L16.861 15.3921L16.8237 15.3772L16.7864 15.3698L16.7641 15.3847L16.7268 15.3772L16.6895 15.3698L16.6522 15.3623L16.615 15.3549H16.533L16.4883 15.3623L16.451 15.3698L16.4137 15.3772L16.3839 15.3921L16.3541 15.407L16.3168 15.4369L16.2945 15.4741L16.2796 15.5114L16.2721 15.5487V15.5561L16.2796 15.6083L16.2945 15.653L16.3094 15.6754L16.3392 15.7052L16.3765 15.7275L16.4063 15.7499L16.4435 15.7648L16.4883 15.7797L16.533 15.7946L16.5628 15.8021L16.5926 15.817L16.6299 15.8244L16.6672 15.8393L16.7044 15.8468L16.7491 15.8617L16.7939 15.8766L16.8386 15.8915L16.8833 15.899L16.9206 15.9139L16.9653 15.9288L17.0026 15.9362L17.0398 15.9511L17.0771 15.9661L17.1144 15.981L17.1517 15.9959L17.1889 16.0108L17.2262 16.0182L17.2709 16.0331L17.3082 16.0555L17.3455 16.0704L17.3827 16.0928L17.42 16.1151L17.4573 16.1375L17.4871 16.1598L17.5169 16.1822L17.5467 16.2046L17.5765 16.2344L17.6063 16.2642L17.6362 16.294L17.666 16.3238L17.6883 16.3536L17.7107 16.3909L17.7331 16.4207L17.7554 16.458L17.7703 16.4878L17.7852 16.5251L17.7927 16.5623L17.8001 16.5996L17.815 16.6741L17.8225 16.7114L17.83 16.7561V16.8456L17.7778 16.8008ZM15.1317 17.5611H12.9626V14.7959H15.1466V15.422H13.6856V15.8766H14.9975V16.4654H13.6856V16.935H15.1689V17.5611H15.1317ZM12.3663 17.5611H11.6731V15.9288L11.6507 15.9586L11.6283 15.9959L11.606 16.0257L11.5836 16.0555L11.5613 16.0928L11.5389 16.1226L11.5165 16.1524L11.4942 16.1897L11.4718 16.2195L11.4495 16.2493L11.4271 16.2791L11.4047 16.3164L11.3824 16.3462L11.36 16.376L11.3376 16.4133L11.3153 16.4431L11.2929 16.4729L11.2706 16.5102L11.2557 16.54L11.2333 16.5698L11.2109 16.607L11.1886 16.6369L11.1662 16.6667L11.1438 16.7039L11.1215 16.7338L11.1066 16.7636L11.0842 16.7934L11.0619 16.8306L11.0395 16.8605L11.0171 16.8903L11.0022 16.9275L10.9799 16.9574L10.9575 16.9872L10.9351 17.0244L10.9128 17.0543H10.8979L10.8755 17.017L10.8531 16.9872L10.8308 16.9499L10.8084 16.9201L10.7861 16.8828L10.7637 16.853L10.7413 16.8157L10.719 16.7859L10.6966 16.7487L10.6817 16.7188L10.6593 16.6816L10.637 16.6518L10.6146 16.6145L10.6519 16.5772L10.6295 16.54L10.6072 16.5102L10.5848 16.4729L10.5624 16.4431L10.5401 16.4058L10.5177 16.376L10.5028 16.3536L10.4805 16.3238L10.4581 16.2866L10.4357 16.2567L10.4134 16.2195L10.391 16.1897L10.3686 16.1524L10.3537 16.13L10.3314 16.0928L10.309 16.0629L10.2867 16.0257L10.2643 15.9959L10.2419 15.9586L10.2196 15.9288V17.5536H9.504V14.7884H10.2792L10.3016 14.8182L10.3239 14.8555L10.3463 14.8853L10.3686 14.9226L10.391 14.9524L10.4134 14.9897L10.4357 15.0195L10.4581 15.0567L10.4805 15.0866L10.5028 15.1164L10.5252 15.1536L10.5475 15.1834L10.5699 15.2207L10.5923 15.2505L10.6146 15.2878L10.637 15.3176L10.6593 15.3474L10.6817 15.3847L10.7041 15.4145L10.7264 15.4518L10.7488 15.4816L10.7712 15.5188L10.7935 15.5487L10.8084 15.5859L10.8308 15.6157L10.8457 15.6456L10.8681 15.6828L10.8904 15.7126L10.9128 15.7499L10.9351 15.7797L10.95 15.817L10.9724 15.8468L10.9948 15.8841L11.0171 15.9139L11.0395 15.8841L11.0619 15.8468L11.0842 15.817L11.1066 15.7797L11.1289 15.7499L11.1513 15.7126L11.1737 15.6828L11.196 15.6456L11.2184 15.6157L11.2333 15.5859L11.2557 15.5487L11.278 15.5188L11.3004 15.4816L11.3227 15.4518L11.3451 15.4145L11.3675 15.3847L11.3898 15.3474L11.4122 15.3176L11.4345 15.2878L11.4569 15.2505L11.4793 15.2207L11.5016 15.1834L11.524 15.1536L11.5464 15.1164L11.5613 15.0866L11.5836 15.0567L11.606 15.0195L11.6283 14.9897L11.6507 14.9524L11.6731 14.9226L11.6954 14.8853L11.7178 14.8555L11.7402 14.8182L11.7625 14.7884H12.5377V17.5536L12.3663 17.5611ZM7.98342 16.4207L7.96851 16.3834L7.9536 16.3462L7.93869 16.3089L7.92378 16.2716L7.90888 16.2344L7.89397 16.1971L7.87906 16.1598L7.86415 16.1226L7.84925 16.0853L7.83434 16.048L7.81943 16.0108L7.80452 15.9735L7.78962 15.9362L7.77471 15.899L7.7598 15.8617L7.74489 15.8244L7.72998 15.7872L7.71508 15.7499L7.70017 15.7126L7.68526 15.6754L7.67035 15.6381L7.65545 15.6008L7.64054 15.6381L7.62563 15.6754L7.61072 15.7126L7.59582 15.7499L7.58091 15.7872L7.566 15.8244L7.55109 15.8617L7.53618 15.899L7.52128 15.9362L7.50637 15.9735L7.49146 16.0108L7.47655 16.048L7.46165 16.0853L7.44674 16.1226L7.43183 16.1598L7.41692 16.1971L7.40202 16.2344L7.38711 16.2716L7.3722 16.3089L7.35729 16.3462L7.34238 16.3834L7.32748 16.4207L7.31257 16.458H7.9536L7.98342 16.4207ZM9.16858 17.5611H8.43065L8.41574 17.5238L8.40083 17.4865L8.38592 17.4493L8.37102 17.412L8.35611 17.3747L8.3412 17.3375L8.32629 17.3002L8.31138 17.2629L8.29648 17.2257L8.28157 17.1884L8.26666 17.1511L8.25175 17.1139L8.23685 17.0766L8.22194 17.0393L8.20703 17.0021H7.13368L7.11877 17.0393L7.10386 17.0766L7.08895 17.1139L7.07405 17.1511L7.05914 17.1884L7.02932 17.2555L7.01441 17.2928L6.99951 17.33L6.9846 17.3673L6.96969 17.4046L6.95478 17.4418L6.93988 17.4791L6.92497 17.5164L6.91006 17.5536H6.16468L6.17958 17.5164L6.2094 17.4493L6.22431 17.412L6.23921 17.3747L6.26903 17.3077L6.28394 17.2704L6.29885 17.2331L6.31375 17.1959L6.32866 17.1735L6.34357 17.1362L6.35848 17.099L6.37338 17.0617L6.38829 17.0244L6.4032 16.9872L6.41811 16.9499L6.43301 16.9126L6.44792 16.8754L6.46283 16.8381L6.47774 16.8008L6.49265 16.7636L6.52246 16.6965L6.53737 16.6592L6.55228 16.622L6.56718 16.5847L6.58209 16.5474L6.597 16.5102L6.61191 16.4729L6.62681 16.4356L6.64172 16.3984L6.65663 16.3611L6.67154 16.3238L6.68645 16.2866L6.70135 16.2493L6.71626 16.212L6.73117 16.1747L6.74608 16.1375L6.76098 16.1002L6.77589 16.0629L6.7908 16.0257L6.80571 15.9884L6.82061 15.9511L6.83552 15.9139L6.85043 15.8766L6.86534 15.8393L6.88025 15.8021L6.89515 15.7648L6.91006 15.7275L6.92497 15.6903L6.93988 15.653L6.95478 15.6157L6.96969 15.5785L6.9846 15.5412L6.99951 15.5039L7.02932 15.4369L7.04423 15.3996L7.05914 15.3623L7.07405 15.3251L7.08895 15.2878L7.10386 15.2505L7.11877 15.2133L7.13368 15.176L7.14858 15.1387L7.16349 15.1015L7.1784 15.0642L7.18585 15.0269L7.20076 14.9897L7.21567 14.9524L7.23058 14.9151L7.24548 14.8779L7.26039 14.8406L7.2753 14.8033L7.29021 14.7661L7.30511 14.7288L7.33493 14.6617L7.34984 14.6244H8.0505L8.06541 14.6617L8.08032 14.699L8.09522 14.7362L8.11013 14.7735L8.12504 14.8108L8.13995 14.848L8.15485 14.8853L8.16976 14.9226L8.18467 14.9598L8.19958 14.9971L8.21449 15.0344L8.22939 15.0716L8.2443 15.1089L8.25921 15.1462L8.27412 15.1834L8.28902 15.2207L8.30393 15.258L8.31884 15.2952L8.33375 15.3325L8.34865 15.3698L8.36356 15.407L8.37847 15.4443L8.39338 15.4816L8.40829 15.5188L8.42319 15.5561L8.4381 15.5934L8.45301 15.6306L8.46792 15.6679L8.48282 15.7052L8.49773 15.7424L8.52755 15.8095L8.54245 15.8468L8.55736 15.8841L8.57227 15.9213L8.58718 15.9586L8.60209 15.9959L8.61699 16.0331L8.6319 16.0704L8.64681 16.1077L8.66172 16.1449L8.67662 16.1822L8.69153 16.2195L8.70644 16.2567L8.72135 16.294L8.73625 16.3313L8.75116 16.3685L8.76607 16.4058L8.78098 16.4431L8.79589 16.4803L8.81079 16.5176L8.8257 16.5549L8.84061 16.5921L8.85552 16.6294L8.87042 16.6667L8.88533 16.7039L8.90024 16.7412L8.91515 16.7785L8.93005 16.8157L8.94496 16.853L8.95987 16.8903L8.97478 16.9275L8.98969 16.9648L9.00459 17.0021L9.0195 17.0393L9.03441 17.0766L9.04932 17.1139L9.06422 17.1511L9.07913 17.1884L9.09404 17.2257L9.10895 17.2629L9.12385 17.3002L9.13876 17.3375L9.15367 17.3747L9.16858 17.412L9.18349 17.4493L9.19839 17.4865L9.2133 17.5238L9.24312 17.5909L9.16858 17.5611ZM5.85907 17.2033L5.82925 17.2257L5.79944 17.248L5.76962 17.2704L5.73981 17.2928L5.70999 17.3151L5.68018 17.3375L5.65036 17.3598L5.61309 17.3822L5.57582 17.4046L5.53855 17.4269L5.50128 17.4418L5.46401 17.4642L5.42674 17.4791L5.38948 17.494L5.35221 17.5089L5.31494 17.5238L5.27767 17.5387L5.2404 17.5536L5.20313 17.5685L5.16586 17.5834L5.12859 17.5984L5.09132 17.6058L5.05405 17.6133L5.01678 17.6207L4.97951 17.6282L4.94224 17.6356L4.89752 17.6431L4.86025 17.6505L4.81553 17.658L4.77826 17.6654L4.73354 17.6729H4.61427L4.57701 17.6654L4.53228 17.658L4.49501 17.6505L4.45774 17.6431L4.42047 17.6356L4.38321 17.6282L4.34594 17.6207L4.30867 17.6133L4.2714 17.6058L4.23413 17.5984L4.19686 17.5909L4.15959 17.576L4.12232 17.5611L4.08505 17.5462L4.04778 17.5313L4.01051 17.5164L3.97324 17.5015L3.93597 17.4865L3.89871 17.4642L3.86889 17.4493L3.83162 17.4269L3.80181 17.4046L3.77199 17.3822L3.74217 17.3598L3.71236 17.3375L3.68254 17.3151L3.65273 17.2928L3.62291 17.2704L3.5931 17.2406L3.56328 17.2182L3.53347 17.1884L3.50365 17.1586L3.48129 17.1288L3.45893 17.099L3.43657 17.0692L3.41421 17.0393L3.39184 17.0095L3.36948 16.9797L3.35457 16.9499L3.33221 16.9126L3.30985 16.8828L3.29494 16.8456L3.28004 16.8083L3.26513 16.771L3.25022 16.7338L3.23531 16.7039L3.2204 16.6667L3.21295 16.6294L3.19804 16.5921L3.19059 16.5549L3.17568 16.5176L3.16823 16.4803V16.4431L3.16077 16.4058V16.3685L3.15332 16.3313V16.0108L3.16077 15.9661L3.16823 15.9288L3.17568 15.8915L3.18314 15.8543L3.19804 15.817L3.2055 15.7797L3.2204 15.7424L3.23531 15.7052L3.25022 15.6679L3.26513 15.6306L3.28004 15.5934L3.29494 15.5561L3.30985 15.5188L3.32476 15.4816L3.34712 15.4443L3.36948 15.4145L3.38439 15.3847L3.40675 15.3549L3.42911 15.3251L3.45147 15.2952L3.47384 15.2654L3.4962 15.2356L3.51856 15.2058L3.54837 15.176L3.57074 15.1462L3.60055 15.1164L3.63037 15.0866L3.66018 15.0642L3.69 15.0344L3.71981 15.012L3.74963 14.9897L3.77944 14.9673L3.80926 14.9449L3.83907 14.9226L3.86889 14.9002L3.90616 14.8779L3.94343 14.8555L3.9807 14.8331L4.01797 14.8182L4.05524 14.8033L4.09251 14.781L4.12232 14.7661L4.15959 14.7511L4.19686 14.7362L4.23413 14.7288L4.2714 14.7139L4.30867 14.7064L4.34594 14.6915L4.38321 14.6841L4.42047 14.6766L4.45774 14.6692L4.49501 14.6617L4.53228 14.6543L4.56955 14.6468L4.60682 14.6393H4.76335L4.80807 14.6468L4.8528 14.6543H4.89007L4.92734 14.6617L4.97206 14.6692L5.00933 14.6766L5.0466 14.6841L5.08387 14.6915L5.12114 14.699L5.15841 14.7064L5.19568 14.7139L5.23294 14.7288L5.27021 14.7362L5.30003 14.7511L5.3373 14.7661L5.40438 14.7959L5.44165 14.8108L5.47892 14.8331L5.51619 14.848L5.54601 14.8704L5.58328 14.8928L5.61309 14.9151L5.65036 14.9375L5.68018 14.9598L5.70999 14.9822L5.73981 15.0046L5.76962 15.0269L5.79944 15.0567L5.82925 15.0791L5.80689 15.1089L5.77708 15.1387L5.75471 15.1685L5.7249 15.1984L5.70254 15.2282L5.68018 15.258L5.65036 15.2878L5.628 15.3176L5.60564 15.3474L5.57582 15.3772L5.55346 15.407L5.52364 15.4369L5.50128 15.4667L5.47892 15.4965L5.44911 15.5263L5.42674 15.5561L5.39693 15.5859L5.37457 15.6157L5.34475 15.5934L5.31494 15.5636L5.28512 15.5412L5.25531 15.5188L5.22549 15.4965L5.19568 15.4741L5.16586 15.4518L5.12859 15.4294L5.09878 15.4145L5.06896 15.3996L5.03914 15.3847L5.00187 15.3698L4.96461 15.3549L4.92734 15.3474L4.89007 15.34L4.8528 15.3325L4.81553 15.3251L4.77081 15.3176L4.72608 15.3102H4.64409L4.60682 15.3176L4.56955 15.3251L4.53228 15.3325L4.49501 15.34L4.45774 15.3549L4.42047 15.3698L4.39066 15.4592L4.35339 15.4741L4.32357 15.4965L4.29376 15.5188L4.26394 15.5412L4.23413 15.5636L4.20431 15.5859L4.1745 15.6083L4.15214 15.6381L4.12232 15.6679L4.09996 15.6977L4.0776 15.7275L4.05524 15.7574L4.04033 15.7946L4.01797 15.8244L4.00306 15.8617L3.98815 15.899L3.97324 15.9362L3.95834 15.9735L3.95088 16.0108L3.94343 16.048L3.93597 16.0928V16.3685L3.94343 16.4058L3.95088 16.4431L3.95834 16.4803L3.97324 16.5176L4.01797 16.5027L4.03287 16.54L4.04778 16.5772L4.07014 16.6145L4.10741 16.6741L4.12977 16.7039L4.15214 16.7338L4.18195 16.7636L4.20431 16.7934L4.23413 16.8157L4.26394 16.8381L4.29376 16.8605L4.32357 16.8828L4.35339 16.9052L4.39066 16.9201L4.42793 16.935L4.4652 16.9499L4.50247 16.9648L4.53974 16.9797L4.57701 16.9872L4.61427 16.9946L4.65154 17.0021L4.69627 17.0095H4.76335L4.80807 17.0021L4.8528 16.9946L4.89007 16.9872L4.92734 16.9797L4.96461 16.9723L5.00187 16.9648L5.03914 16.9574L5.07641 16.9425L5.10623 16.9275L5.1435 16.9126L5.17331 16.8977L5.20313 16.8754V16.5027H4.65154V15.9511H5.88143V17.1884L5.85907 17.2033ZM4.64409 8.54245H6.28394V7.27537H4.64409V4.68903H6.35102V3.42195H3.25022V12.5673H6.37338V11.3002H4.64409V8.54245ZM16.3765 8.81823V10.8828C16.3765 11.248 16.205 11.4195 15.8547 11.4195H15.5938C15.2286 11.4195 15.0571 11.248 15.0571 10.8828V5.10643C15.0571 4.74121 15.2286 4.56978 15.5938 4.56978H15.8249C16.1752 4.56978 16.3466 4.74121 16.3466 5.10643V6.89525H17.7107V5.02444C17.7107 3.89152 17.1666 3.33997 16.0336 3.33997H15.3553C14.2223 3.33997 13.6632 3.89897 13.6632 5.03934V10.9425C13.6632 12.0828 14.2223 12.6418 15.3553 12.6418H16.041C17.174 12.6418 17.7331 12.0828 17.7331 10.9425V8.81077H16.3765M11.5464 3.42195H12.9402V12.5673H11.5464V3.42195ZM9.52636 7.48407C9.52636 7.84928 9.35492 8.02071 9.00459 8.02071H8.43065V4.65177H9.00459C9.35492 4.65177 9.52636 4.8232 9.52636 5.18841V7.48407ZM9.22821 3.42195H7.04423V12.5673H8.4381V9.25052H9.22821C10.3612 9.25052 10.9202 8.69152 10.9202 7.55115V5.12133C10.9202 3.98096 10.3612 3.42195 9.22821 3.42195ZM6.52991 20.8331H14.4981L10.4357 22.1747L6.52991 20.8331Z" fill="#121212"/>
</g>
<defs>
<clipPath id="clip0_2384_1341">
<rect width="20.574" height="24" fill="white" transform="translate(0.21582 0.179688)"/>
</clipPath>
</defs>
</svg>
