<svg width="37" height="37" viewBox="0 0 37 37" fill="none" xmlns="http://www.w3.org/2000/svg">
<g id="Virtual Manual Large">
<path id="Vector" d="M15.3665 19.1344V20.6119C15.3665 21.6679 14.6735 22.4524 13.4465 22.4524C12.23 22.4524 11.525 21.7482 11.48 20.5549V19.3384H12.3777V20.5774C12.4347 21.2479 12.8322 21.5997 13.4577 21.5997C14.0832 21.5997 14.423 21.2247 14.423 20.6457V19.1562C14.423 18.5427 14.1282 18.1902 13.4345 18.1902H12.2757V17.7927L14.2182 15.1797H11.696V14.3277H15.1505V15.2937L13.514 17.4297H13.5485C14.753 17.4297 15.3665 18.0199 15.3665 19.1344ZM20.171 19.1794V20.4754C20.171 21.6799 19.3985 22.4524 18.182 22.4524C16.886 22.4524 16.1247 21.6454 16.1247 19.8844V17.0659C16.1247 15.2134 16.9092 14.2024 18.227 14.2024C19.352 14.2024 20.0232 14.8384 20.1365 15.9409V16.5432H19.2275V15.9184C19.1255 15.3379 18.8075 15.0544 18.227 15.0544C17.477 15.0544 17.0345 15.5659 17.0345 17.1904L17.057 18.5539C17.2385 17.7927 17.75 17.3502 18.5 17.3502C19.478 17.3502 20.171 18.0094 20.171 19.1794ZM19.2162 19.2469C19.2162 18.5322 18.773 18.1789 18.1707 18.1789C17.5797 18.1789 17.1357 18.5314 17.1357 19.2477V20.5317C17.1357 21.2479 17.5797 21.5884 18.1707 21.5884C18.773 21.5884 19.2162 21.2479 19.2162 20.5309V19.2469ZM25.0205 16.9182V19.7359C25.0205 21.4752 24.1452 22.4524 22.8612 22.4524C21.5772 22.4524 20.702 21.4752 20.702 19.7359V16.9182C20.702 15.1789 21.5772 14.2024 22.862 14.2024C24.1467 14.2024 25.0205 15.1789 25.0205 16.9182ZM24.0657 16.8957C24.0657 15.6109 23.5662 15.0769 22.8612 15.0769C22.1562 15.0769 21.6567 15.6109 21.6567 16.8949V19.7599C21.6567 21.0432 22.157 21.5779 22.8612 21.5779C23.5662 21.5779 24.0657 21.0432 24.0657 19.7592V16.8957ZM32.5002 18.1797C32.5002 26.0374 26.108 32.4297 18.2502 32.4297C10.3925 32.4297 4.00024 26.0374 4.00024 18.1797C4.00024 10.3219 10.3925 3.92969 18.2502 3.92969C26.108 3.92969 32.5002 10.3219 32.5002 18.1797ZM27.2502 18.1797C27.2502 20.3052 26.9547 22.3234 26.4252 24.1369C29.7462 22.7232 31.7502 20.5174 31.7502 18.1797C31.7502 14.0442 25.694 10.6797 18.2502 10.6797C15.566 10.6797 13.0625 11.1177 10.958 11.8707C10.3467 13.7547 10.0002 15.9019 10.0002 18.1797C10.0002 20.4574 10.3467 22.6047 10.958 24.4887C13.0625 25.2424 15.566 25.6797 18.2502 25.6797C20.6142 25.6797 22.943 25.3317 24.9852 24.6732C25.175 24.6124 25.3617 24.5479 25.5447 24.4819C26.1545 22.5994 26.5002 20.4544 26.5002 18.1797H27.2502ZM25.2155 25.3872C23.1005 26.0697 20.6922 26.4297 18.2502 26.4297C15.7167 26.4297 13.3347 26.0449 11.2707 25.3707C12.7332 29.1582 15.3155 31.6797 18.2502 31.6797C21.182 31.6797 23.7612 29.1649 25.2252 25.3842C25.222 25.3848 25.2187 25.3863 25.2155 25.3872ZM9.25024 18.1797C9.25024 16.0512 9.54649 14.0299 10.0775 12.2142C6.84274 13.5859 4.75024 15.7497 4.75024 18.1797C4.75024 20.6097 6.84199 22.7742 10.0775 24.1452C9.54649 22.3302 9.25024 20.3082 9.25024 18.1797ZM18.2502 9.92969C20.783 9.92969 23.1627 10.3144 25.2252 10.9872C23.7147 7.07744 21.0852 4.67969 18.2502 4.67969C15.3155 4.67969 12.7332 7.20044 11.2707 10.9887C13.3347 10.3144 15.7167 9.92969 18.2502 9.92969ZM21.9845 5.20469C23.7245 6.45494 25.1945 8.57069 26.144 11.3142C28.4367 12.2007 30.2615 13.4614 31.358 14.9442C30.2022 10.2619 26.5955 6.53444 21.9845 5.20469ZM5.14249 14.9442C6.23974 13.4592 8.06974 12.1969 10.367 11.3104C11.303 8.62844 12.7685 6.47294 14.5392 5.19794C9.91624 6.52244 6.30124 10.2544 5.14249 14.9442ZM14.5392 31.1607C12.7685 29.8864 11.303 27.7309 10.367 25.0489C8.06974 24.1624 6.24049 22.9002 5.14249 21.4152C6.30049 26.1049 9.91624 29.8377 14.5392 31.1607ZM31.3542 21.4272C30.2742 22.8949 28.4705 24.1677 26.1267 25.0647C25.1915 27.7392 23.7275 29.8894 21.9605 31.1607C26.5805 29.8384 30.1932 26.1109 31.3542 21.4272ZM27.2502 14.5774C27.2502 15.1977 26.7455 15.7024 26.1252 15.7024C25.505 15.7024 25.0002 15.1977 25.0002 14.5774C25.0002 13.9572 25.505 13.4524 26.1252 13.4524C26.7455 13.4524 27.2502 13.9572 27.2502 14.5774ZM26.5002 14.5774C26.5 14.4779 26.4603 14.3825 26.3898 14.3122C26.3192 14.242 26.2237 14.2026 26.1241 14.2028C26.0246 14.203 25.9292 14.2428 25.8589 14.3133C25.7887 14.3838 25.7493 14.4794 25.7495 14.5789C25.7497 14.6785 25.7894 14.7739 25.86 14.8441C25.9305 14.9144 26.0261 14.9538 26.1256 14.9536C26.2252 14.9534 26.3206 14.9136 26.3908 14.8431C26.4611 14.7725 26.5004 14.677 26.5002 14.5774Z" fill="black"/>
</g>
</svg>
