<svg width="24" height="24" viewBox="0 0 24 24" fill="none" xmlns="http://www.w3.org/2000/svg">
<g id="MV_Monogram" clip-path="url(#clip0_2384_1337)">
<path id="Vector" d="M15.9379 7.2L18.2611 7.20096V8.16288L16.309 10.115C16.2682 10.1558 16.2451 10.211 16.2451 10.2686C16.2451 10.3886 16.3426 10.4861 16.4626 10.4861H18.2611V17.4005L15.9571 15.0955V10.4669L12 14.425L8.04288 10.4669V15.0955L5.73888 17.4005V10.4861H7.53744C7.65744 10.4861 7.75488 10.3886 7.75488 10.2686C7.75488 10.211 7.73184 10.1558 7.69104 10.115L5.73888 8.16288V7.20096L8.06208 7.2L12 11.1389L15.9379 7.2ZM3.57792 7.20096H1.00128C0.35712 8.67168 0 10.295 0 12C0 13.9411 0.46368 15.7766 1.2864 17.4H3.95136C2.91168 15.8563 2.304 13.9978 2.304 12C2.304 10.2557 2.76768 8.61696 3.57792 7.20096ZM12 0C8.07456 0 4.58304 1.89408 2.39232 4.81632L4.04256 6.46656C5.79552 3.95232 8.70912 2.304 12 2.304C15.2909 2.304 18.2045 3.95232 19.9574 6.46656L21.6067 4.81632C19.416 1.89408 15.9254 0 12 0ZM22.9987 7.20096H20.4221C21.2323 8.61696 21.696 10.2557 21.696 12C21.696 13.9978 21.0883 15.8563 20.0486 17.4H22.7136C23.5363 15.7766 24 13.9411 24 12C24 10.295 23.6429 8.67168 22.9987 7.20096ZM19.2691 18.409C17.4912 20.4235 14.8915 21.696 12 21.696C9.10848 21.696 6.5088 20.423 4.73088 18.409L3.09984 20.0405C5.29728 22.4707 8.47344 24.0005 12 24.0005C15.5266 24.0005 18.7027 22.4707 20.9002 20.0405L19.2691 18.409Z" fill="white"/>
</g>
<defs>
<clipPath id="clip0_2384_1337">
<rect width="24" height="24" fill="white"/>
</clipPath>
</defs>
</svg>
