<svg width="25" height="25" viewBox="0 0 25 25" fill="none" xmlns="http://www.w3.org/2000/svg">
<g id="Roblox_logo">
<path id="Vector" d="M5.4981 0.180075C5.38654 0.184736 5.27942 0.225063 5.19248 0.295127C5.10554 0.365192 5.04337 0.461298 5.01511 0.569319L0.233116 18.7415C0.215605 18.8078 0.211337 18.8769 0.220556 18.9449C0.229775 19.0128 0.2523 19.0783 0.286843 19.1375C0.321386 19.1968 0.367268 19.2486 0.421867 19.2901C0.476466 19.3316 0.538709 19.362 0.605037 19.3794L18.7782 24.1624C18.8445 24.1799 18.9137 24.1842 18.9816 24.175C19.0496 24.1657 19.115 24.1432 19.1743 24.1087C19.2335 24.0741 19.2854 24.0282 19.3269 23.9736C19.3684 23.919 19.3987 23.8568 19.4161 23.7905L24.1981 5.61726C24.2156 5.55096 24.2199 5.48185 24.2107 5.4139C24.2015 5.34594 24.1789 5.28047 24.1444 5.22123C24.1098 5.16198 24.064 5.11013 24.0094 5.06863C23.9548 5.02714 23.8925 4.99681 23.8262 4.97939L5.65298 0.197397C5.60251 0.183902 5.5503 0.178062 5.4981 0.180075ZM10.3891 9.05015L15.3454 10.3544L14.0411 15.3107L9.08485 14.0064L10.3891 9.05015Z" fill="white"/>
</g>
</svg>
