<svg width="24" height="25" viewBox="0 0 24 25" fill="none" xmlns="http://www.w3.org/2000/svg">
<g id="icon">
<path id="Vector" d="M16.217 16.0884L15.579 17.1524L8.936 13.1674L9.583 12.0884L8.936 11.0094L15.579 7.02438L16.216 8.08838H19.782L21.582 5.08838L19.782 2.08838H16.216L14.416 5.08838L15.063 6.16738L8.42 10.1524L7.784 9.08838H4.217L2.417 12.0884L4.217 15.0884H7.783L8.421 14.0244L15.064 18.0094L14.417 19.0884L16.217 22.0884H19.783L21.583 19.0884L19.783 16.0884H16.217ZM16.783 3.08838H19.217L20.417 5.08838L19.217 7.08838H16.783L15.583 5.08838L16.783 3.08838ZM7.217 14.0884H4.783L3.583 12.0884L4.783 10.0884H7.217L8.417 12.0884L7.217 14.0884ZM19.217 21.0884H16.783L15.583 19.0884L16.783 17.0884H19.217L20.417 19.0884L19.217 21.0884Z" fill="#FFC000"/>
</g>
</svg>
