<svg width="25" height="25" viewBox="0 0 25 25" fill="none" xmlns="http://www.w3.org/2000/svg">
<g id="storefront">
<mask id="mask0_2393_1353" style="mask-type:alpha" maskUnits="userSpaceOnUse" x="0" y="0" width="25" height="25">
<rect id="Bounding box" x="0.21582" y="0.460938" width="24" height="24" fill="#D9D9D9"/>
</mask>
<g mask="url(#mask0_2393_1353)">
<path id="storefront_2" d="M20.7216 11.3571V19.3456C20.7216 19.8058 20.5674 20.1901 20.2591 20.4984C19.9508 20.8068 19.5665 20.9609 19.1062 20.9609H5.33698C4.87673 20.9609 4.49244 20.8068 4.18411 20.4984C3.87577 20.1901 3.72161 19.8058 3.72161 19.3456V11.3186C3.29981 11.0071 2.99115 10.5988 2.79563 10.0936C2.60013 9.5885 2.59596 9.0494 2.78313 8.47631L3.75621 5.26864C3.88954 4.86094 4.10461 4.54106 4.40141 4.30901C4.69821 4.07696 5.06519 3.96094 5.50236 3.96094H18.9024C19.3395 3.96094 19.7056 4.06959 20.0005 4.28689C20.2953 4.5042 20.5113 4.81863 20.6485 5.23016L21.6601 8.47631C21.8472 9.0494 21.8431 9.59299 21.6476 10.1071C21.4521 10.6212 21.1434 11.0379 20.7216 11.3571ZM14.4216 10.9609C15.0639 10.9609 15.5434 10.7811 15.8601 10.4215C16.1767 10.0619 16.3101 9.69042 16.2601 9.30709L15.5947 4.96094H12.7216V9.16094C12.7216 9.65195 12.8896 10.0747 13.2255 10.4292C13.5614 10.7837 13.9601 10.9609 14.4216 10.9609ZM9.92161 10.9609C10.4588 10.9609 10.8931 10.7837 11.2245 10.4292C11.5559 10.0747 11.7216 9.65195 11.7216 9.16094V4.96094H8.84853L8.18313 9.38401C8.14211 9.69426 8.2777 10.0346 8.58988 10.4052C8.90205 10.7757 9.34596 10.9609 9.92161 10.9609ZM5.47161 10.9609C5.91262 10.9609 6.2873 10.8109 6.59563 10.5109C6.90396 10.2109 7.09596 9.83658 7.17161 9.38786L7.79853 4.96094H5.50236C5.28442 4.96094 5.11135 5.00901 4.98313 5.10516C4.85493 5.20133 4.75878 5.34556 4.69468 5.53786L3.77161 8.69556C3.60751 9.2212 3.6777 9.73016 3.98218 10.2225C4.28666 10.7148 4.78314 10.9609 5.47161 10.9609ZM18.9716 10.9609C19.5703 10.9609 20.0485 10.7276 20.4062 10.2609C20.7639 9.79427 20.8524 9.27248 20.6716 8.69556L19.6985 5.49939C19.6344 5.30709 19.5383 5.16927 19.4101 5.08594C19.2819 5.0026 19.1088 4.96094 18.8908 4.96094H16.6447L17.2716 9.38786C17.3472 9.83658 17.5392 10.2109 17.8476 10.5109C18.1559 10.8109 18.5306 10.9609 18.9716 10.9609Z" fill="white"/>
</g>
</g>
</svg>
