<svg width="868" height="1012" viewBox="0 0 868 1012" fill="none" xmlns="http://www.w3.org/2000/svg">
<g opacity="0.1" clip-path="url(#clip0_2130_7760)">
<path d="M392.142 631.765L420.236 583.079H364.049L392.142 631.765Z" fill="white"/>
<path d="M392.142 631.765L364.049 583.079L335.955 631.765H392.142Z" fill="white"/>
<path d="M420.236 583.079L392.142 631.765H448.33L420.236 583.079Z" fill="white"/>
<path d="M475.667 778.183L503.76 729.497H447.573L475.667 778.183Z" fill="white"/>
<path d="M475.667 778.183L447.573 729.497L419.479 778.183H475.667Z" fill="white"/>
<path d="M503.76 729.497L475.667 778.183H531.854L503.76 729.497Z" fill="white"/>
<path d="M475.667 680.529L503.76 631.844H447.573L475.667 680.529Z" fill="white"/>
<path d="M475.667 680.529L447.573 631.844L419.479 680.529H475.667Z" fill="white"/>
<path d="M503.76 631.844L475.667 680.529H531.854L503.76 631.844Z" fill="white"/>
<path d="M559.744 729.378L587.838 680.693H531.651L559.744 729.378Z" fill="white"/>
<path d="M559.744 729.378L531.651 680.693L503.557 729.378H559.744Z" fill="white"/>
<path d="M587.838 680.693L559.744 729.378H615.932L587.838 680.693Z" fill="white"/>
<path d="M559.744 729.497L587.838 778.183L615.932 729.497H559.744Z" fill="white"/>
<path d="M389.663 827.1L417.757 778.414H361.57L389.663 827.1Z" fill="white"/>
<path d="M389.663 827.1L361.57 778.414L333.476 827.1H389.663Z" fill="white"/>
<path d="M417.757 778.414L389.663 827.1H445.851L417.757 778.414Z" fill="white"/>
<path d="M307.765 777.889L335.859 729.203H279.672L307.765 777.889Z" fill="white"/>
<path d="M307.765 777.889L279.672 729.203L251.578 777.889H307.765Z" fill="white"/>
<path d="M475.062 876.542L503.156 827.857H446.969L475.062 876.542Z" fill="white"/>
<path d="M475.062 876.542L446.969 827.857L418.875 876.542H475.062Z" fill="white"/>
<path d="M503.156 827.857L475.062 876.542H531.25L503.156 827.857Z" fill="white"/>
<path d="M559.547 925.346L587.64 876.661H531.453L559.547 925.346Z" fill="white"/>
<path d="M559.547 925.346L531.453 876.661L503.359 925.346H559.547Z" fill="white"/>
<path d="M587.64 876.661L559.547 925.346H615.734L587.64 876.661Z" fill="white"/>
<path d="M559.547 925.46L587.64 974.145L615.734 925.46H559.547Z" fill="white"/>
<path d="M559.547 827.857L587.64 779.171H531.453L559.547 827.857Z" fill="white"/>
<path d="M559.547 827.857L531.453 779.171L503.359 827.857H559.547Z" fill="white"/>
<path d="M587.64 779.171L559.547 827.857H615.734L587.64 779.171Z" fill="white"/>
<path d="M559.547 827.976L587.64 876.661L615.734 827.976H559.547Z" fill="white"/>
<path d="M643.624 876.542L671.718 827.857H615.531L643.624 876.542Z" fill="white"/>
<path d="M643.624 876.542L615.531 827.857L587.437 876.542H643.624Z" fill="white"/>
<path d="M671.718 827.857L643.624 876.542H699.812L671.718 827.857Z" fill="white"/>
<path d="M643.624 876.661L671.718 925.346L699.812 876.661H643.624Z" fill="white"/>
<path d="M140.468 683.382L168.562 634.697H112.375L140.468 683.382Z" fill="white"/>
<path d="M140.468 683.382L112.375 634.697L84.281 683.382H140.468Z" fill="white"/>
<path d="M224.591 729.904L252.685 681.219H196.498L224.591 729.904Z" fill="white"/>
<path d="M308.872 682.535L336.966 633.849H280.779L308.872 682.535Z" fill="white"/>
<path d="M308.872 682.535L280.778 633.849L252.685 682.535H308.872Z" fill="white"/>
<path d="M307.765 876.486L335.859 827.8H279.672L307.765 876.486Z" fill="white"/>
<path d="M307.765 876.486L279.672 827.8L251.578 876.486H307.765Z" fill="white"/>
<path d="M223.484 924.584L251.578 875.898H195.391L223.484 924.584Z" fill="white"/>
<path d="M223.484 924.584L195.391 875.898L167.297 924.584H223.484Z" fill="white"/>
<path d="M392.142 729.248L420.236 680.563H364.049L392.142 729.248Z" fill="white"/>
<path d="M392.142 729.248L364.049 680.563L335.955 729.248H392.142Z" fill="white"/>
<path d="M420.236 680.563L392.142 729.248H448.33L420.236 680.563Z" fill="white"/>
<path d="M389.539 925.403L417.633 876.718H361.445L389.539 925.403Z" fill="white"/>
<path d="M389.539 925.403L361.445 876.718L333.352 925.403H389.539Z" fill="white"/>
<path d="M417.633 876.718L389.539 925.403H445.726L417.633 876.718Z" fill="white"/>
<path d="M559.744 631.765L587.838 583.079H531.651L559.744 631.765Z" fill="white"/>
<path d="M559.744 631.765L531.651 583.079L503.557 631.765H559.744Z" fill="white"/>
<path d="M587.838 583.079L559.744 631.765H615.932L587.838 583.079Z" fill="white"/>
<path d="M56.1873 827.038L84.281 778.352H28.0936L56.1873 827.038Z" fill="white"/>
<path d="M56.1873 827.038L28.0937 778.352L0 827.038H56.1873Z" fill="white"/>
<path d="M140.672 875.842L168.765 827.156H112.578L140.672 875.842Z" fill="white"/>
<path d="M140.672 875.842L112.578 827.156L84.4843 875.842H140.672Z" fill="white"/>
<path d="M140.672 778.352L168.765 729.667H112.578L140.672 778.352Z" fill="white"/>
<path d="M140.672 778.352L112.578 729.667L84.4843 778.352H140.672Z" fill="white"/>
<path d="M224.749 827.038L252.843 778.352H196.656L224.749 827.038Z" fill="white"/>
<path d="M224.749 827.038L196.656 778.352L168.562 827.038H224.749Z" fill="white"/>
<path d="M643.828 680.529L671.921 631.844H615.734L643.828 680.529Z" fill="white"/>
<path d="M643.828 680.529L615.734 631.844L587.64 680.529H643.828Z" fill="white"/>
<path d="M671.921 631.844L643.828 680.529H700.015L671.921 631.844Z" fill="white"/>
<path d="M643.828 680.648L671.921 729.333L700.015 680.648H643.828Z" fill="white"/>
<path d="M644.02 582.825L672.113 534.139H615.926L644.02 582.825Z" fill="white"/>
<path d="M644.02 582.825L615.926 534.139L587.832 582.825H644.02Z" fill="white"/>
<path d="M672.113 534.139L644.02 582.825H700.207L672.113 534.139Z" fill="white"/>
<path d="M644.02 582.938L672.113 631.623L700.207 582.938H644.02Z" fill="white"/>
<path d="M728.425 729.248L756.518 680.563H700.331L728.425 729.248Z" fill="white"/>
<path d="M728.425 729.248L700.331 680.563L672.238 729.248H728.425Z" fill="white"/>
<path d="M756.518 680.563L728.425 729.248H784.612L756.518 680.563Z" fill="white"/>
<path d="M728.425 729.367L756.518 778.053L784.612 729.367H728.425Z" fill="white"/>
<path d="M728.425 631.765L756.518 583.079H700.331L728.425 631.765Z" fill="white"/>
<path d="M728.425 631.765L700.331 583.079L672.238 631.765H728.425Z" fill="white"/>
<path d="M756.518 583.079L728.425 631.765H784.612L756.518 583.079Z" fill="white"/>
<path d="M728.425 631.878L756.518 680.563L784.612 631.878H728.425Z" fill="white"/>
<path d="M812.971 680.529L841.065 631.844H784.878L812.971 680.529Z" fill="white"/>
<path d="M812.971 680.529L784.878 631.844L756.784 680.529H812.971Z" fill="white"/>
<path d="M841.065 631.844L812.971 680.529H869.159L841.065 631.844Z" fill="white"/>
<path d="M812.971 680.648L784.878 729.333H841.065L812.971 680.648Z" fill="white"/>
<path d="M812.971 680.648L841.065 729.333L869.159 680.648H812.971Z" fill="white"/>
<path d="M643.828 777.951L671.921 729.265H615.734L643.828 777.951Z" fill="white"/>
<path d="M643.828 777.951L615.734 729.265L587.64 777.951H643.828Z" fill="white"/>
<path d="M671.921 729.265L643.828 777.951H700.015L671.921 729.265Z" fill="white"/>
<path d="M643.828 778.064L671.921 826.749L700.015 778.064H643.828Z" fill="white"/>
<path d="M728.425 826.478L756.518 777.793H700.331L728.425 826.478Z" fill="white"/>
<path d="M728.425 826.478L700.331 777.793L672.238 826.478H728.425Z" fill="white"/>
<path d="M756.518 777.793L728.425 826.478H784.612L756.518 777.793Z" fill="white"/>
<path d="M728.425 826.597L756.518 875.282L784.612 826.597H728.425Z" fill="white"/>
<path d="M305.461 974.088L333.555 925.403H277.368L305.461 974.088Z" fill="white"/>
<path d="M305.461 974.088L277.368 925.403L249.274 974.088H305.461Z" fill="white"/>
<path d="M474.741 974.258L502.834 925.573H446.647L474.741 974.258Z" fill="white"/>
<path d="M474.741 974.258L446.647 925.573L418.553 974.258H474.741Z" fill="white"/>
<path d="M502.834 925.573L474.74 974.258H530.928L502.834 925.573Z" fill="white"/>
<path d="M390.132 1022.94L418.226 974.258H362.038L390.132 1022.94Z" fill="white"/>
<path d="M390.132 1022.94L362.038 974.258L333.945 1022.94H390.132Z" fill="white"/>
<path d="M418.226 974.258L390.132 1022.94H446.319L418.226 974.258Z" fill="white"/>
<path d="M221.169 1022.89L249.263 974.202H193.075L221.169 1022.89Z" fill="white"/>
<path d="M221.169 1022.89L193.075 974.202L164.982 1022.89H221.169Z" fill="white"/>
<path d="M812.672 778.121L840.766 729.435H784.578L812.672 778.121Z" fill="white"/>
<path d="M812.672 778.121L784.578 729.435L756.485 778.121H812.672Z" fill="white"/>
<path d="M840.766 729.435L812.672 778.121H868.859L840.766 729.435Z" fill="white"/>
<path d="M812.672 778.239L784.578 826.925H840.766L812.672 778.239Z" fill="white"/>
<path d="M812.672 778.239L840.766 826.925L868.859 778.239H812.672Z" fill="white"/>
<path d="M727.905 925.459L755.999 876.774H699.812L727.905 925.459Z" fill="white"/>
<path d="M727.905 925.459L699.812 876.774L671.718 925.459H727.905Z" fill="white"/>
<path d="M755.999 876.774L727.905 925.459H784.093L755.999 876.774Z" fill="white"/>
<path d="M727.905 925.578L755.999 974.264L784.093 925.578H727.905Z" fill="white"/>
<path d="M644.02 974.202L672.113 925.516H615.926L644.02 974.202Z" fill="white"/>
<path d="M644.02 974.202L615.926 925.516L587.832 974.202H644.02Z" fill="white"/>
<path d="M672.113 925.516L644.02 974.202H700.207L672.113 925.516Z" fill="white"/>
<path d="M644.02 974.314L672.113 1023L700.207 974.314H644.02Z" fill="white"/>
<path d="M812.672 875.678L840.766 826.992H784.578L812.672 875.678Z" fill="white"/>
<path d="M812.672 875.678L784.578 826.992L756.485 875.678H812.672Z" fill="white"/>
<path d="M840.766 826.992L812.672 875.678H868.859L840.766 826.992Z" fill="white"/>
<path d="M812.672 875.791L784.578 924.476H840.766L812.672 875.791Z" fill="white"/>
<path d="M812.672 875.791L840.766 924.476L868.859 875.791H812.672Z" fill="white"/>
<path d="M812.971 973.117L841.065 924.431H784.878L812.971 973.117Z" fill="white"/>
<path d="M812.971 973.117L784.878 924.431L756.784 973.117H812.971Z" fill="white"/>
<path d="M841.065 924.431L812.971 973.117H869.159L841.065 924.431Z" fill="white"/>
<path d="M812.971 973.23L784.878 1021.92H841.065L812.971 973.23Z" fill="white"/>
<path d="M812.971 973.23L841.065 1021.92L869.159 973.23H812.971Z" fill="white"/>
<path d="M727.905 1021.86L755.999 973.173H699.812L727.905 1021.86Z" fill="white"/>
<path d="M727.905 1021.86L699.812 973.173L671.718 1021.86H727.905Z" fill="white"/>
<path d="M755.999 973.173L727.905 1021.86H784.093L755.999 973.173Z" fill="white"/>
<path d="M558.83 1022.77L586.923 974.088H530.736L558.83 1022.77Z" fill="white"/>
<path d="M558.829 1022.77L530.736 974.088L502.642 1022.77H558.829Z" fill="white"/>
<path d="M586.923 974.088L558.83 1022.77H615.017L586.923 974.088Z" fill="white"/>
<path d="M307.765 582.966L335.859 534.281H279.672L307.765 582.966Z" fill="white"/>
<path d="M307.765 582.966L279.672 534.281L251.578 582.966H307.765Z" fill="white"/>
<path d="M476.508 582.881L504.602 534.196H448.414L476.508 582.881Z" fill="white"/>
<path d="M476.508 582.881L448.414 534.196L420.321 582.881H476.508Z" fill="white"/>
<path d="M504.602 534.196L476.508 582.881H532.695L504.602 534.196Z" fill="white"/>
<path d="M56.3907 1021.8L84.4843 973.117H28.297L56.3907 1021.8Z" fill="white"/>
<path d="M56.3906 1021.8L28.2969 973.117L0.203247 1021.8H56.3906Z" fill="white"/>
<path d="M56.3907 924.313L84.4843 875.627H28.297L56.3907 924.313Z" fill="white"/>
<path d="M56.3906 924.313L28.2969 875.627L0.203247 924.313H56.3906Z" fill="white"/>
<path d="M140.468 972.998L168.562 924.312H112.375L140.468 972.998Z" fill="white"/>
<path d="M140.468 972.998L112.375 924.312L84.281 972.998H140.468Z" fill="white"/>
<path d="M392.978 242.919L421.072 194.234H364.884L392.978 242.919Z" fill="white"/>
<path d="M392.978 242.919L364.884 194.234L336.791 242.919H392.978Z" fill="white"/>
<path d="M421.072 194.234L392.978 242.919H449.165L421.072 194.234Z" fill="white"/>
<path d="M476.502 389.337L504.596 340.651H448.409L476.502 389.337Z" fill="white"/>
<path d="M476.502 389.337L448.409 340.651L420.315 389.337H476.502Z" fill="white"/>
<path d="M504.596 340.651L476.502 389.337H532.69L504.596 340.651Z" fill="white"/>
<path d="M476.502 291.689L504.596 243.004H448.409L476.502 291.689Z" fill="white"/>
<path d="M476.502 291.689L448.409 243.004L420.315 291.689H476.502Z" fill="white"/>
<path d="M504.596 243.004L476.502 291.689H532.69L504.596 243.004Z" fill="white"/>
<path d="M560.586 340.539L588.679 291.853H532.492L560.586 340.539Z" fill="white"/>
<path d="M560.586 340.539L532.492 291.853L504.398 340.539H560.586Z" fill="white"/>
<path d="M588.679 291.853L560.586 340.539H616.773L588.679 291.853Z" fill="white"/>
<path d="M560.586 340.651L588.679 389.337L616.773 340.651H560.586Z" fill="white"/>
<path d="M389.138 438.198L417.232 389.512H361.044L389.138 438.198Z" fill="white"/>
<path d="M389.138 438.198L361.044 389.512L332.951 438.198H389.138Z" fill="white"/>
<path d="M417.232 389.512L389.138 438.198H445.326L417.232 389.512Z" fill="white"/>
<path d="M475.904 487.702L503.998 439.017H447.81L475.904 487.702Z" fill="white"/>
<path d="M475.904 487.702L447.81 439.017L419.717 487.702H475.904Z" fill="white"/>
<path d="M503.997 439.017L475.904 487.702H532.091L503.997 439.017Z" fill="white"/>
<path d="M560.382 536.501L588.476 487.815H532.289L560.382 536.501Z" fill="white"/>
<path d="M560.382 536.501L532.289 487.815L504.195 536.501H560.382Z" fill="white"/>
<path d="M588.476 487.815L560.382 536.501H616.57L588.476 487.815Z" fill="white"/>
<path d="M560.382 536.62L588.476 585.305L616.57 536.62H560.382Z" fill="white"/>
<path d="M560.382 439.017L588.476 390.332H532.289L560.382 439.017Z" fill="white"/>
<path d="M560.382 439.017L532.289 390.332L504.195 439.017H560.382Z" fill="white"/>
<path d="M588.476 390.332L560.382 439.017H616.57L588.476 390.332Z" fill="white"/>
<path d="M560.382 439.13L588.476 487.816L616.57 439.13H560.382Z" fill="white"/>
<path d="M644.466 487.702L672.559 439.017H616.372L644.466 487.702Z" fill="white"/>
<path d="M644.466 487.702L616.372 439.017L588.278 487.702H644.466Z" fill="white"/>
<path d="M672.559 439.017L644.466 487.702H700.653L672.559 439.017Z" fill="white"/>
<path d="M644.466 487.815L672.559 536.501L700.653 487.815H644.466Z" fill="white"/>
<path d="M225.427 244.947L253.521 196.262H197.333L225.427 244.947Z" fill="white"/>
<path d="M306.303 486.493L334.396 437.808H278.209L306.303 486.493Z" fill="white"/>
<path d="M392.978 340.409L421.072 291.723H364.884L392.978 340.409Z" fill="white"/>
<path d="M421.072 291.723L392.978 340.409H449.165L421.072 291.723Z" fill="white"/>
<path d="M390.381 536.563L418.474 487.878H362.287L390.381 536.563Z" fill="white"/>
<path d="M390.38 536.563L362.287 487.878L334.193 536.563H390.38Z" fill="white"/>
<path d="M418.474 487.878L390.38 536.563H446.568L418.474 487.878Z" fill="white"/>
<path d="M560.586 242.919L588.679 194.234H532.492L560.586 242.919Z" fill="white"/>
<path d="M560.586 242.919L532.492 194.234L504.398 242.919H560.586Z" fill="white"/>
<path d="M588.679 194.234L560.586 242.919H616.773L588.679 194.234Z" fill="white"/>
<path d="M141.507 389.512L113.414 340.827L85.3201 389.512H141.507Z" fill="white"/>
<path d="M644.663 291.689L672.757 243.004H616.57L644.663 291.689Z" fill="white"/>
<path d="M644.663 291.689L616.57 243.004L588.476 291.689H644.663Z" fill="white"/>
<path d="M672.757 243.004L644.663 291.689H700.851L672.757 243.004Z" fill="white"/>
<path d="M644.663 291.802L672.757 340.488L700.851 291.802H644.663Z" fill="white"/>
<path d="M644.861 193.979L672.955 145.294H616.767L644.861 193.979Z" fill="white"/>
<path d="M644.861 193.979L616.767 145.294L588.674 193.979H644.861Z" fill="white"/>
<path d="M672.955 145.294L644.861 193.979H701.048L672.955 145.294Z" fill="white"/>
<path d="M644.861 194.098L672.955 242.783L701.048 194.098H644.861Z" fill="white"/>
<path d="M729.266 340.409L757.36 291.723H701.173L729.266 340.409Z" fill="white"/>
<path d="M729.266 340.409L701.173 291.723L673.079 340.409H729.266Z" fill="white"/>
<path d="M757.36 291.723L729.266 340.409H785.454L757.36 291.723Z" fill="white"/>
<path d="M729.266 340.522L757.36 389.207L785.454 340.522H729.266Z" fill="white"/>
<path d="M729.266 242.919L757.36 194.234H701.173L729.266 242.919Z" fill="white"/>
<path d="M729.266 242.919L701.173 194.234L673.079 242.919H729.266Z" fill="white"/>
<path d="M757.36 194.234L729.266 242.919H785.454L757.36 194.234Z" fill="white"/>
<path d="M729.266 243.038L757.36 291.723L785.454 243.038H729.266Z" fill="white"/>
<path d="M813.813 291.689L841.906 243.004H785.719L813.813 291.689Z" fill="white"/>
<path d="M813.813 291.689L785.719 243.004L757.625 291.689H813.813Z" fill="white"/>
<path d="M841.906 243.004L813.813 291.689H870L841.906 243.004Z" fill="white"/>
<path d="M813.813 291.802L785.719 340.488H841.906L813.813 291.802Z" fill="white"/>
<path d="M813.813 291.802L841.906 340.488L870 291.802H813.813Z" fill="white"/>
<path d="M644.663 389.105L672.757 340.42H616.57L644.663 389.105Z" fill="white"/>
<path d="M644.663 389.105L616.57 340.42L588.476 389.105H644.663Z" fill="white"/>
<path d="M672.757 340.42L644.663 389.105H700.851L672.757 340.42Z" fill="white"/>
<path d="M644.663 389.224L672.757 437.91L700.851 389.224H644.663Z" fill="white"/>
<path d="M729.266 438.034L757.36 389.348H701.173L729.266 438.034Z" fill="white"/>
<path d="M729.266 438.034L701.173 389.348L673.079 438.034H729.266Z" fill="white"/>
<path d="M757.36 389.348L729.266 438.034H785.454L757.36 389.348Z" fill="white"/>
<path d="M729.266 438.147L757.36 486.832L785.454 438.147H729.266Z" fill="white"/>
<path d="M306.303 585.249L334.396 536.563H278.209L306.303 585.249Z" fill="white"/>
<path d="M306.303 585.249L278.209 536.563L250.115 585.249H306.303Z" fill="white"/>
<path d="M475.582 585.413L503.676 536.733H447.488L475.582 585.413Z" fill="white"/>
<path d="M475.582 585.413L447.488 536.733L419.395 585.413H475.582Z" fill="white"/>
<path d="M503.676 536.733L475.582 585.413H531.769L503.676 536.733Z" fill="white"/>
<path d="M390.973 634.098L419.067 585.412H362.88L390.973 634.098Z" fill="white"/>
<path d="M390.973 634.098L362.88 585.412L334.786 634.098H390.973Z" fill="white"/>
<path d="M419.067 585.412L390.973 634.098H447.161L419.067 585.412Z" fill="white"/>
<path d="M306.303 682.676L334.396 633.99H278.209L306.303 682.676Z" fill="white"/>
<path d="M306.303 682.676L278.209 633.99L250.115 682.676H306.303Z" fill="white"/>
<path d="M813.513 389.281L841.607 340.595H785.42L813.513 389.281Z" fill="white"/>
<path d="M813.513 389.281L785.42 340.595L757.326 389.281H813.513Z" fill="white"/>
<path d="M841.607 340.595L813.513 389.281H869.701L841.607 340.595Z" fill="white"/>
<path d="M813.513 389.394L785.42 438.079H841.607L813.513 389.394Z" fill="white"/>
<path d="M813.513 389.394L841.607 438.079L869.701 389.394H813.513Z" fill="white"/>
<path d="M728.747 536.62L756.84 487.934H700.653L728.747 536.62Z" fill="white"/>
<path d="M728.747 536.62L700.653 487.934L672.559 536.62H728.747Z" fill="white"/>
<path d="M756.84 487.934L728.747 536.62H784.934L756.84 487.934Z" fill="white"/>
<path d="M728.747 536.733L756.84 585.418L784.934 536.733H728.747Z" fill="white"/>
<path d="M644.861 585.356L672.955 536.67H616.767L644.861 585.356Z" fill="white"/>
<path d="M644.861 585.356L616.767 536.67L588.674 585.356H644.861Z" fill="white"/>
<path d="M672.955 536.67L644.861 585.356H701.048L672.955 536.67Z" fill="white"/>
<path d="M644.861 585.475L672.955 634.16L701.048 585.475H644.861Z" fill="white"/>
<path d="M813.745 486.776L841.839 438.09H785.651L813.745 486.776Z" fill="white"/>
<path d="M813.745 486.776L785.651 438.09L757.558 486.776H813.745Z" fill="white"/>
<path d="M841.839 438.09L813.745 486.776H869.932L841.839 438.09Z" fill="white"/>
<path d="M813.745 486.895L785.651 535.58H841.839L813.745 486.895Z" fill="white"/>
<path d="M813.745 486.895L841.839 535.58L869.932 486.895H813.745Z" fill="white"/>
<path d="M813.813 584.271L841.906 535.586H785.719L813.813 584.271Z" fill="white"/>
<path d="M813.813 584.271L785.719 535.586L757.625 584.271H813.813Z" fill="white"/>
<path d="M841.906 535.586L813.813 584.271H870L841.906 535.586Z" fill="white"/>
<path d="M813.813 584.39L785.719 633.075H841.906L813.813 584.39Z" fill="white"/>
<path d="M813.813 584.39L841.906 633.075L870 584.39H813.813Z" fill="white"/>
<path d="M728.747 633.013L756.84 584.328H700.653L728.747 633.013Z" fill="white"/>
<path d="M728.747 633.013L700.653 584.328L672.559 633.013H728.747Z" fill="white"/>
<path d="M756.84 584.328L728.747 633.013H784.934L756.84 584.328Z" fill="white"/>
<path d="M728.747 633.132L756.84 681.817L784.934 633.132H728.747Z" fill="white"/>
<path d="M559.665 633.928L587.759 585.249H531.572L559.665 633.928Z" fill="white"/>
<path d="M559.665 633.928L531.572 585.249L503.478 633.928H559.665Z" fill="white"/>
<path d="M587.759 585.249L559.665 633.928H615.853L587.759 585.249Z" fill="white"/>
<path d="M559.665 634.047L587.759 682.733L615.853 634.047H559.665Z" fill="white"/>
<path d="M308.607 194.126L336.701 145.441H280.513L308.607 194.126Z" fill="white"/>
<path d="M308.607 194.126L280.513 145.441L252.419 194.126H308.607Z" fill="white"/>
<path d="M477.35 194.036L505.443 145.356H449.256L477.35 194.036Z" fill="white"/>
<path d="M477.349 194.036L449.256 145.356L421.162 194.036H477.349Z" fill="white"/>
<path d="M505.443 145.356L477.349 194.036H533.537L505.443 145.356Z" fill="white"/>
<path d="M643.715 682.846L671.808 634.16H615.621L643.715 682.846Z" fill="white"/>
<path d="M643.715 682.846L615.621 634.16L587.527 682.846H643.715Z" fill="white"/>
<path d="M671.808 634.16L643.715 682.846H699.902L671.808 634.16Z" fill="white"/>
<path d="M643.715 682.958L671.808 731.644L699.902 682.958H643.715Z" fill="white"/>
<path d="M141.31 584.158L169.403 535.473H113.216L141.31 584.158Z" fill="white"/>
<path d="M141.31 584.158L113.216 535.473L85.1224 584.158H141.31Z" fill="white"/>
<path d="M57.2264 732.814L85.32 684.134H29.1327L57.2264 732.814Z" fill="white"/>
<path d="M141.711 781.618L169.804 732.932H113.617L141.711 781.618Z" fill="white"/>
<path d="M141.711 781.618L113.617 732.932L85.5233 781.618H141.711Z" fill="white"/>
<path d="M141.711 684.134L169.804 635.448H113.617L141.711 684.134Z" fill="white"/>
<path d="M141.711 684.134L113.617 635.448L85.5233 684.134H141.711Z" fill="white"/>
<path d="M812.926 681.699L841.02 633.013H784.832L812.926 681.699Z" fill="white"/>
<path d="M812.926 681.699L784.832 633.013L756.739 681.699H812.926Z" fill="white"/>
<path d="M841.02 633.013L812.926 681.699H869.113L841.02 633.013Z" fill="white"/>
<path d="M812.926 681.817L784.832 730.503H841.02L812.926 681.817Z" fill="white"/>
<path d="M812.926 681.817L841.02 730.503L869.113 681.817H812.926Z" fill="white"/>
<path d="M724.41 143.887L752.503 95.2014H696.316L724.41 143.887Z" fill="white"/>
<path d="M724.41 143.887L696.316 95.2014L668.223 143.887H724.41Z" fill="white"/>
<path d="M752.504 95.2014L724.41 143.887H780.597L752.504 95.2014Z" fill="white"/>
<path d="M807.934 290.305L836.028 241.62H779.84L807.934 290.305Z" fill="white"/>
<path d="M807.934 290.305L779.84 241.62L751.747 290.305H807.934Z" fill="white"/>
<path d="M836.028 241.62L807.934 290.305H864.121L836.028 241.62Z" fill="white"/>
<path d="M807.934 192.657L836.028 143.972H779.84L807.934 192.657Z" fill="white"/>
<path d="M807.934 192.657L779.84 143.972L751.747 192.657H807.934Z" fill="white"/>
<path d="M836.028 143.972L807.934 192.657H864.121L836.028 143.972Z" fill="white"/>
<path d="M721.931 339.222L750.024 290.537H693.837L721.931 339.222Z" fill="white"/>
<path d="M721.931 339.222L693.837 290.537L665.744 339.222H721.931Z" fill="white"/>
<path d="M750.025 290.537L721.931 339.222H778.118L750.025 290.537Z" fill="white"/>
<path d="M640.033 290.017L668.127 241.331H611.939L640.033 290.017Z" fill="white"/>
<path d="M640.033 290.017L611.939 241.331L583.846 290.017H640.033Z" fill="white"/>
<path d="M807.33 388.67L835.424 339.985H779.236L807.33 388.67Z" fill="white"/>
<path d="M807.33 388.67L779.236 339.985L751.143 388.67H807.33Z" fill="white"/>
<path d="M835.424 339.985L807.33 388.67H863.517L835.424 339.985Z" fill="white"/>
<path d="M472.736 195.505L500.83 146.819H444.642L472.736 195.505Z" fill="white"/>
<path d="M472.736 195.505L444.642 146.819L416.549 195.505H472.736Z" fill="white"/>
<path d="M556.859 242.026L584.952 193.341H528.765L556.859 242.026Z" fill="white"/>
<path d="M641.14 194.657L669.233 145.972H613.046L641.14 194.657Z" fill="white"/>
<path d="M641.14 194.657L613.046 145.972L584.952 194.657H641.14Z" fill="white"/>
<path d="M640.033 388.608L668.127 339.923H611.939L640.033 388.608Z" fill="white"/>
<path d="M640.033 388.608L611.939 339.923L583.846 388.608H640.033Z" fill="white"/>
<path d="M555.752 436.706L583.846 388.021H527.658L555.752 436.706Z" fill="white"/>
<path d="M555.752 436.706L527.658 388.021L499.565 436.706H555.752Z" fill="white"/>
<path d="M724.41 241.377L752.503 192.691H696.316L724.41 241.377Z" fill="white"/>
<path d="M724.41 241.377L696.316 192.691L668.223 241.377H724.41Z" fill="white"/>
<path d="M752.504 192.691L724.41 241.377H780.597L752.504 192.691Z" fill="white"/>
<path d="M721.807 437.525L749.9 388.84H693.713L721.807 437.525Z" fill="white"/>
<path d="M721.807 437.525L693.713 388.84L665.619 437.525H721.807Z" fill="white"/>
<path d="M749.9 388.84L721.807 437.525H777.994L749.9 388.84Z" fill="white"/>
<path d="M388.455 339.166L416.549 290.48H360.361L388.455 339.166Z" fill="white"/>
<path d="M472.939 387.964L501.033 339.279H444.845L472.939 387.964Z" fill="white"/>
<path d="M472.939 387.964L444.845 339.279L416.752 387.964H472.939Z" fill="white"/>
<path d="M472.939 290.48L501.033 241.795H444.845L472.939 290.48Z" fill="white"/>
<path d="M472.939 290.48L444.845 241.795L416.752 290.48H472.939Z" fill="white"/>
<path d="M557.017 339.166L585.11 290.48H528.923L557.017 339.166Z" fill="white"/>
<path d="M557.017 339.166L528.923 290.48L500.829 339.166H557.017Z" fill="white"/>
<path d="M637.729 486.211L665.823 437.525H609.635L637.729 486.211Z" fill="white"/>
<path d="M637.729 486.211L609.635 437.525L581.542 486.211H637.729Z" fill="white"/>
<path d="M807.008 486.38L835.102 437.695H778.914L807.008 486.38Z" fill="white"/>
<path d="M807.008 486.38L778.914 437.695L750.821 486.38H807.008Z" fill="white"/>
<path d="M835.102 437.695L807.008 486.38H863.195L835.102 437.695Z" fill="white"/>
<path d="M722.405 535.066L750.499 486.38H694.312L722.405 535.066Z" fill="white"/>
<path d="M722.405 535.066L694.312 486.38L666.218 535.066H722.405Z" fill="white"/>
<path d="M750.499 486.38L722.405 535.066H778.593L750.499 486.38Z" fill="white"/>
<path d="M637.729 583.638L665.823 534.953H609.635L637.729 583.638Z" fill="white"/>
<path d="M637.729 583.638L609.635 534.953L581.542 583.638H637.729Z" fill="white"/>
<path d="M553.437 535.009L581.53 486.324H525.343L553.437 535.009Z" fill="white"/>
<path d="M553.437 535.009L525.343 486.324L497.249 535.009H553.437Z" fill="white"/>
<path d="M640.033 95.0884L668.127 46.4086H611.939L640.033 95.0884Z" fill="white"/>
<path d="M640.033 95.0884L611.939 46.4086L583.846 95.0884H640.033Z" fill="white"/>
<path d="M808.775 95.0037L836.869 46.3182H780.682L808.775 95.0037Z" fill="white"/>
<path d="M808.776 95.0037L780.682 46.3182L752.588 95.0037H808.776Z" fill="white"/>
<path d="M836.869 46.3182L808.776 95.0037H864.963L836.869 46.3182Z" fill="white"/>
<path d="M304.174 485.12L332.268 436.435H276.08L304.174 485.12Z" fill="white"/>
<path d="M304.174 485.12L276.08 436.435L247.987 485.12H304.174Z" fill="white"/>
<path d="M388.658 533.925L416.752 485.239H360.564L388.658 533.925Z" fill="white"/>
<path d="M388.658 533.925L360.564 485.239L332.471 533.925H388.658Z" fill="white"/>
<path d="M388.658 436.435L416.752 387.755H360.564L388.658 436.435Z" fill="white"/>
<path d="M388.658 436.435L360.564 387.755L332.471 436.435H388.658Z" fill="white"/>
<path d="M472.736 485.12L500.83 436.435H444.642L472.736 485.12Z" fill="white"/>
<path d="M472.736 485.12L444.642 436.435L416.549 485.12H472.736Z" fill="white"/>
<path d="M388.658 633.781L416.752 585.096H360.564L388.658 633.781Z" fill="white"/>
<path d="M388.658 633.781L360.564 585.096L332.471 633.781H388.658Z" fill="white"/>
<path d="M473.137 682.586L501.231 633.9H445.043L473.137 682.586Z" fill="white"/>
<path d="M473.137 682.586L445.043 633.9L416.949 682.586H473.137Z" fill="white"/>
<path d="M473.137 585.096L501.231 536.411H445.043L473.137 585.096Z" fill="white"/>
<path d="M473.137 585.096L445.043 536.411L416.949 585.096H473.137Z" fill="white"/>
<path d="M557.22 633.781L585.314 585.096H529.126L557.22 633.781Z" fill="white"/>
<path d="M557.22 633.781L529.126 585.096L501.033 633.781H557.22Z" fill="white"/>
<path d="M722.648 48.6855L750.742 0H694.554L722.648 48.6855Z" fill="white"/>
<path d="M722.648 48.6855L694.554 0L666.461 48.6855H722.648Z" fill="white"/>
<path d="M750.742 0L722.648 48.6855H778.835L750.742 0Z" fill="white"/>
<path d="M638.57 97.371L666.664 48.6855H610.477L638.57 97.371Z" fill="white"/>
<path d="M638.57 97.371L610.477 48.6855L582.383 97.371H638.57Z" fill="white"/>
<path d="M807.849 97.5405L835.943 48.855H779.756L807.849 97.5405Z" fill="white"/>
<path d="M807.849 97.5405L779.756 48.855L751.662 97.5405H807.849Z" fill="white"/>
<path d="M835.943 48.855L807.849 97.5405H864.037L835.943 48.855Z" fill="white"/>
<path d="M723.241 146.226L751.335 97.5405H695.147L723.241 146.226Z" fill="white"/>
<path d="M723.241 146.226L695.147 97.5405L667.054 146.226H723.241Z" fill="white"/>
<path d="M751.335 97.5405L723.241 146.226H779.428L751.335 97.5405Z" fill="white"/>
<path d="M638.57 194.798L666.664 146.113H610.477L638.57 194.798Z" fill="white"/>
<path d="M638.57 194.798L610.477 146.113L582.383 194.798H638.57Z" fill="white"/>
<path d="M501.671 47.5951H445.484L473.577 96.2806" fill="white"/>
<path d="M473.978 293.74L502.072 245.055H445.885L473.978 293.74Z" fill="white"/>
<path d="M473.978 293.74L445.884 245.055L417.791 293.74H473.978Z" fill="white"/>
</g>
<defs>
<clipPath id="clip0_2130_7760">
<rect width="870" height="1023" fill="white"/>
</clipPath>
</defs>
</svg>
