<svg width="36" height="40" viewBox="0 0 36 40" fill="none" xmlns="http://www.w3.org/2000/svg">
<g id="epic games logo" clip-path="url(#clip0_2737_27742)">
<path id="Vector" d="M32.0132 0.111816H3.96191C1.70091 0.111816 0.85614 0.956537 0.85614 3.22983V30.6708C0.85614 30.9317 0.868563 31.1677 0.893409 31.3913C0.943102 31.8882 0.955525 32.3727 1.41518 32.9193C1.46487 32.969 1.93695 33.3292 1.93695 33.3292C2.18541 33.4534 2.35933 33.5404 2.64506 33.6646L16.4471 39.4534C17.1677 39.7764 17.4658 39.9131 17.9876 39.9006C18.5093 39.9131 18.8075 39.7888 19.528 39.4534L33.3301 33.6646C33.6158 33.5528 33.7897 33.4534 34.0382 33.3292C34.0382 33.3292 34.5103 32.9814 34.56 32.9193C35.0196 32.3727 35.032 31.8882 35.0817 31.3913C35.1066 31.1677 35.119 30.9317 35.119 30.6708V3.22983C35.119 0.956537 34.2867 0.111816 32.0132 0.111816Z" fill="white"/>
<path id="Vector_2" d="M30.125 27.7019L30.1125 27.764L30.1001 27.8385L30.0877 27.9006L30.0628 27.9627L30.0504 28.0249L30.0256 28.087L30.0007 28.1491L29.9759 28.1988L29.951 28.2609L29.9138 28.3106L29.8765 28.3603L29.8392 28.4099L29.8019 28.4596L29.7647 28.5093L29.715 28.559L29.6777 28.5963L29.628 28.646L29.5783 28.6832L29.5286 28.7205L29.4789 28.7454L29.4293 28.7826L29.3671 28.8199L29.305 28.8447L29.2429 28.882L29.1808 28.9068L29.1187 28.9317L29.0566 28.9565V28.9441L28.9944 28.969L28.9323 28.9814L28.8205 29.0062L28.7584 29.0186L28.6963 29.0311L28.6342 29.0435L28.5721 29.0559L28.4975 29.0683L28.4354 29.0808H28.1869L28.1248 29.0683H28.0503L27.9882 29.0559L27.9261 29.0435L27.8515 29.0311L27.7894 29.0186L27.7273 29.0062L27.6652 28.9938L27.6031 28.9814L27.5409 28.969L27.4788 28.9565L27.4167 28.9317L27.3546 28.9193L27.2925 28.8944L27.2304 28.8696L27.1683 28.8447L27.1061 28.8199L27.044 28.795L26.9819 28.7702L26.9198 28.7454L26.8577 28.7205L26.7956 28.6957L26.7334 28.6708L26.6713 28.6336L26.6216 28.5963L26.5595 28.559L26.5098 28.5217L26.4601 28.4845L26.4104 28.4472L26.3608 28.4099L26.3111 28.3727L26.2614 28.3354L26.2117 28.2981L26.162 28.2485L26.1993 28.1988L26.2489 28.1491L26.2862 28.0994L26.3359 28.0497L26.3732 28L26.4104 27.9503L26.4601 27.9006L26.4974 27.8509L26.5471 27.8013L26.5844 27.7516L26.6341 27.7019L26.6713 27.6522L26.7086 27.6025L26.7583 27.5528L26.7956 27.5031L26.8453 27.4534L26.8825 27.4037L26.9322 27.441L26.9943 27.4783L27.044 27.5155L27.1061 27.5528L27.1558 27.5901L27.2179 27.6273L27.2676 27.6646L27.3298 27.6895L27.3794 27.7267L27.4416 27.7516L27.5037 27.7764L27.5658 27.8013L27.6279 27.8261L27.69 27.8509L27.7521 27.8758L27.8143 27.9006L27.8764 27.9255L27.9385 27.9379L28.0627 27.9627L28.1373 27.9752L28.1994 27.9876H28.2615L28.336 28H28.4727L28.5472 27.9876L28.6093 27.9752L28.6714 27.9627L28.7336 27.9503L28.7833 27.9255L28.8329 27.9006L28.8826 27.8634L28.9199 27.8137L28.9448 27.764L28.9696 27.7019L28.982 27.6398V27.6273L28.9696 27.5528L28.9448 27.4907L28.9075 27.441L28.8578 27.4037L28.8081 27.3665L28.7584 27.3416L28.6963 27.3168L28.6342 27.2919L28.5596 27.2547L28.5099 27.2422L28.4603 27.2298L28.3981 27.205L28.336 27.1926L28.2739 27.1677L28.2118 27.1553L28.1373 27.1304L28.0751 27.118L28.0006 27.0932L27.9385 27.0808L27.8764 27.0559L27.8143 27.0435L27.7521 27.0186L27.69 26.9938L27.6279 26.9814L27.5658 26.9565L27.5037 26.9317L27.4416 26.9068L27.367 26.882L27.3049 26.8572L27.2428 26.8323L27.1807 26.8075L27.1186 26.7702L27.0564 26.7329L27.0068 26.6957L26.9446 26.6584L26.8949 26.6211L26.8453 26.5839L26.7956 26.5466L26.7459 26.4969L26.6962 26.4472L26.6589 26.3975L26.6216 26.3478L26.5844 26.2981L26.5471 26.2485L26.5098 26.1863L26.485 26.1367L26.4601 26.087L26.4477 26.0249L26.4229 25.9752L26.4104 25.9131L26.398 25.8509L26.3856 25.7888L26.3732 25.7267L26.3608 25.6522V25.5031L26.3732 25.441L26.3856 25.3789L26.398 25.3168L26.4104 25.2547L26.4229 25.1926L26.4477 25.1304L26.4601 25.0683L26.485 25.0062L26.5098 24.9441L26.5347 24.882L26.5719 24.8199L26.6092 24.7578L26.6465 24.7081L26.6838 24.6584L26.7334 24.6087L26.7831 24.559L26.8328 24.5093L26.8825 24.4596L26.9322 24.4224L26.9819 24.3851L27.0316 24.3478L27.0813 24.3106L27.1434 24.2733L27.2055 24.2485L27.2676 24.2112L27.3298 24.1863L27.3919 24.1615L27.454 24.1367L27.5161 24.1118L27.5658 24.0994L27.6279 24.087L27.69 24.0745L27.7521 24.0621L27.8143 24.0497L27.8764 24.0373L27.9385 24.0249L28.0006 24.0124L28.0627 24H28.336L28.4106 24.0124L28.4851 24.0249H28.5472L28.6218 24.0373L28.6839 24.0497L28.7584 24.0621L28.8205 24.0745L28.8826 24.087L28.9448 24.0994L29.0069 24.1118L29.069 24.1242L29.1311 24.1491L29.1932 24.1739L29.2553 24.1863L29.3174 24.2112L29.3796 24.236L29.4417 24.2609L29.5038 24.2857L29.5659 24.3106L29.628 24.3478L29.6777 24.3727L29.7398 24.4099L29.8019 24.4472L29.8516 24.4845L29.9138 24.5217L29.9634 24.559L30.0131 24.5963L30.0628 24.6335L30.1125 24.6708L30.0753 24.7205L30.038 24.7702L30.0007 24.8199L29.9634 24.8696L29.9262 24.9317L29.8889 24.9814L29.8516 25.0311L29.8144 25.0808L29.7771 25.1304L29.7398 25.1801L29.7026 25.2298L29.6653 25.2795L29.628 25.3416L29.5908 25.3913L29.5535 25.441L29.4293 25.7143L29.392 25.764L29.3423 25.7267L29.2802 25.6894L29.2305 25.6522L29.1808 25.6149L29.1187 25.5901L29.069 25.5528L29.0069 25.528L28.9572 25.5031L28.8951 25.4783L28.8454 25.4534L28.7833 25.4286L28.7336 25.4037L28.659 25.3789L28.5969 25.354L28.5348 25.3292L28.4727 25.3168L28.4354 25.3416L28.3733 25.3292L28.3112 25.3168L28.2491 25.3044L28.1869 25.2919H28.0503L27.9758 25.3044L27.9136 25.3168L27.8515 25.3292L27.8018 25.354L27.7521 25.3789L27.69 25.4286L27.6528 25.4907L27.6279 25.5528L27.6155 25.6149V25.6273L27.6279 25.7143L27.6528 25.7888L27.6776 25.8261L27.7273 25.8758L27.7894 25.9131L27.8391 25.9503L27.9012 25.9752L27.9758 26L28.0503 26.0249L28.1 26.0373L28.1497 26.0621L28.2118 26.0745L28.2739 26.0994L28.336 26.1118L28.4106 26.1367L28.4851 26.1615L28.5596 26.1863L28.6342 26.1988L28.6963 26.2236L28.7708 26.2485L28.8329 26.2609L28.8951 26.2857L28.9572 26.3106L29.0193 26.3354L29.0814 26.3603L29.1435 26.3851L29.2056 26.3975L29.2802 26.4224L29.3423 26.4596L29.4044 26.4845L29.4665 26.5217L29.5286 26.559L29.5908 26.5963L29.6404 26.6336L29.6901 26.6708L29.7398 26.7081L29.7895 26.7578L29.8392 26.8075L29.8889 26.8572L29.9386 26.9068L29.9759 26.9565L30.0131 27.0186L30.0504 27.0683L30.0877 27.1304L30.1125 27.1801L30.1374 27.2422L30.1498 27.3044L30.1622 27.3665L30.1871 27.4907L30.1995 27.5528L30.2119 27.6273V27.7764L30.125 27.7019ZM25.7148 28.969H22.0996V24.3603H25.7396V25.4037H23.3047V26.1615H25.4911V27.1429H23.3047V27.9255H25.7769V28.969H25.7148ZM21.1058 28.969H19.9504V26.2485L19.9132 26.2981L19.8759 26.3603L19.8386 26.4099L19.8014 26.4596L19.7641 26.5217L19.7268 26.5714L19.6896 26.6211L19.6523 26.6832L19.615 26.7329L19.5777 26.7826L19.5405 26.8323L19.5032 26.8944L19.4659 26.9441L19.4287 26.9938L19.3914 27.0559L19.3541 27.1056L19.3169 27.1553L19.2796 27.2174L19.2547 27.2671L19.2175 27.3168L19.1802 27.3789L19.1429 27.4286L19.1057 27.4783L19.0684 27.5404L19.0311 27.5901L19.0063 27.6398L18.969 27.6895L18.9317 27.7516L18.8945 27.8013L18.8572 27.8509L18.8324 27.9131L18.7951 27.9627L18.7578 28.0124L18.7206 28.0745L18.6833 28.1242H18.6584L18.6212 28.0621L18.5839 28.0124L18.5466 27.9503L18.5094 27.9006L18.4721 27.8385L18.4348 27.7888L18.3976 27.7267L18.3603 27.677L18.323 27.6149L18.2982 27.5652L18.2609 27.5031L18.2236 27.4534L18.1864 27.3913L18.2485 27.3292L18.2112 27.2671L18.1739 27.2174L18.1367 27.1553L18.0994 27.1056L18.0621 27.0435L18.0249 26.9938L18 26.9565L17.9627 26.9068L17.9255 26.8447L17.8882 26.795L17.8509 26.7329L17.8137 26.6832L17.7764 26.6211L17.7516 26.5839L17.7143 26.5217L17.677 26.4721L17.6397 26.4099L17.6025 26.3603L17.5652 26.2981L17.5279 26.2485V28.9565H16.3353V24.3478H17.6273L17.6646 24.3975L17.7019 24.4596L17.7391 24.5093L17.7764 24.5714L17.8137 24.6211L17.8509 24.6832L17.8882 24.7329L17.9255 24.795L17.9627 24.8447L18 24.8944L18.0373 24.9565L18.0746 25.0062L18.1118 25.0683L18.1491 25.118L18.1864 25.1801L18.2236 25.2298L18.2609 25.2795L18.2982 25.3416L18.3354 25.3913L18.3727 25.4534L18.41 25.5031L18.4472 25.5652L18.4845 25.6149L18.5094 25.677L18.5466 25.7267L18.5715 25.7764L18.6087 25.8385L18.646 25.8882L18.6833 25.9503L18.7206 26L18.7454 26.0621L18.7827 26.1118L18.8199 26.1739L18.8572 26.2236L18.8945 26.1739L18.9317 26.1118L18.969 26.0621L19.0063 26L19.0436 25.9503L19.0808 25.8882L19.1181 25.8385L19.1554 25.7764L19.1926 25.7267L19.2175 25.677L19.2547 25.6149L19.292 25.5652L19.3293 25.5031L19.3666 25.4534L19.4038 25.3913L19.4411 25.3416L19.4784 25.2795L19.5156 25.2298L19.5529 25.1801L19.5902 25.118L19.6274 25.0683L19.6647 25.0062L19.702 24.9565L19.7392 24.8944L19.7641 24.8447L19.8014 24.795L19.8386 24.7329L19.8759 24.6832L19.9132 24.6211L19.9504 24.5714L19.9877 24.5093L20.025 24.4596L20.0622 24.3975L20.0995 24.3478H21.3915V28.9565L21.1058 28.969ZM13.801 27.0683L13.7762 27.0062L13.7513 26.9441L13.7265 26.882L13.7016 26.8199L13.6768 26.7578L13.6519 26.6957L13.6271 26.6336L13.6022 26.5714L13.5774 26.5093L13.5526 26.4472L13.5277 26.3851L13.5029 26.323L13.478 26.2609L13.4532 26.1988L13.4283 26.1367L13.4035 26.0745L13.3786 26.0124L13.3538 25.9503L13.3289 25.8882L13.3041 25.8261L13.2792 25.764L13.2544 25.7019L13.2296 25.764L13.2047 25.8261L13.1799 25.8882L13.155 25.9503L13.1302 26.0124L13.1053 26.0745L13.0805 26.1367L13.0556 26.1988L13.0308 26.2609L13.0059 26.323L12.9811 26.3851L12.9562 26.4472L12.9314 26.5093L12.9066 26.5714L12.8817 26.6336L12.8569 26.6957L12.832 26.7578L12.8072 26.8199L12.7823 26.882L12.7575 26.9441L12.7326 27.0062L12.7078 27.0683L12.6829 27.1304H13.7513L13.801 27.0683ZM15.7763 28.969H14.5464L14.5216 28.9068L14.4967 28.8447L14.4719 28.7826L14.447 28.7205L14.4222 28.6584L14.3973 28.5963L14.3725 28.5342L14.3476 28.4721L14.3228 28.4099L14.2979 28.3478L14.2731 28.2857L14.2482 28.2236L14.2234 28.1615L14.1986 28.0994L14.1737 28.0373H12.3848L12.3599 28.0994L12.3351 28.1615L12.3102 28.2236L12.2854 28.2857L12.2606 28.3478L12.2109 28.4596L12.186 28.5217L12.1612 28.5839L12.1363 28.646L12.1115 28.7081L12.0866 28.7702L12.0618 28.8323L12.0369 28.8944L12.0121 28.9565H10.7698L10.7946 28.8944L10.8443 28.7826L10.8692 28.7205L10.894 28.6584L10.9437 28.5466L10.9686 28.4845L10.9934 28.4224L11.0182 28.3603L11.0431 28.323L11.0679 28.2609L11.0928 28.1988L11.1176 28.1367L11.1425 28.0745L11.1673 28.0124L11.1922 27.9503L11.217 27.8882L11.2419 27.8261L11.2667 27.764L11.2916 27.7019L11.3164 27.6398L11.3661 27.528L11.3909 27.4658L11.4158 27.4037L11.4406 27.3416L11.4655 27.2795L11.4903 27.2174L11.5152 27.1553L11.54 27.0932L11.5649 27.0311L11.5897 26.969L11.6146 26.9068L11.6394 26.8447L11.6642 26.7826L11.6891 26.7205L11.7139 26.6584L11.7388 26.5963L11.7636 26.5342L11.7885 26.4721L11.8133 26.4099L11.8382 26.3478L11.863 26.2857L11.8879 26.2236L11.9127 26.1615L11.9376 26.0994L11.9624 26.0373L11.9872 25.9752L12.0121 25.9131L12.0369 25.8509L12.0618 25.7888L12.0866 25.7267L12.1115 25.6646L12.1363 25.6025L12.1612 25.5404L12.2109 25.4286L12.2357 25.3665L12.2606 25.3044L12.2854 25.2422L12.3102 25.1801L12.3351 25.118L12.3599 25.0559L12.3848 24.9938L12.4096 24.9317L12.4345 24.8696L12.4593 24.8075L12.4717 24.7453L12.4966 24.6832L12.5214 24.6211L12.5463 24.559L12.5711 24.4969L12.596 24.4348L12.6208 24.3727L12.6457 24.3106L12.6705 24.2485L12.7202 24.1367L12.7451 24.0745H13.9128L13.9377 24.1367L13.9625 24.1988L13.9874 24.2609L14.0122 24.323L14.0371 24.3851L14.0619 24.4472L14.0867 24.5093L14.1116 24.5714L14.1364 24.6335L14.1613 24.6957L14.1861 24.7578L14.211 24.8199L14.2358 24.882L14.2607 24.9441L14.2855 25.0062L14.3104 25.0683L14.3352 25.1304L14.3601 25.1926L14.3849 25.2547L14.4097 25.3168L14.4346 25.3789L14.4594 25.441L14.4843 25.5031L14.5091 25.5652L14.534 25.6273L14.5588 25.6894L14.5837 25.7516L14.6085 25.8137L14.6334 25.8758L14.6582 25.9379L14.7079 26.0497L14.7327 26.1118L14.7576 26.1739L14.7824 26.236L14.8073 26.2981L14.8321 26.3603L14.857 26.4224L14.8818 26.4845L14.9067 26.5466L14.9315 26.6087L14.9564 26.6708L14.9812 26.7329L15.0061 26.795L15.0309 26.8572L15.0557 26.9193L15.0806 26.9814L15.1054 27.0435L15.1303 27.1056L15.1551 27.1677L15.18 27.2298L15.2048 27.2919L15.2297 27.354L15.2545 27.4162L15.2794 27.4783L15.3042 27.5404L15.3291 27.6025L15.3539 27.6646L15.3787 27.7267L15.4036 27.7888L15.4284 27.8509L15.4533 27.9131L15.4781 27.9752L15.503 28.0373L15.5278 28.0994L15.5527 28.1615L15.5775 28.2236L15.6024 28.2857L15.6272 28.3478L15.6521 28.4099L15.6769 28.4721L15.7017 28.5342L15.7266 28.5963L15.7514 28.6584L15.7763 28.7205L15.8011 28.7826L15.826 28.8447L15.8508 28.9068L15.9005 29.0186L15.7763 28.969ZM10.2604 28.3727L10.2107 28.4099L10.161 28.4472L10.1114 28.4845L10.0617 28.5217L10.012 28.559L9.96228 28.5963L9.91259 28.6336L9.85047 28.6708L9.78836 28.7081L9.72624 28.7454L9.66413 28.7702L9.60201 28.8075L9.5399 28.8323L9.47778 28.8572L9.41566 28.882L9.35355 28.9068L9.29143 28.9317L9.22932 28.9565L9.1672 28.9814L9.10509 29.0062L9.04297 29.0311L8.98086 29.0435L8.91874 29.0559L8.85663 29.0683L8.79451 29.0808L8.73239 29.0932L8.65786 29.1056L8.59574 29.118L8.5212 29.1304L8.45909 29.1429L8.38455 29.1553H8.18578L8.12366 29.1429L8.04913 29.1304L7.98701 29.118L7.92489 29.1056L7.86278 29.0932L7.80066 29.0808L7.73855 29.0683L7.67643 29.0559L7.61432 29.0435L7.5522 29.0311L7.49009 29.0186L7.42797 28.9938L7.36586 28.969L7.30374 28.9441L7.24162 28.9193L7.17951 28.8944L7.11739 28.8696L7.05528 28.8447L6.99316 28.8075L6.94347 28.7826L6.88136 28.7454L6.83166 28.7081L6.78197 28.6708L6.73228 28.6336L6.68259 28.5963L6.63289 28.559L6.5832 28.5217L6.53351 28.4845L6.48382 28.4348L6.43412 28.3975L6.38443 28.3478L6.33474 28.2981L6.29747 28.2485L6.2602 28.1988L6.22293 28.1491L6.18566 28.0994L6.14839 28.0497L6.11112 28L6.08628 27.9503L6.04901 27.8882L6.01174 27.8385L5.98689 27.7764L5.96205 27.7143L5.9372 27.6522L5.91235 27.5901L5.88751 27.5404L5.86266 27.4783L5.85024 27.4162L5.82539 27.354L5.81297 27.2919L5.78812 27.2298L5.7757 27.1677V27.1056L5.76328 27.0435V26.9814L5.75085 26.9193V26.3851L5.76328 26.3106L5.7757 26.2485L5.78812 26.1863L5.80055 26.1242L5.82539 26.0621L5.83782 26L5.86266 25.9379L5.88751 25.8758L5.91235 25.8137L5.9372 25.7516L5.96205 25.6894L5.98689 25.6273L6.01174 25.5652L6.03659 25.5031L6.07385 25.441L6.11112 25.3913L6.13597 25.3416L6.17324 25.2919L6.21051 25.2422L6.24778 25.1926L6.28505 25.1429L6.32232 25.0932L6.35959 25.0435L6.40928 24.9938L6.44655 24.9441L6.49624 24.8944L6.54593 24.8447L6.59562 24.8075L6.64532 24.7578L6.69501 24.7205L6.7447 24.6832L6.79439 24.646L6.84409 24.6087L6.89378 24.5714L6.94347 24.5342L7.00559 24.4969L7.0677 24.4596L7.12982 24.4224L7.19193 24.3975L7.25405 24.3727L7.31616 24.3354L7.36586 24.3106L7.42797 24.2857L7.49009 24.2609L7.5522 24.2485L7.61432 24.2236L7.67643 24.2112L7.73855 24.1863L7.80066 24.1739L7.86278 24.1615L7.92489 24.1491L7.98701 24.1367L8.04913 24.1242L8.11124 24.1118L8.17336 24.0994H8.43424L8.50878 24.1118L8.58332 24.1242H8.64543L8.70755 24.1367L8.78209 24.1491L8.8442 24.1615L8.90632 24.1739L8.96843 24.1863L9.03055 24.1988L9.09266 24.2112L9.15478 24.2236L9.2169 24.2485L9.27901 24.2609L9.3287 24.2857L9.39082 24.3106L9.50263 24.3603L9.56474 24.3851L9.62686 24.4224L9.68897 24.4472L9.73866 24.4845L9.80078 24.5217L9.85047 24.559L9.91259 24.5963L9.96228 24.6335L10.012 24.6708L10.0617 24.7081L10.1114 24.7453L10.161 24.795L10.2107 24.8323L10.1735 24.882L10.1238 24.9317L10.0865 24.9814L10.0368 25.0311L9.99955 25.0808L9.96228 25.1304L9.91259 25.1801L9.87532 25.2298L9.83805 25.2795L9.78836 25.3292L9.75109 25.3789L9.7014 25.4286L9.66413 25.4783L9.62686 25.528L9.57716 25.5777L9.5399 25.6273L9.4902 25.677L9.45293 25.7267L9.40324 25.6894L9.35355 25.6398L9.30386 25.6025L9.25416 25.5652L9.20447 25.528L9.15478 25.4907L9.10509 25.4534L9.04297 25.4162L8.99328 25.3913L8.94359 25.3665L8.89389 25.3416L8.83178 25.3168L8.76966 25.2919L8.70755 25.2795L8.64543 25.2671L8.58332 25.2547L8.5212 25.2422L8.44666 25.2298L8.37213 25.2174H8.23547L8.17336 25.2298L8.11124 25.2422L8.04913 25.2547L7.98701 25.2671L7.92489 25.2919L7.86278 25.3168L7.81309 25.4658L7.75097 25.4907L7.70128 25.528L7.65159 25.5652L7.60189 25.6025L7.5522 25.6398L7.50251 25.677L7.45282 25.7143L7.41555 25.764L7.36586 25.8137L7.32859 25.8634L7.29132 25.9131L7.25405 25.9627L7.2292 26.0249L7.19193 26.0745L7.16709 26.1367L7.14224 26.1988L7.11739 26.2609L7.09255 26.323L7.08012 26.3851L7.0677 26.4472L7.05528 26.5217V26.9814L7.0677 27.0435L7.08012 27.1056L7.09255 27.1677L7.11739 27.2298L7.19193 27.205L7.21678 27.2671L7.24162 27.3292L7.27889 27.3913L7.34101 27.4907L7.37828 27.5404L7.41555 27.5901L7.46524 27.6398L7.50251 27.6895L7.5522 27.7267L7.60189 27.764L7.65159 27.8013L7.70128 27.8385L7.75097 27.8758L7.81309 27.9006L7.8752 27.9255L7.93732 27.9503L7.99943 27.9752L8.06155 28L8.12366 28.0124L8.18578 28.0249L8.24789 28.0373L8.32243 28.0497H8.43424L8.50878 28.0373L8.58332 28.0249L8.64543 28.0124L8.70755 28L8.76966 27.9876L8.83178 27.9752L8.89389 27.9627L8.95601 27.9379L9.0057 27.9131L9.06782 27.8882L9.11751 27.8634L9.1672 27.8261V27.205H8.24789V26.2857H10.2977V28.3478L10.2604 28.3727ZM8.23547 13.9379H10.9686V11.8261H8.23547V7.51554H11.0804V5.40374H5.91235V20.646H11.1176V18.5342H8.23547V13.9379ZM27.7894 14.3975V17.8385C27.7894 18.4472 27.5037 18.7329 26.9198 18.7329H26.485C25.8763 18.7329 25.5905 18.4472 25.5905 17.8385V8.21119C25.5905 7.60249 25.8763 7.31678 26.485 7.31678H26.8701C27.454 7.31678 27.7397 7.60249 27.7397 8.21119V11.1926H30.0131V8.07454C30.0131 6.18634 29.1063 5.26709 27.2179 5.26709H26.0874C24.1991 5.26709 23.2674 6.19877 23.2674 8.09939V17.9379C23.2674 19.8385 24.1991 20.7702 26.0874 20.7702H27.2304C29.1187 20.7702 30.0504 19.8385 30.0504 17.9379V14.3851H27.7894M19.7392 5.40374H22.0624V20.646H19.7392V5.40374ZM16.3726 12.1739C16.3726 12.7826 16.0869 13.0683 15.503 13.0683H14.5464V7.45343H15.503C16.0869 7.45343 16.3726 7.73914 16.3726 8.34783V12.1739ZM15.8757 5.40374H12.2357V20.646H14.5588V15.118H15.8757C17.764 15.118 18.6957 14.1863 18.6957 12.2857V8.23603C18.6957 6.33541 17.764 5.40374 15.8757 5.40374ZM11.3785 34.4224H24.6588L17.8882 36.6584L11.3785 34.4224Z" fill="#121212"/>
</g>
<defs>
<clipPath id="clip0_2737_27742">
<rect width="34.29" height="40" fill="white" transform="translate(0.855011)"/>
</clipPath>
</defs>
</svg>
