<svg width="40" height="40" viewBox="0 0 40 40" fill="none" xmlns="http://www.w3.org/2000/svg">
<g id="icon-brand-google-filled">
<path id="Vector" d="M20 3.33333C23.8171 3.32793 27.5194 4.63816 30.4833 7.04333C30.6705 7.19492 30.8226 7.38528 30.9291 7.6013C31.0357 7.81732 31.0941 8.05386 31.1004 8.29463C31.1068 8.53541 31.0608 8.7747 30.9658 8.99602C30.8708 9.21734 30.7289 9.41543 30.55 9.57666L28.0333 11.8467C27.7474 12.1041 27.3813 12.2547 26.997 12.2729C26.6127 12.2912 26.234 12.1759 25.925 11.9467C24.2304 10.7012 22.1863 10.0216 20.0833 10.0047C17.9803 9.98775 15.9254 10.6343 14.211 11.8523C12.4966 13.0703 11.2098 14.7979 10.5336 16.7893C9.85749 18.7807 9.8264 20.9346 10.4448 22.9447C11.0632 24.9548 12.2995 26.7188 13.9781 27.9858C15.6567 29.2529 17.692 29.9584 19.7946 30.0022C21.8972 30.046 23.9601 29.4257 25.6899 28.2297C27.4198 27.0336 28.7285 25.3226 29.43 23.34L29.4317 23.3333H23.3317C22.9237 23.3329 22.5301 23.1828 22.2254 22.9116C21.9207 22.6404 21.7261 22.2668 21.6783 21.8617L21.6667 21.6667V18.3333C21.6667 17.8913 21.8423 17.4674 22.1548 17.1548C22.4674 16.8423 22.8913 16.6667 23.3333 16.6667H34.9083C35.3186 16.6666 35.7145 16.818 36.0202 17.0917C36.3259 17.3653 36.5199 17.7422 36.565 18.15C36.6317 18.7617 36.6667 19.3783 36.6667 20C36.6667 29.205 29.205 36.6667 20 36.6667C10.795 36.6667 3.33333 29.205 3.33333 20C3.33333 10.795 10.795 3.33333 20 3.33333Z" fill="white"/>
</g>
</svg>
