<svg width="54" height="40" viewBox="0 0 54 40" fill="none" xmlns="http://www.w3.org/2000/svg">
<g id="walletconnect-seeklogo 1">
<g id="Group">
<path id="Vector" fill-rule="evenodd" clip-rule="evenodd" d="M26.9996 3.43042C36.1517 3.43042 43.5692 10.8479 43.5692 20C43.5692 29.1521 36.1517 36.5696 26.9996 36.5696C17.8475 36.5696 10.43 29.1521 10.43 20C10.43 10.8479 17.8475 3.43042 26.9996 3.43042Z" fill="white"/>
<path id="Vector_2" d="M20.9608 16.2265C24.2941 12.9709 29.7051 12.9709 33.0384 16.2265L33.4397 16.6214C33.608 16.7832 33.608 17.0485 33.4397 17.2104L32.0676 18.5502C31.9834 18.6343 31.8475 18.6343 31.7633 18.5502L31.2132 18.0129C28.8831 15.7411 25.1161 15.7411 22.786 18.0129L22.197 18.589C22.1129 18.6731 21.9769 18.6731 21.8928 18.589L20.5206 17.2492C20.3523 17.0874 20.3523 16.822 20.5206 16.6602L20.9608 16.2265ZM35.8799 18.9968L37.1032 20.1877C37.2714 20.3495 37.2714 20.6149 37.1032 20.7767L31.5951 26.1553C31.4268 26.3172 31.1549 26.3172 30.9931 26.1553L27.0837 22.3366C27.0449 22.2977 26.9737 22.2977 26.9349 22.3366L23.0255 26.1553C22.8572 26.3172 22.5854 26.3172 22.4235 26.1553L16.896 20.7767C16.7277 20.6149 16.7277 20.3495 16.896 20.1877L18.1193 18.9968C18.2876 18.835 18.5595 18.835 18.7213 18.9968L22.6307 22.8155C22.6695 22.8544 22.7407 22.8544 22.7795 22.8155L26.6889 18.9968C26.8572 18.835 27.129 18.835 27.2909 18.9968L31.2002 22.8155C31.2391 22.8544 31.3103 22.8544 31.3491 22.8155L35.2585 18.9968C35.4397 18.835 35.7116 18.835 35.8799 18.9968Z" fill="#121212"/>
</g>
</g>
</svg>
