<svg width="25" height="25" viewBox="0 0 25 25" fill="none" xmlns="http://www.w3.org/2000/svg">
<g id="Discord_large">
<path id="Vector" d="M8.55469 12.1024H9.05469H8.55469ZM16.5551 17.1024C16.5551 16.8263 16.3313 16.6024 16.0551 16.6024C15.779 16.6024 15.5551 16.8263 15.5551 17.1024H16.5551ZM21.5551 17.1024L22.0023 17.3262C22.0085 17.3137 22.0142 17.3011 22.0193 17.2882L21.5551 17.1024ZM20.0551 5.60242L20.5266 5.43602C20.4918 5.33729 20.4268 5.252 20.3409 5.19215L20.0551 5.60242ZM15.5551 4.10242L15.6082 3.60524C15.4015 3.58319 15.2027 3.69134 15.1089 3.87686L15.5551 4.10242ZM14.5831 6.02542L14.4981 6.51813C14.7146 6.55551 14.9302 6.44711 15.0294 6.25097L14.5831 6.02542ZM10.5301 6.02542L10.0842 6.25152C10.1834 6.44733 10.3988 6.55547 10.6152 6.51813L10.5301 6.02542ZM9.55513 4.10242L10.0011 3.87631C9.90718 3.6911 9.70857 3.58321 9.50209 3.60524L9.55513 4.10242ZM5.05512 5.60242L4.76932 5.19215C4.68342 5.252 4.61847 5.33729 4.58363 5.43602L5.05512 5.60242ZM3.55512 17.1024L3.09091 17.2882C3.09607 17.3011 3.10176 17.3137 3.10798 17.3262L3.55512 17.1024ZM9.55513 17.1024C9.55513 16.8263 9.33127 16.6024 9.05513 16.6024C8.77898 16.6024 8.55513 16.8263 8.55513 17.1024H9.55513ZM7.69205 16.1217C7.42653 16.0458 7.14979 16.1995 7.07393 16.4651C6.99806 16.7306 7.15181 17.0073 7.41733 17.0832L7.69205 16.1217ZM17.692 17.0832C17.9576 17.0073 18.1113 16.7306 18.0354 16.4651C17.9596 16.1995 17.6828 16.0458 17.4173 16.1217L17.692 17.0832ZM8.05469 12.1024C8.05469 12.5002 8.21272 12.8818 8.49403 13.1631L9.20113 12.456C9.10737 12.3622 9.05469 12.235 9.05469 12.1024H8.05469ZM8.49403 13.1631C8.77533 13.4444 9.15686 13.6024 9.55469 13.6024V12.6024C9.42208 12.6024 9.2949 12.5497 9.20113 12.456L8.49403 13.1631ZM9.55469 13.6024C9.95251 13.6024 10.334 13.4444 10.6153 13.1631L9.90824 12.456C9.81447 12.5497 9.6873 12.6024 9.55469 12.6024V13.6024ZM10.6153 13.1631C10.8967 12.8818 11.0547 12.5002 11.0547 12.1024H10.0547C10.0547 12.235 10.002 12.3622 9.90824 12.456L10.6153 13.1631ZM11.0547 12.1024C11.0547 11.7046 10.8967 11.3231 10.6153 11.0418L9.90824 11.7489C10.002 11.8426 10.0547 11.9698 10.0547 12.1024H11.0547ZM10.6153 11.0418C10.334 10.7605 9.95251 10.6024 9.55469 10.6024V11.6024C9.6873 11.6024 9.81447 11.6551 9.90824 11.7489L10.6153 11.0418ZM9.55469 10.6024C9.15686 10.6024 8.77533 10.7605 8.49403 11.0418L9.20113 11.7489C9.2949 11.6551 9.42208 11.6024 9.55469 11.6024V10.6024ZM8.49403 11.0418C8.21272 11.3231 8.05469 11.7046 8.05469 12.1024H9.05469C9.05469 11.9698 9.10737 11.8426 9.20113 11.7489L8.49403 11.0418ZM14.0547 12.1024C14.0547 12.5002 14.2127 12.8818 14.494 13.1631L15.2011 12.456C15.1074 12.3622 15.0547 12.235 15.0547 12.1024H14.0547ZM14.494 13.1631C14.7753 13.4444 15.1569 13.6024 15.5547 13.6024V12.6024C15.4221 12.6024 15.2949 12.5497 15.2011 12.456L14.494 13.1631ZM15.5547 13.6024C15.9525 13.6024 16.334 13.4444 16.6153 13.1631L15.9082 12.456C15.8145 12.5497 15.6873 12.6024 15.5547 12.6024V13.6024ZM16.6153 13.1631C16.8967 12.8818 17.0547 12.5002 17.0547 12.1024H16.0547C16.0547 12.235 16.002 12.3622 15.9082 12.456L16.6153 13.1631ZM17.0547 12.1024C17.0547 11.7046 16.8967 11.3231 16.6153 11.0418L15.9082 11.7489C16.002 11.8426 16.0547 11.9698 16.0547 12.1024H17.0547ZM16.6153 11.0418C16.334 10.7605 15.9525 10.6024 15.5547 10.6024V11.6024C15.6873 11.6024 15.8145 11.6551 15.9082 11.7489L16.6153 11.0418ZM15.5547 10.6024C15.1569 10.6024 14.7753 10.7605 14.494 11.0418L15.2011 11.7489C15.2949 11.6551 15.4221 11.6024 15.5547 11.6024V10.6024ZM14.494 11.0418C14.2127 11.3231 14.0547 11.7046 14.0547 12.1024H15.0547C15.0547 11.9698 15.1074 11.8426 15.2011 11.7489L14.494 11.0418ZM15.5551 17.1024C15.5551 17.4586 15.6832 17.8486 15.8418 18.1991C16.0055 18.561 16.2253 18.9318 16.458 19.2641C16.6901 19.5956 16.9449 19.9034 17.1849 20.1345C17.3041 20.2493 17.4302 20.3554 17.5569 20.4362C17.6685 20.5073 17.8467 20.6024 18.0551 20.6024V19.6024C18.1386 19.6024 18.1605 19.635 18.0944 19.5929C18.0433 19.5603 17.9702 19.5024 17.8785 19.4141C17.6966 19.2389 17.4827 18.9842 17.2772 18.6907C17.0724 18.3981 16.886 18.0813 16.7529 17.787C16.6146 17.4812 16.5551 17.2462 16.5551 17.1024H15.5551ZM18.0551 20.6024C18.9914 20.6024 19.8184 20.0862 20.4648 19.462C21.1187 18.8306 21.6497 18.0308 22.0023 17.3262L21.108 16.8787C20.7935 17.5071 20.3246 18.2072 19.7702 18.7426C19.2084 19.2851 18.6188 19.6024 18.0551 19.6024V20.6024ZM22.0193 17.2882C22.3988 16.3399 22.5135 14.7828 22.3024 12.7995C22.0893 10.7967 21.5374 8.30017 20.5266 5.43602L19.5836 5.76882C20.5728 8.57166 21.1044 10.9917 21.3081 12.9053C21.5138 14.8385 21.3785 16.1979 21.0909 16.9167L22.0193 17.2882ZM20.3409 5.19215C18.7832 4.10701 17.1425 3.7689 15.6082 3.60524L15.5021 4.5996C16.9677 4.75593 18.413 5.06782 19.7693 6.01268L20.3409 5.19215ZM15.1089 3.87686L14.1369 5.79986L15.0294 6.25097L16.0014 4.32797L15.1089 3.87686ZM14.6682 5.5327C13.2708 5.29148 11.8424 5.29148 10.4451 5.5327L10.6152 6.51813C11.9 6.29634 13.2133 6.29634 14.4981 6.51813L14.6682 5.5327ZM10.9761 5.79931L10.0011 3.87631L9.10917 4.32852L10.0842 6.25152L10.9761 5.79931ZM9.50209 3.60524C7.96772 3.7689 6.327 4.10701 4.76932 5.19215L5.34093 6.01268C6.69725 5.06782 8.14253 4.75593 9.60816 4.5996L9.50209 3.60524ZM4.58363 5.43602C3.57281 8.30017 3.02093 10.7967 2.80781 12.7995C2.59676 14.7828 2.71149 16.3399 3.09091 17.2882L4.01934 16.9167C3.73176 16.1979 3.59649 14.8385 3.80219 12.9053C4.00582 10.9917 4.53744 8.57166 5.52662 5.76882L4.58363 5.43602ZM3.10798 17.3262C3.46055 18.0308 3.99159 18.8306 4.64543 19.462C5.29188 20.0862 6.11881 20.6024 7.05512 20.6024V19.6024C6.49144 19.6024 5.90187 19.2851 5.34007 18.7426C4.78566 18.2072 4.3167 17.5071 4.00227 16.8787L3.10798 17.3262ZM7.05512 20.6024C7.26358 20.6024 7.44176 20.5073 7.55335 20.4362C7.68001 20.3554 7.80612 20.2493 7.92538 20.1345C8.16532 19.9034 8.4202 19.5956 8.65224 19.2641C8.88491 18.9318 9.10477 18.561 9.26849 18.1991C9.42707 17.8486 9.55513 17.4586 9.55513 17.1024H8.55513C8.55513 17.2462 8.49568 17.4812 8.35738 17.787C8.22423 18.0813 8.03784 18.3981 7.83301 18.6907C7.62755 18.9842 7.41368 19.2389 7.23174 19.4141C7.14007 19.5024 7.06696 19.5603 7.01588 19.5929C6.94974 19.635 6.97167 19.6024 7.05512 19.6024V20.6024ZM7.41733 17.0832C11.0071 18.1088 14.1023 18.1088 17.692 17.0832L17.4173 16.1217C14.0071 17.096 11.1023 17.096 7.69205 16.1217L7.41733 17.0832Z" fill="white"/>
</g>
</svg>
