<svg width="25" height="25" viewBox="0 0 25 25" fill="none" xmlns="http://www.w3.org/2000/svg">
<g id="Conversation Small">
<g id="Vector">
<mask id="path-1-inside-1_2393_6695" fill="white">
<path d="M13.5547 7.10242V3.10242H2.55469V13.8094L5.26169 11.1024H7.55469V18.1024H18.8477L22.5547 21.8094V7.10242H13.5547ZM4.84769 10.1024L3.55469 11.3954V4.10242H12.5547V7.10242H7.55469V10.1024H4.84769ZM21.5547 19.3954L19.2617 17.1024H8.55469V8.10242H21.5547V19.3954Z"/>
</mask>
<path d="M13.5547 7.10242V3.10242H2.55469V13.8094L5.26169 11.1024H7.55469V18.1024H18.8477L22.5547 21.8094V7.10242H13.5547ZM4.84769 10.1024L3.55469 11.3954V4.10242H12.5547V7.10242H7.55469V10.1024H4.84769ZM21.5547 19.3954L19.2617 17.1024H8.55469V8.10242H21.5547V19.3954Z" fill="#FFC000"/>
<path d="M13.5547 7.10242H12.5547V8.10242H13.5547V7.10242ZM13.5547 3.10242H14.5547V2.10242H13.5547V3.10242ZM2.55469 3.10242V2.10242H1.55469V3.10242H2.55469ZM2.55469 13.8094H1.55469V16.2236L3.26179 14.5165L2.55469 13.8094ZM5.26169 11.1024V10.1024H4.84747L4.55458 10.3953L5.26169 11.1024ZM7.55469 11.1024H8.55469V10.1024H7.55469V11.1024ZM7.55469 18.1024H6.55469V19.1024H7.55469V18.1024ZM18.8477 18.1024L19.5548 17.3953L19.2619 17.1024H18.8477V18.1024ZM22.5547 21.8094L21.8476 22.5165L23.5547 24.2236V21.8094H22.5547ZM22.5547 7.10242H23.5547V6.10242H22.5547V7.10242ZM4.84769 10.1024V9.10242H4.43347L4.14058 9.39531L4.84769 10.1024ZM3.55469 11.3954H2.55469V13.8096L4.26179 12.1025L3.55469 11.3954ZM3.55469 4.10242V3.10242H2.55469V4.10242H3.55469ZM12.5547 4.10242H13.5547V3.10242H12.5547V4.10242ZM12.5547 7.10242V8.10242H13.5547V7.10242H12.5547ZM7.55469 7.10242V6.10242H6.55469V7.10242H7.55469ZM7.55469 10.1024V11.1024H8.55469V10.1024H7.55469ZM21.5547 19.3954L20.8476 20.1025L22.5547 21.8096V19.3954H21.5547ZM19.2617 17.1024L19.9688 16.3953L19.6759 16.1024H19.2617V17.1024ZM8.55469 17.1024H7.55469V18.1024H8.55469V17.1024ZM8.55469 8.10242V7.10242H7.55469V8.10242H8.55469ZM21.5547 8.10242H22.5547V7.10242H21.5547V8.10242ZM14.5547 7.10242V3.10242H12.5547V7.10242H14.5547ZM13.5547 2.10242H2.55469V4.10242H13.5547V2.10242ZM1.55469 3.10242V13.8094H3.55469V3.10242H1.55469ZM3.26179 14.5165L5.96879 11.8095L4.55458 10.3953L1.84758 13.1023L3.26179 14.5165ZM5.26169 12.1024H7.55469V10.1024H5.26169V12.1024ZM6.55469 11.1024V18.1024H8.55469V11.1024H6.55469ZM7.55469 19.1024H18.8477V17.1024H7.55469V19.1024ZM18.1406 18.8095L21.8476 22.5165L23.2618 21.1023L19.5548 17.3953L18.1406 18.8095ZM23.5547 21.8094V7.10242H21.5547V21.8094H23.5547ZM22.5547 6.10242H13.5547V8.10242H22.5547V6.10242ZM4.14058 9.39531L2.84758 10.6883L4.26179 12.1025L5.55479 10.8095L4.14058 9.39531ZM4.55469 11.3954V4.10242H2.55469V11.3954H4.55469ZM3.55469 5.10242H12.5547V3.10242H3.55469V5.10242ZM11.5547 4.10242V7.10242H13.5547V4.10242H11.5547ZM12.5547 6.10242H7.55469V8.10242H12.5547V6.10242ZM6.55469 7.10242V10.1024H8.55469V7.10242H6.55469ZM7.55469 9.10242H4.84769V11.1024H7.55469V9.10242ZM22.2618 18.6883L19.9688 16.3953L18.5546 17.8095L20.8476 20.1025L22.2618 18.6883ZM19.2617 16.1024H8.55469V18.1024H19.2617V16.1024ZM9.55469 17.1024V8.10242H7.55469V17.1024H9.55469ZM8.55469 9.10242H21.5547V7.10242H8.55469V9.10242ZM20.5547 8.10242V19.3954H22.5547V8.10242H20.5547Z" fill="white" mask="url(#path-1-inside-1_2393_6695)"/>
</g>
</g>
</svg>
